<svg width="32" height="32" viewBox="0 0 32 32" fill="none" xmlns="http://www.w3.org/2000/svg">
<path fill-rule="evenodd" clip-rule="evenodd" d="M13.8557 14.1393H9.70066C9.33287 14.1393 9.10666 14.2951 9.01557 14.4947C8.98243 14.5711 8.96533 14.6534 8.96533 14.7366C8.96533 14.8199 8.98243 14.9022 9.01557 14.9786C9.10672 15.1781 9.33287 15.334 9.70066 15.334H13.8557C14.2235 15.334 14.4497 15.1781 14.5409 14.9786C14.574 14.9022 14.5911 14.8199 14.5911 14.7366C14.5911 14.6534 14.574 14.5711 14.5409 14.4947C14.4497 14.2951 14.2235 14.1393 13.8557 14.1393ZM10.034 13.1695H13.5221C13.8899 13.1695 14.1161 13.0136 14.2072 12.8141C14.2404 12.7377 14.2575 12.6554 14.2575 12.5722C14.2575 12.4889 14.2404 12.4066 14.2072 12.3303C14.1161 12.1307 13.8899 11.9748 13.5221 11.9748H10.0342C9.6663 11.9748 9.44016 12.1307 9.349 12.3303C9.31586 12.4066 9.29876 12.4889 9.29876 12.5722C9.29876 12.6554 9.31586 12.7377 9.349 12.8141C9.44016 13.0136 9.6663 13.1695 10.0342 13.1695H10.034ZM10.2093 16.3035C9.84147 16.3035 9.61532 16.4594 9.52416 16.659C9.49102 16.7353 9.47392 16.8177 9.47392 16.9009C9.47392 16.9841 9.49102 17.0665 9.52416 17.1428C9.61532 17.3423 9.84147 17.4983 10.2093 17.4983H13.3465C13.7143 17.4983 13.9405 17.3423 14.0316 17.1428C14.0648 17.0665 14.0819 16.9841 14.0819 16.9009C14.0819 16.8177 14.0648 16.7353 14.0316 16.659C13.9405 16.4594 13.7143 16.3035 13.3465 16.3035H10.2096H10.2093ZM10.8816 18.4679C10.5138 18.4679 10.2876 18.6237 10.1965 18.8233C10.1634 18.8997 10.1463 18.982 10.1463 19.0652C10.1463 19.1485 10.1634 19.2308 10.1965 19.3071C10.2877 19.5066 10.5138 19.6626 10.8816 19.6626H12.6742C13.042 19.6626 13.2682 19.5066 13.3594 19.3071C13.3925 19.2308 13.4096 19.1485 13.4096 19.0652C13.4096 18.982 13.3925 18.8997 13.3594 18.8233C13.2682 18.6237 13.0421 18.4679 12.6743 18.4679H10.8819H10.8816ZM3.71656 11.5366H1.16003C1.10973 11.5371 1.06163 11.5573 1.02605 11.5929C0.990475 11.6285 0.970252 11.6765 0.969723 11.7268V19.5614C0.970216 19.6117 0.990427 19.6598 1.02601 19.6954C1.0616 19.731 1.10972 19.7512 1.16003 19.7517H3.71656C3.76687 19.7512 3.81499 19.731 3.85058 19.6954C3.88616 19.6598 3.90638 19.6117 3.90687 19.5614V11.7268C3.90634 11.6765 3.88612 11.6285 3.85054 11.5929C3.81496 11.5573 3.76686 11.5371 3.71656 11.5366ZM2.80497 18.819C2.77421 18.876 2.73233 18.9262 2.6818 18.9667C2.63127 19.0072 2.57312 19.0372 2.5108 19.0548C2.44848 19.0724 2.38326 19.0774 2.31899 19.0693C2.25473 19.0612 2.19274 19.0404 2.1367 19.0079C2.08065 18.9755 2.03169 18.9321 1.99271 18.8804C1.95374 18.8286 1.92555 18.7696 1.90981 18.7068C1.89407 18.644 1.8911 18.5786 1.90108 18.5146C1.91106 18.4507 1.93379 18.3893 1.96791 18.3343L2.00178 18.2757C2.06777 18.1681 2.17318 18.0906 2.29554 18.0596C2.4179 18.0287 2.54751 18.0467 2.65673 18.11C2.76595 18.1732 2.84613 18.2767 2.88016 18.3982C2.91419 18.5197 2.89939 18.6498 2.83891 18.7605L2.80504 18.8191L2.80497 18.819ZM9.483 6.5866C9.51814 6.62283 9.55113 6.66109 9.5818 6.70118C9.93775 7.16398 10.1252 7.97095 9.87842 8.85085L9.22804 11.1701C8.89188 11.3229 8.62259 11.5925 8.47015 11.9289C8.35578 12.1796 8.31031 12.4564 8.33843 12.7305C8.36654 13.0047 8.46722 13.2665 8.6301 13.4888C8.41598 13.6441 8.24594 13.8524 8.13672 14.0933C8.04372 14.2951 7.99556 14.5146 7.99556 14.7367C7.99556 14.9589 8.04372 15.1784 8.13672 15.3802C8.26618 15.666 8.4808 15.9048 8.7512 16.064C8.61039 16.2819 8.52688 16.5319 8.50841 16.7907C8.48995 17.0495 8.53714 17.3088 8.6456 17.5445C8.79489 17.874 9.05652 18.1396 9.38371 18.294C9.35977 18.3357 9.33785 18.3784 9.31793 18.4221C9.2283 18.6164 9.18028 18.8273 9.17695 19.0413C9.17362 19.2553 9.21505 19.4676 9.29858 19.6646H6.24706V19.6627C5.93933 19.6564 5.63746 19.5774 5.36605 19.4322C5.17483 19.3374 5.0075 19.2007 4.87652 19.0321V12.5018C4.94468 12.4715 5.04201 12.4303 5.13296 12.3917C5.27347 12.3379 5.40885 12.2715 5.53743 12.1934C7.01322 11.2022 7.49454 9.78502 8.02579 8.2208C8.145 7.86963 8.26687 7.51088 8.38671 7.19147C8.57898 6.67923 8.79959 6.43254 9.00722 6.38177C9.09105 6.36429 9.17834 6.37646 9.25419 6.4162C9.32646 6.45196 9.3927 6.49878 9.45053 6.55497C9.46073 6.56596 9.47145 6.5765 9.48272 6.5866H9.483ZM14.9253 15.9852C15.1399 15.8298 15.3103 15.6213 15.4196 15.38C15.5126 15.1783 15.5608 14.9588 15.5608 14.7366C15.5608 14.5145 15.5126 14.295 15.4196 14.0932C15.3104 13.8523 15.1404 13.644 14.9263 13.4887C15.09 13.2668 15.1912 13.005 15.2193 12.7307C15.2475 12.4563 15.2015 12.1795 15.0862 11.9289C14.8682 11.4516 14.4072 11.0704 13.7084 11.0129C13.9668 9.60402 14.7006 8.32644 15.7875 7.39347C16.8743 6.4605 18.2482 5.92861 19.68 5.88661C21.1117 5.84461 22.5145 6.29505 23.6541 7.1627C24.7937 8.03036 25.6012 9.26272 25.9417 10.654C26.2822 12.0453 26.1351 13.5113 25.525 14.8071C24.9149 16.103 23.8786 17.1504 22.5893 17.7743C21.3 18.3983 19.8357 18.561 18.4409 18.2354C17.046 17.9098 15.8051 17.1155 14.9253 15.9852ZM12.8123 21.637L10.5374 27.2238L13.4195 25.5878C13.4829 25.5518 13.5537 25.5307 13.6266 25.5259C13.6994 25.5212 13.7723 25.5331 13.8399 25.5606C13.9075 25.5881 13.968 25.6305 14.0168 25.6847C14.0657 25.7389 14.1016 25.8035 14.1219 25.8736L15.042 29.0584L17.4143 23.2321C17.2414 23.1303 17.057 23.0492 16.8651 22.9907C16.5279 22.8979 16.1007 22.9135 15.6751 22.9292C14.9949 22.9541 14.3184 22.9788 13.7237 22.6305C13.3139 22.3904 13.0412 22.032 12.8117 21.637L12.8123 21.637ZM27.4899 20.5269L30.5941 28.1508H30.5933C30.631 28.2438 30.6388 28.3463 30.6157 28.444C30.5925 28.5416 30.5394 28.6297 30.464 28.6958C30.3885 28.762 30.2942 28.803 30.1944 28.8132C30.0945 28.8234 29.9939 28.8023 29.9066 28.7527L26.344 26.7306L25.2166 30.6337C25.195 30.7351 25.1414 30.8268 25.0638 30.8955C24.9861 30.9641 24.8885 31.006 24.7852 31.0151C24.682 31.0241 24.5786 30.9997 24.4902 30.9456C24.4018 30.8915 24.3331 30.8104 24.2942 30.7144L21.4563 23.7446C20.9639 24.0405 20.4509 24.2916 19.8543 24.2916C19.2577 24.2916 18.7446 24.0406 18.2522 23.7446L15.4142 30.7148C15.3753 30.8109 15.3066 30.8919 15.2183 30.946C15.1299 31.0002 15.0264 31.0245 14.9232 31.0155C14.8199 31.0065 14.7223 30.9645 14.6447 30.8959C14.567 30.8273 14.5134 30.7355 14.4918 30.6342L13.3645 26.7317L9.80185 28.7532C9.71455 28.8028 9.61398 28.8239 9.51411 28.8137C9.41424 28.8035 9.32002 28.7625 9.24453 28.6963C9.16904 28.6302 9.11602 28.5421 9.09283 28.4445C9.06965 28.3468 9.07744 28.2443 9.11514 28.1513H9.11437L12.1758 20.6322H10.8819C10.8507 20.6322 10.82 20.6315 10.7897 20.6303H6.24706V20.6322C5.78221 20.6241 5.32587 20.5062 4.9153 20.288C4.84363 20.2502 4.77384 20.2094 4.70591 20.1657C4.6021 20.335 4.45669 20.4749 4.28351 20.5722C4.11034 20.6694 3.91517 20.7207 3.71656 20.7212H1.16003C0.852582 20.7207 0.557877 20.5983 0.340455 20.3809C0.123032 20.1635 0.000611696 19.8689 0 19.5614V11.7268C0.000556216 11.4194 0.122957 11.1246 0.340389 10.9072C0.557822 10.6898 0.852558 10.5675 1.16003 10.567H3.71656C3.97834 10.5675 4.23229 10.6564 4.43731 10.8192C4.64234 10.9819 4.78646 11.2091 4.84637 11.464C4.89909 11.443 4.95028 11.4184 4.99959 11.3903C6.20127 10.5833 6.63281 9.31267 7.10908 7.91016C7.22169 7.57862 7.33677 7.23979 7.48143 6.85432C7.80119 6.00241 8.27591 5.56568 8.77995 5.44241C9.07811 5.3705 9.39204 5.40547 9.66707 5.54121C9.68587 5.55012 9.70459 5.55944 9.72317 5.56926C10.0619 5.24361 10.4919 5.02483 10.9211 4.80647C11.2927 4.61756 11.6631 4.42893 11.9003 4.19171C12.1376 3.95448 12.3263 3.58375 12.5152 3.21231C12.8205 2.61234 13.1266 2.01055 13.7242 1.66057C14.319 1.31213 14.9955 1.33695 15.6756 1.36185C16.1012 1.37741 16.5285 1.39312 16.8657 1.30035C17.1911 1.2108 17.5468 0.987183 17.9062 0.761178C18.5072 0.383359 19.117 0 19.8544 0C20.5918 0 21.2014 0.383359 21.8023 0.761108C22.1618 0.987113 22.5176 1.21073 22.843 1.30028C23.1802 1.39298 23.6073 1.37741 24.033 1.36178C24.7132 1.33681 25.3897 1.31206 25.9844 1.66043C26.5821 2.01055 26.8882 2.61227 27.1935 3.21231C27.3824 3.58396 27.5711 3.95434 27.8083 4.19157C28.0455 4.42879 28.4163 4.61749 28.7876 4.80647C29.3877 5.11171 29.9894 5.41794 30.3394 6.01545C30.6878 6.61016 30.663 7.2867 30.6382 7.96681C30.6226 8.39239 30.607 8.81971 30.6997 9.15693C30.7892 9.48237 31.0128 9.8381 31.2388 10.1975C31.6166 10.7985 32 11.4083 32 12.1456C32 12.883 31.6166 13.4927 31.2389 14.0936C31.0129 14.4531 30.7892 14.8089 30.6997 15.1343C30.607 15.4715 30.6226 15.8986 30.6382 16.3243C30.6632 17.0045 30.6879 17.6809 30.3396 18.2757C29.9895 18.8734 29.3877 19.1795 28.7877 19.4848C28.416 19.6737 28.0457 19.8623 27.8084 20.0995C27.6855 20.2288 27.5785 20.3724 27.4899 20.5273L27.4899 20.5269ZM22.2938 23.2322L24.6661 29.0585L25.5857 25.8738C25.606 25.8038 25.642 25.7392 25.6908 25.685C25.7397 25.6308 25.8002 25.5883 25.8678 25.5608C25.9354 25.5333 26.0083 25.5215 26.0811 25.5262C26.154 25.531 26.2248 25.5521 26.2883 25.5881L29.1703 27.224L26.8957 21.6377C26.6663 22.0327 26.3936 22.391 25.9841 22.631C25.3894 22.9793 24.7128 22.9545 24.0327 22.9297C23.6071 22.914 23.1798 22.8985 22.8425 22.9912C22.6505 23.0498 22.4661 23.1309 22.2932 23.2327L22.2938 23.2322ZM21.4073 22.6362L21.2875 22.7114C20.8062 23.014 20.3178 23.321 19.8545 23.321C19.3912 23.321 18.903 23.014 18.4217 22.7115C18.3817 22.6863 18.3418 22.6613 18.3019 22.6363C18.2855 22.6246 18.2684 22.6139 18.2507 22.6044C17.889 22.38 17.5246 22.17 17.1196 22.0586C16.6393 21.9265 16.1395 21.9448 15.6418 21.963C15.1015 21.9828 14.564 22.0025 14.2131 21.7969C13.8642 21.5925 13.6212 21.115 13.379 20.639C13.3603 20.6025 13.3416 20.5661 13.3229 20.5297C13.5239 20.4634 13.709 20.3562 13.8665 20.2149C14.024 20.0736 14.1506 19.9013 14.2384 19.7087C14.3313 19.5069 14.3795 19.2874 14.3795 19.0653C14.3795 18.8432 14.3313 18.6237 14.2384 18.4219C14.2185 18.3783 14.1966 18.3356 14.1726 18.2938C14.4998 18.1395 14.7614 17.8738 14.9107 17.5443C14.9263 17.5101 14.9406 17.4756 14.9537 17.4406C16.1337 18.5321 17.6445 19.198 19.2463 19.3328C20.848 19.4675 22.4489 19.0633 23.7947 18.1843C25.1404 17.3054 26.154 16.002 26.6745 14.4812C27.1949 12.9604 27.1924 11.3093 26.6673 9.79006C26.1423 8.27084 25.1247 6.97057 23.7762 6.09569C22.4278 5.22082 20.8257 4.82149 19.2244 4.96111C17.6231 5.10073 16.1143 5.77129 14.9376 6.86633C13.7609 7.96137 12.9837 9.41812 12.7295 11.0053H10.2795L10.8103 9.11198C11.1265 7.98463 10.8945 6.914 10.4346 6.23192C10.6759 6.01804 11.0185 5.84379 11.3602 5.66982C11.8011 5.44542 12.2411 5.22159 12.5858 4.87701C12.9304 4.53243 13.1543 4.09234 13.3786 3.65141C13.6209 3.17535 13.8638 2.69775 14.2126 2.49355C14.5632 2.28802 15.1011 2.30766 15.6414 2.3275C16.1392 2.34566 16.6389 2.36404 17.1193 2.23193C17.588 2.10297 18.0024 1.8424 18.4212 1.57909C18.9025 1.27651 19.3909 0.969372 19.8542 0.969372C20.3175 0.969372 20.8057 1.27644 21.287 1.57895C21.7058 1.84226 22.1203 2.1029 22.589 2.23179C23.0694 2.3639 23.5692 2.34559 24.0669 2.32736C24.6069 2.30759 25.1447 2.28788 25.4956 2.49348C25.8445 2.69789 26.0874 3.17528 26.33 3.65141C26.5544 4.09227 26.7782 4.53229 27.1229 4.87694C27.4675 5.22159 27.9073 5.44577 28.3485 5.67017C28.8246 5.91244 29.3022 6.15534 29.5064 6.5042C29.712 6.85517 29.6923 7.39258 29.6725 7.93288C29.6543 8.43075 29.636 8.93051 29.7681 9.41084C29.8971 9.87954 30.1576 10.294 30.421 10.7129C30.7235 11.1941 31.0306 11.6825 31.0306 12.1458C31.0306 12.609 30.7236 13.0973 30.421 13.5786C30.1577 13.9975 29.8971 14.412 29.7681 14.8807C29.636 15.361 29.6544 15.8608 29.6726 16.3585C29.6924 16.8988 29.712 17.4363 29.5065 17.7872C29.3021 18.1362 28.8247 18.3791 28.3486 18.6213C27.9077 18.8457 27.4677 19.0695 27.1231 19.4141C26.7784 19.7587 26.5546 20.1988 26.3302 20.6397C26.088 21.1157 25.845 21.5933 25.4962 21.7975C25.1456 22.0031 24.6078 21.9834 24.0675 21.9637C23.5697 21.9454 23.0699 21.9272 22.5895 22.0593C22.1845 22.1707 21.82 22.3805 21.4581 22.6054C21.4406 22.6148 21.4237 22.6254 21.4075 22.6369L21.4073 22.6362ZM16.7724 13.0681L18.6537 14.6869C18.7512 14.7702 18.8777 14.8114 19.0055 14.8015C19.1334 14.7916 19.2521 14.7313 19.3355 14.6339C19.3432 14.6246 19.3506 14.6152 19.3576 14.6059L22.9912 10.2821C23.0328 10.2337 23.0643 10.1776 23.0841 10.1169C23.1038 10.0562 23.1114 9.99223 23.1062 9.92863C23.1011 9.86502 23.0833 9.80308 23.0541 9.74636C23.0249 9.68965 22.9847 9.63931 22.9358 9.59823C22.887 9.55716 22.8305 9.52618 22.7696 9.50709C22.7087 9.48799 22.6447 9.48116 22.5811 9.48699C22.5176 9.49282 22.4558 9.51119 22.3994 9.54104C22.343 9.57089 22.2931 9.61163 22.2526 9.6609L18.9136 13.6346L17.4015 12.3334C17.3536 12.2895 17.2974 12.2557 17.2362 12.234C17.175 12.2123 17.1101 12.2032 17.0453 12.2071C16.9805 12.211 16.9171 12.2279 16.859 12.2569C16.8008 12.2858 16.7491 12.3261 16.7069 12.3755C16.6647 12.4248 16.6328 12.4821 16.6132 12.544C16.5936 12.6059 16.5867 12.6712 16.5928 12.7358C16.599 12.8004 16.6181 12.8632 16.649 12.9203C16.6799 12.9774 16.722 13.0277 16.7727 13.0682L16.7724 13.0681Z" fill="#1F4E9E"/>
</svg>
