<svg width="31" height="29" viewBox="0 0 31 29" fill="none" xmlns="http://www.w3.org/2000/svg">
<path fill-rule="evenodd" clip-rule="evenodd" d="M29.5936 27.552H27.5006V11.0788C27.5006 10.9542 27.4511 10.8347 27.363 10.7466C27.2749 10.6585 27.1554 10.609 27.0308 10.609H22.6655C22.541 10.609 22.4215 10.6585 22.3334 10.7466C22.2453 10.8347 22.1958 10.9542 22.1958 11.0788V27.552H20.9563V14.728C20.9563 14.6034 20.9068 14.4839 20.8187 14.3958C20.7306 14.3077 20.6111 14.2582 20.4865 14.2582H16.1211C15.9965 14.2582 15.8771 14.3077 15.789 14.3958C15.7009 14.4839 15.6514 14.6034 15.6514 14.728V27.5519H14.4119V18.3765C14.4119 18.252 14.3624 18.1325 14.2743 18.0444C14.1862 17.9563 14.0667 17.9068 13.9421 17.9068H9.57682C9.45224 17.9068 9.33276 17.9563 9.24467 18.0444C9.15657 18.1325 9.10708 18.252 9.10708 18.3765V27.552H7.86756V22.0255C7.86756 21.9009 7.81806 21.7814 7.72997 21.6933C7.64188 21.6052 7.5224 21.5557 7.39782 21.5557H3.03258C2.908 21.5557 2.78852 21.6052 2.70043 21.6933C2.61233 21.7814 2.56284 21.9009 2.56284 22.0255V27.552H0.46974C0.345157 27.552 0.225677 27.6015 0.137584 27.6896C0.0494903 27.7777 0 27.8971 0 28.0217C0 28.1463 0.0494903 28.2658 0.137584 28.3539C0.225677 28.442 0.345157 28.4915 0.46974 28.4915H29.5936C29.7182 28.4915 29.8377 28.442 29.9258 28.3539C30.0139 28.2658 30.0634 28.1463 30.0634 28.0217C30.0634 27.8971 30.0139 27.7777 29.9258 27.6896C29.8377 27.6015 29.7182 27.552 29.5936 27.552ZM4.49506 17.0895C4.37682 17.0891 4.26306 17.0442 4.17648 16.9637C4.0899 16.8832 4.03687 16.773 4.02797 16.6551C4.01908 16.5372 4.05497 16.4202 4.12849 16.3276C4.20201 16.235 4.30775 16.1736 4.4246 16.1555C10.7412 15.1933 16.5519 10.9154 20.4213 4.39503L18.1783 2.69581C18.1084 2.64285 18.0547 2.57136 18.0233 2.48945C17.9919 2.40753 17.984 2.31847 18.0007 2.23234C18.0173 2.1462 18.0577 2.06645 18.1173 2.0021C18.1769 1.93775 18.2534 1.89138 18.338 1.86824L25.1223 0.0165887C25.1917 -0.00235958 25.2645 -0.00511656 25.3352 0.0085303C25.4058 0.0221772 25.4724 0.0518632 25.5297 0.0952993C25.587 0.138735 25.6336 0.194761 25.6659 0.259056C25.6982 0.32335 25.7152 0.394196 25.7158 0.46613L25.7702 7.49831C25.7709 7.58604 25.747 7.67221 25.7012 7.74705C25.6554 7.82189 25.5896 7.88242 25.5112 7.92177C25.4328 7.96113 25.3449 7.97773 25.2576 7.96971C25.1702 7.96169 25.0868 7.92937 25.0169 7.87639L23.3588 6.62031C21.1291 9.50812 18.3727 11.9476 15.2354 13.8098C11.7605 15.8616 8.05093 16.9959 4.50768 17.0895H4.49506Z" fill="#1F4E9E"/>
</svg>
