<svg width="25" height="33" viewBox="0 0 25 33" fill="none" xmlns="http://www.w3.org/2000/svg">
<path d="M24.8509 10.6544C24.6309 10.2413 24.2035 9.98466 23.7354 9.98466H20.1454C19.8456 8.29897 18.3704 7.01456 16.5999 7.01456C14.8294 7.01456 13.3542 8.29897 13.0545 9.98466H9.41735C9.70261 9.54812 9.86919 9.02728 9.86919 8.46801C9.86919 6.93481 8.62186 5.6875 7.08865 5.6875C5.55543 5.6875 4.30811 6.93481 4.30811 8.46801C4.30811 9.02728 4.47469 9.54812 4.75995 9.98466H1.7945C1.32642 9.98466 0.899041 10.2413 0.678999 10.6544C0.459021 11.0675 0.484551 11.5654 0.745732 11.9538L9.22612 24.5645V31.7232C9.22612 31.9363 9.33349 32.1351 9.51176 32.2518C9.61622 32.3202 9.73686 32.3552 9.85813 32.3552C9.94369 32.3552 10.0296 32.3378 10.1104 32.3026L15.9243 29.7709C16.1548 29.6704 16.3039 29.4429 16.3039 29.1915V24.5644L24.7842 11.9538C25.0454 11.5654 25.071 11.0675 24.8509 10.6544ZM16.5999 8.27843C17.6702 8.27843 18.5742 9.00156 18.8506 9.98466H14.3493C14.6257 9.00156 15.5297 8.27843 16.5999 8.27843ZM7.08871 6.95137C7.92496 6.95137 8.60537 7.63177 8.60537 8.46801C8.60537 9.30425 7.92496 9.98466 7.08871 9.98466C6.25246 9.98466 5.57205 9.30425 5.57205 8.46801C5.57205 7.63177 6.25246 6.95137 7.08871 6.95137ZM15.1475 24.019C15.0774 24.1233 15.0399 24.246 15.0399 24.3717V28.7775L10.4899 30.7588V25.0036H12.773C13.122 25.0036 13.4049 24.7207 13.4049 24.3717C13.4049 24.0227 13.122 23.7397 12.773 23.7397H10.1946L3.83453 14.2818H16.5999C16.9489 14.2818 17.2319 13.9989 17.2319 13.6499C17.2319 13.3009 16.9489 13.0179 16.5999 13.0179H2.98463L1.79475 11.2485H23.7354L15.1475 24.019Z" fill="#1F4E9E"/>
<path d="M14.9221 0C13.3889 0 12.1416 1.24731 12.1416 2.78051C12.1416 4.31371 13.389 5.56103 14.9221 5.56103C16.4554 5.56103 17.7027 4.31371 17.7027 2.78051C17.7027 1.24731 16.4554 0 14.9221 0ZM14.9221 4.29716C14.0859 4.29716 13.4055 3.61675 13.4055 2.78051C13.4055 1.94427 14.0859 1.26387 14.9221 1.26387C15.7584 1.26387 16.4388 1.94427 16.4388 2.78051C16.4388 3.61675 15.7584 4.29716 14.9221 4.29716Z" fill="#1F4E9E"/>
<path d="M21.6749 3.05469C21.3259 3.05469 21.043 3.3376 21.043 3.68662V7.27816C21.043 7.62724 21.3259 7.91016 21.6749 7.91016C22.0239 7.91016 22.3069 7.62724 22.3069 7.27822V3.68662C22.3069 3.3376 22.0239 3.05469 21.6749 3.05469Z" fill="#1F4E9E"/>
<path d="M22.1217 1.16465C22.0042 1.04711 21.8411 0.979492 21.6749 0.979492C21.5087 0.979492 21.3457 1.04711 21.2281 1.16465C21.1106 1.28219 21.043 1.44523 21.043 1.61143C21.043 1.77763 21.1106 1.94067 21.2281 2.05821C21.3457 2.17575 21.5087 2.24336 21.6749 2.24336C21.8411 2.24336 22.0042 2.17575 22.1217 2.05821C22.2392 1.94067 22.3069 1.77763 22.3069 1.61143C22.3069 1.44523 22.2392 1.28219 22.1217 1.16465Z" fill="#1F4E9E"/>
<path d="M9.23741 0.806396C8.88839 0.806396 8.60547 1.08931 8.60547 1.43833V4.02926C8.60547 4.37828 8.88839 4.6612 9.23741 4.6612C9.58643 4.6612 9.86935 4.37828 9.86935 4.02926V1.43833C9.86935 1.08931 9.58643 0.806396 9.23741 0.806396Z" fill="#1F4E9E"/>
<path d="M0.631941 0C0.28292 0 0 0.282917 0 0.631935V4.75013C0 5.09915 0.28292 5.38206 0.631941 5.38206C0.980962 5.38206 1.26388 5.09915 1.26388 4.75013V0.631935C1.26388 0.282917 0.980962 0 0.631941 0Z" fill="#1F4E9E"/>
<path d="M1.07872 6.67319C0.961182 6.55502 0.798141 6.48804 0.631941 6.48804C0.46574 6.48804 0.3027 6.55502 0.185159 6.67319C0.0676177 6.79073 0 6.95314 0 7.11997C0 7.28617 0.0676177 7.44921 0.185159 7.56675C0.3027 7.68429 0.46574 7.75191 0.631941 7.75191C0.798141 7.75191 0.961182 7.68429 1.07872 7.56675C1.19626 7.44921 1.26388 7.28617 1.26388 7.11997C1.26388 6.95314 1.19626 6.79073 1.07872 6.67319Z" fill="#1F4E9E"/>
<path d="M19.857 13.2032C19.7395 13.0857 19.5765 13.0181 19.4103 13.0181C19.2434 13.0181 19.0804 13.0857 18.9635 13.2032C18.8453 13.3208 18.7783 13.4838 18.7783 13.65C18.7783 13.8162 18.8453 13.9792 18.9635 14.0968C19.081 14.2143 19.2434 14.2819 19.4103 14.2819C19.5765 14.2819 19.7389 14.2143 19.857 14.0968C19.9746 13.9792 20.0422 13.8162 20.0422 13.65C20.0422 13.4838 19.9746 13.3208 19.857 13.2032Z" fill="#1F4E9E"/>
</svg>
