<svg width="30" height="31" viewBox="0 0 30 31" fill="none" xmlns="http://www.w3.org/2000/svg">
<path d="M23.4257 15.0999L19.8978 16.769C19.9427 17.068 19.9646 17.3699 19.9632 17.6722C19.9632 18.6868 19.7079 18.222 20.5785 19.0926C22.7908 21.318 19.8847 24.8524 17.3058 23.1245C16.4732 23.7622 15.5057 24.2009 14.4774 24.407C13.4491 24.6131 12.3873 24.5811 11.3732 24.3135C10.3592 24.0459 9.41986 23.5498 8.62715 22.8631C7.83444 22.1765 7.2094 21.3175 6.79989 20.352C6.39038 19.3865 6.20726 18.3401 6.26457 17.2929C6.32188 16.2457 6.61809 15.2255 7.13051 14.3105C7.64293 13.3954 8.35798 12.6098 9.22089 12.0137C10.0838 11.4177 11.0717 11.027 12.1089 10.8717L14.9168 4.94163C14.7204 4.47692 14.5044 4.58164 11.8143 4.58164C10.5511 4.58164 11.8667 7.23249 9.24201 8.32555C6.49298 9.42516 5.60937 6.61068 4.74539 7.50739L2.92579 9.32698C2.02254 10.2041 4.85011 11.1269 3.76359 13.7778C3.57201 14.2604 3.25941 14.6855 2.85589 15.0122C2.45236 15.3389 1.97151 15.5562 1.45965 15.6432L0.497487 15.8068C0.357617 15.8288 0.230357 15.9005 0.139005 16.0087C0.0476526 16.1169 -0.00167832 16.2543 4.36014e-05 16.3959V18.9813C4.36014e-05 20.2315 2.65744 18.942 3.74396 21.5471C3.94821 22.0264 4.02598 22.5502 3.96982 23.0682C3.91367 23.5862 3.72546 24.0811 3.42324 24.5055C2.37599 25.9651 2.34981 25.4742 4.7323 27.8698C5.58973 28.7534 6.57807 25.952 9.19619 27.0386C9.67687 27.2292 10.1001 27.541 10.4246 27.9435C10.7492 28.3461 10.9641 28.8258 11.0485 29.336L11.2121 30.2981C11.2342 30.438 11.3058 30.5653 11.414 30.6566C11.5222 30.748 11.6596 30.7973 11.8012 30.7956H14.3997C15.6629 30.7956 14.3473 28.1775 16.972 27.0517C19.7407 25.9455 20.5916 28.7731 21.4686 27.8698L23.2882 26.0502C24.1718 25.1928 21.3705 24.2045 22.457 21.5863C22.6493 21.1067 22.9615 20.6845 23.3638 20.3601C23.766 20.0358 24.2449 19.8202 24.7544 19.734L25.7165 19.5704C25.8504 19.5415 25.97 19.4669 26.0548 19.3594C26.1396 19.2519 26.1843 19.1182 26.1812 18.9813V16.4286C26.1812 15.401 24.7544 16.0817 23.4257 15.0999Z" fill="#1F4E9E"/>
<path d="M10.3955 14.465C10.0278 14.8332 9.82129 15.3323 9.82129 15.8526C9.82129 16.373 10.0278 16.8721 10.3955 17.2402L12.2479 19.0926C12.616 19.4603 13.1151 19.6668 13.6355 19.6668C14.1558 19.6668 14.6549 19.4603 15.0231 19.0926L17.3401 16.7821L12.7126 12.1545L10.3955 14.465Z" fill="#1F4E9E"/>
<path d="M19.6372 20.0222L17.8045 18.1699L15.9521 20.0222L17.7979 21.868C18.0495 22.074 18.3687 22.179 18.6934 22.1626C19.0181 22.1462 19.3251 22.0095 19.5546 21.7792C19.7841 21.5489 19.9197 21.2414 19.9349 20.9167C19.9502 20.5919 19.844 20.2731 19.6372 20.0222Z" fill="#1F4E9E"/>
<path d="M13.4707 11.0616L18.4255 16.0164L26.594 12.1481L17.339 2.89307L13.4707 11.0616Z" fill="#1F4E9E"/>
<path d="M21.2861 4.994L24.4933 8.20119C24.6125 7.75717 24.6126 7.28959 24.4937 6.8455C24.3748 6.40141 24.141 5.99645 23.816 5.67137C23.4909 5.34629 23.0859 5.11254 22.6418 4.99363C22.1977 4.87472 21.7302 4.87485 21.2861 4.994Z" fill="#1F4E9E"/>
<path d="M25.6645 4.47702C26.0245 4.47702 26.0376 4.37229 27.5168 2.89305C27.6401 2.77067 27.7096 2.60434 27.7103 2.43065C27.7109 2.25696 27.6425 2.09014 27.5201 1.96689C27.3977 1.84364 27.2314 1.77406 27.0577 1.77344C26.884 1.77283 26.7172 1.84124 26.5939 1.96362L25.2063 3.35777C25.1144 3.44893 25.0516 3.56529 25.0258 3.69215C25 3.819 25.0124 3.95065 25.0615 4.07046C25.1105 4.19026 25.194 4.29282 25.3013 4.36519C25.4087 4.43756 25.535 4.47647 25.6645 4.47702Z" fill="#1F4E9E"/>
<path d="M23.5639 2.61812V0.65453C23.5639 0.480938 23.495 0.314456 23.3722 0.191707C23.2495 0.0689592 23.083 0 22.9094 0C22.7358 0 22.5693 0.0689592 22.4466 0.191707C22.3238 0.314456 22.2549 0.480938 22.2549 0.65453V2.61812C22.2549 2.79171 22.3238 2.95819 22.4466 3.08094C22.5693 3.20369 22.7358 3.27265 22.9094 3.27265C23.083 3.27265 23.2495 3.20369 23.3722 3.08094C23.495 2.95819 23.5639 2.79171 23.5639 2.61812Z" fill="#1F4E9E"/>
<path d="M28.7998 5.89087H26.8362C26.6626 5.89087 26.4961 5.95983 26.3733 6.08258C26.2506 6.20532 26.1816 6.37181 26.1816 6.5454C26.1816 6.71899 26.2506 6.88547 26.3733 7.00822C26.4961 7.13097 26.6626 7.19993 26.8362 7.19993H28.7998C28.9734 7.19993 29.1398 7.13097 29.2626 7.00822C29.3853 6.88547 29.4543 6.71899 29.4543 6.5454C29.4543 6.37181 29.3853 6.20532 29.2626 6.08258C29.1398 5.95983 28.9734 5.89087 28.7998 5.89087Z" fill="#1F4E9E"/>
</svg>
