<svg width="30" height="30" viewBox="0 0 30 30" fill="none" xmlns="http://www.w3.org/2000/svg">
<path d="M22.5391 20.6113H24.5425V24.1173H22.5391V20.6113Z" fill="#1F4E9E"/>
<path d="M22.538 24.1174H24.5414C24.6742 24.1174 24.8016 24.1702 24.8955 24.2641C24.9894 24.3581 25.0422 24.4854 25.0422 24.6183V28.1242C25.0422 28.3899 24.9367 28.6447 24.7488 28.8325C24.561 29.0204 24.3062 29.1259 24.0405 29.1259H23.0388C22.7731 29.1259 22.5184 29.0204 22.3305 28.8325C22.1426 28.6447 22.0371 28.3899 22.0371 28.1242V24.6183C22.0371 24.4854 22.0899 24.3581 22.1838 24.2641C22.2777 24.1702 22.4051 24.1174 22.538 24.1174Z" fill="#1F4E9E"/>
<path d="M23.5412 21.1124C26.4456 21.1124 28.8001 18.7578 28.8001 15.8534C28.8001 12.949 26.4456 10.5945 23.5412 10.5945C20.6367 10.5945 18.2822 12.949 18.2822 15.8534C18.2822 18.7578 20.6367 21.1124 23.5412 21.1124Z" fill="#1F4E9E"/>
<path d="M23.5407 19.1087C25.3387 19.1087 26.7962 17.6512 26.7962 15.8532C26.7962 14.0552 25.3387 12.5977 23.5407 12.5977C21.7427 12.5977 20.2852 14.0552 20.2852 15.8532C20.2852 17.6512 21.7427 19.1087 23.5407 19.1087Z" fill="#EFF3FF"/>
<path d="M28.9332 0.717215L25.3546 0.00951262C25.2602 -0.00915116 25.1624 -0.000230167 25.073 0.0352086C24.9835 0.0706473 24.9061 0.131104 24.8501 0.209347C24.7941 0.287591 24.7619 0.38031 24.7572 0.476415C24.7525 0.57252 24.7756 0.667944 24.8237 0.751273L25.4472 1.8296L17.7166 5.10417L15.8685 1.40789C15.6955 1.06097 15.3952 0.794313 15.0302 0.663642C14.6653 0.532971 14.264 0.548397 13.9101 0.706697L0.611539 6.32925C0.430232 6.40592 0.275536 6.53432 0.166774 6.6984C0.0580118 6.86248 5.20982e-06 7.05496 0 7.25182V8.56154C8.56488e-05 8.72782 0.0415645 8.89147 0.120695 9.03771C0.199825 9.18396 0.314118 9.30821 0.453263 9.39925C0.592408 9.49029 0.752028 9.54526 0.917725 9.5592C1.08342 9.57314 1.24998 9.54561 1.40238 9.4791L13.8235 4.04036L15.6836 7.76068C15.8592 8.11141 16.1649 8.37962 16.5354 8.50801C16.906 8.63641 17.3121 8.61482 17.667 8.44785L26.6979 4.00029L27.2242 4.91184C27.2724 4.99509 27.3434 5.06272 27.429 5.10667C27.5145 5.15061 27.6109 5.16901 27.7066 5.15966C27.8023 5.15031 27.8932 5.11362 27.9686 5.05395C28.0441 4.99429 28.1007 4.91418 28.1318 4.82319L29.3098 1.36982C29.3328 1.30228 29.3411 1.23062 29.3341 1.15961C29.3271 1.08861 29.3051 1.01992 29.2694 0.958128C29.2338 0.896338 29.1853 0.84288 29.1273 0.801332C29.0693 0.759784 29.0031 0.731105 28.9332 0.717215Z" fill="#1F4E9E"/>
<path d="M3.16938 12.5979H4.44655C4.63252 12.5979 4.81087 12.6718 4.94237 12.8033C5.07387 12.9348 5.14774 13.1131 5.14774 13.2991C5.14774 13.4306 5.17365 13.5609 5.22399 13.6824C5.27433 13.8039 5.34812 13.9144 5.44113 14.0074C5.53415 14.1004 5.64458 14.1742 5.76611 14.2245C5.88764 14.2749 6.0179 14.3008 6.14944 14.3008C6.28099 14.3008 6.41125 14.2749 6.53278 14.2245C6.65431 14.1742 6.76474 14.1004 6.85775 14.0074C6.95077 13.9144 7.02455 13.8039 7.07489 13.6824C7.12524 13.5609 7.15114 13.4306 7.15114 13.2991C7.15035 12.582 6.86515 11.8946 6.35811 11.3875C5.85107 10.8805 5.16361 10.5953 4.44655 10.5945H3.16938C2.33917 10.5945 1.54296 10.9243 0.955911 11.5113C0.368863 12.0984 0.0390625 12.8946 0.0390625 13.7248C0.0390625 14.555 0.368863 15.3512 0.955911 15.9383C1.54296 16.5253 2.33917 16.8551 3.16938 16.8551H4.02083C4.3197 16.8551 4.60634 16.9738 4.81768 17.1852C5.02901 17.3965 5.14774 17.6832 5.14774 17.982C5.14774 18.2809 5.02901 18.5675 4.81768 18.7789C4.60634 18.9902 4.3197 19.1089 4.02083 19.1089H2.74366C2.55769 19.1089 2.37934 19.0351 2.24784 18.9036C2.11634 18.7721 2.04247 18.5937 2.04247 18.4078C2.04247 18.1421 1.93693 17.8873 1.74907 17.6994C1.56122 17.5116 1.30643 17.4061 1.04076 17.4061C0.775096 17.4061 0.52031 17.5116 0.332454 17.6994C0.144599 17.8873 0.0390625 18.1421 0.0390625 18.4078C0.0398579 19.1248 0.325061 19.8123 0.832098 20.3193C1.33914 20.8264 2.0266 21.1116 2.74366 21.1124H4.02083C4.85104 21.1124 5.64725 20.7826 6.2343 20.1955C6.82134 19.6085 7.15114 18.8122 7.15114 17.982C7.15114 17.1518 6.82134 16.3556 6.2343 15.7686C5.64725 15.1815 4.85104 14.8517 4.02083 14.8517H3.16938C2.8705 14.8517 2.58387 14.733 2.37253 14.5216C2.16119 14.3103 2.04247 14.0237 2.04247 13.7248C2.04247 13.4259 2.16119 13.1393 2.37253 12.928C2.58387 12.7166 2.8705 12.5979 3.16938 12.5979Z" fill="#1F4E9E"/>
<path d="M14.9421 16.8997C15.2116 16.8879 15.4663 16.7725 15.6528 16.5776C15.8394 16.3827 15.9436 16.1232 15.9436 15.8534C15.9436 15.5836 15.8394 15.3242 15.6528 15.1292C15.4663 14.9343 15.2116 14.8189 14.9421 14.8071H11.1036V13.3256C11.1003 13.1599 11.1629 12.9996 11.2777 12.8799C11.3924 12.7602 11.5498 12.6908 11.7156 12.687H14.9421C15.2116 12.6752 15.4663 12.5598 15.6528 12.3649C15.8394 12.17 15.9436 11.9106 15.9436 11.6408C15.9436 11.3709 15.8394 11.1115 15.6528 10.9166C15.4663 10.7217 15.2116 10.6063 14.9421 10.5945H11.7156C11.007 10.6109 10.3337 10.9076 9.84347 11.4196C9.35321 11.9315 9.08591 12.6169 9.10015 13.3256V18.3812C9.08591 19.0899 9.35321 19.7753 9.84347 20.2873C10.3337 20.7992 11.007 21.0959 11.7156 21.1124H14.9421C15.2116 21.1006 15.4663 20.9852 15.6528 20.7902C15.8394 20.5953 15.9436 20.3359 15.9436 20.0661C15.9436 19.7962 15.8394 19.5368 15.6528 19.3419C15.4663 19.147 15.2116 19.0316 14.9421 19.0198H11.7156C11.5498 19.016 11.3924 18.9466 11.2777 18.8269C11.1629 18.7073 11.1003 18.547 11.1036 18.3812V16.8997H14.9421Z" fill="#1F4E9E"/>
</svg>
