<svg width="26" height="33" viewBox="0 0 26 33" fill="none" xmlns="http://www.w3.org/2000/svg">
<path d="M25.4767 23.7919C25.3855 23.7274 21.8124 15.9613 21.6102 15.6159C21.6687 15.4315 21.6788 15.2351 21.6395 15.0457C21.6003 14.8562 21.5129 14.6801 21.3858 14.5342C19.9833 13.2931 16.5645 16.4999 15.2121 17.7274C14.6165 18.3599 10.4903 22.1619 11.7598 23.7574C11.8981 23.8876 12.0675 23.9803 12.2518 24.0266C12.4361 24.0729 12.6292 24.0714 12.8128 24.0221L18.1292 26.8184L15.5515 29.2925C15.4124 29.4223 15.3009 29.579 15.2238 29.753C15.1467 29.927 15.1055 30.1148 15.1028 30.3051C15.1202 30.5881 15.1998 30.8638 15.3361 31.1125C15.4724 31.3611 15.6619 31.5766 15.891 31.7435C16.0228 31.8815 16.1805 31.9922 16.3551 32.0692C16.5297 32.1462 16.7178 32.1881 16.9085 32.1923C17.0993 32.1966 17.289 32.1632 17.4669 32.0941C17.6448 32.025 17.8073 31.9215 17.9451 31.7896L21.3973 28.4812C24.1204 29.4093 26.7726 26.379 25.4767 23.7919ZM12.7034 22.8828C12.6967 22.3726 13.8443 20.652 16.0061 18.556C18.1988 16.471 19.9276 15.4619 20.4767 15.4259C20.1685 16.3103 19.2486 17.6864 17.1396 19.7413C15.0105 21.7334 13.5881 22.6275 12.7034 22.8828Z" fill="#1F4E9E"/>
<path d="M15.9754 11.4376C15.8999 11.4405 15.8257 11.4583 15.7571 11.49C15.6885 11.5216 15.6267 11.5664 15.5755 11.6219C15.5242 11.6774 15.4844 11.7425 15.4583 11.8134C15.4322 11.8843 15.4203 11.9597 15.4233 12.0352L15.5113 14.2659C15.5143 14.3413 15.5321 14.4155 15.5637 14.4841C15.5954 14.5527 15.6402 14.6144 15.6957 14.6656C15.7512 14.7169 15.8163 14.7567 15.8871 14.7829C15.958 14.809 16.0334 14.8209 16.1088 14.8179C16.1843 14.8149 16.2585 14.7971 16.3271 14.7654C16.3957 14.7338 16.4574 14.6889 16.5086 14.6335C16.5599 14.578 16.5997 14.5129 16.6258 14.442C16.652 14.3712 16.6639 14.2958 16.6609 14.2203L16.5729 11.9896C16.571 11.9138 16.5539 11.8391 16.5226 11.77C16.4913 11.7009 16.4465 11.6388 16.3908 11.5874C16.3351 11.5359 16.2696 11.4961 16.1983 11.4704C16.1269 11.4447 16.0511 11.4335 15.9754 11.4376Z" fill="#1F4E9E"/>
<path d="M9.51782 17.6936C9.36716 17.6837 9.21862 17.7333 9.10421 17.8318C8.98981 17.9303 8.91871 18.0699 8.90626 18.2204C8.8938 18.3708 8.94099 18.5202 9.03763 18.6362C9.13428 18.7522 9.27265 18.8255 9.4229 18.8405L11.6476 19.0242C11.798 19.0337 11.9461 18.9838 12.0601 18.8853C12.1741 18.7868 12.2449 18.6475 12.2573 18.4973C12.2698 18.3472 12.2228 18.1981 12.1266 18.0822C12.0303 17.9663 11.8924 17.8928 11.7426 17.8774L9.51782 17.6936Z" fill="#1F4E9E"/>
<path d="M13.1077 16.3613C13.214 16.4681 13.358 16.5289 13.5087 16.5307C13.6594 16.5324 13.8048 16.475 13.9136 16.3707C14.0224 16.2665 14.086 16.1237 14.0907 15.973C14.0954 15.8224 14.0408 15.6759 13.9387 15.5651L12.6034 14.1708C12.4977 14.061 12.3528 13.9976 12.2004 13.9945C12.048 13.9914 11.9007 14.0489 11.7906 14.1543C11.6806 14.2597 11.6169 14.4045 11.6134 14.5569C11.61 14.7092 11.6671 14.8567 11.7723 14.967L13.1077 16.3613Z" fill="#1F4E9E"/>
<path d="M5.47753 19.8506C4.02437 19.8524 2.63134 20.4309 1.60433 21.459C0.577329 22.4871 0.000315653 23.8807 0 25.3339C0.300312 32.6039 10.6631 32.5957 10.9609 25.3338C10.9602 23.8798 10.3823 22.4855 9.3541 21.4573C8.32592 20.4291 6.93159 19.8512 5.47753 19.8506ZM6.57652 24.2695V26.4789C6.59107 26.9371 6.42377 27.3824 6.11115 27.7176C5.79853 28.0529 5.36598 28.2508 4.90792 28.2683H4.4131C4.02819 28.2441 3.66697 28.0742 3.40294 27.793C3.13892 27.5119 2.99196 27.1407 2.99196 26.7551C2.99196 26.3694 3.13892 25.9982 3.40294 25.7171C3.66697 25.436 4.02819 25.266 4.4131 25.2418C4.56859 25.2412 4.71828 25.3008 4.83088 25.408C4.94347 25.5153 5.01025 25.6619 5.01724 25.8172C5.02008 25.8916 5.00791 25.9658 4.98145 26.0354C4.95499 26.1049 4.91479 26.1685 4.86324 26.2222C4.81169 26.2759 4.74985 26.3186 4.68142 26.3479C4.61298 26.3772 4.53934 26.3924 4.46491 26.3926C4.28372 26.3691 4.14492 26.5332 4.1427 26.7551C4.1427 26.9507 4.2635 27.1176 4.4131 27.1176H4.90792C5.06059 27.0999 5.2003 27.0232 5.29709 26.9038C5.39389 26.7845 5.44008 26.6319 5.42577 26.4789V22.9691C5.42848 22.8577 5.46319 22.7494 5.52577 22.6572C5.58834 22.565 5.67613 22.4927 5.77866 22.4491C5.88118 22.4054 5.99411 22.3921 6.10396 22.4109C6.21381 22.4297 6.31594 22.4796 6.39816 22.5549C6.94008 23.0784 7.51677 23.5647 8.12427 24.0105C8.20935 24.0168 8.29189 24.0423 8.36565 24.0852C8.43941 24.1281 8.50246 24.1871 8.55004 24.2579C8.59284 24.3202 8.62293 24.3904 8.63858 24.4643C8.65422 24.5383 8.65513 24.6146 8.64123 24.6889C8.62733 24.7632 8.59891 24.834 8.55759 24.8973C8.51627 24.9606 8.46287 25.0151 8.40044 25.0577C8.11851 25.2534 7.89987 25.403 6.57652 24.2695Z" fill="#1F4E9E"/>
<path d="M5.47754 17.4915C6.93072 17.4912 8.32437 16.9142 9.35246 15.8872C10.3805 14.8601 10.959 13.4671 10.9609 12.0139C10.6693 4.74409 0.291902 4.7401 0 12.014C0.00152178 13.4662 0.579108 14.8586 1.60602 15.8855C2.63293 16.9124 4.02528 17.49 5.47754 17.4915ZM3.56733 11.6687H4.45916V10.7021C4.45973 10.1391 4.6836 9.59946 5.08164 9.20142C5.47968 8.80338 6.01937 8.57951 6.58228 8.57893C7.17657 8.56519 8.28344 8.91175 7.88264 9.68369C7.8026 9.81264 7.67499 9.90486 7.52744 9.94039C7.3799 9.97592 7.22429 9.9519 7.09433 9.87352C6.94064 9.77821 6.76311 9.72834 6.58227 9.72968C6.45453 9.72952 6.32802 9.75456 6.20997 9.80338C6.09192 9.85219 5.98467 9.9238 5.89434 10.0141C5.80402 10.1045 5.7324 10.2117 5.68359 10.3298C5.63478 10.4478 5.60973 10.5743 5.60989 10.7021V11.6687H6.69732C6.84834 11.6711 6.99237 11.7327 7.09833 11.8404C7.20429 11.948 7.26367 12.093 7.26367 12.2441C7.26367 12.3951 7.20429 12.5401 7.09833 12.6477C6.99237 12.7554 6.84834 12.817 6.69732 12.8194H5.6099V14.8735C5.61014 14.9492 5.59544 15.0242 5.56663 15.0943C5.53782 15.1643 5.49548 15.2279 5.44202 15.2815C5.38857 15.3352 5.32506 15.3777 5.25514 15.4067C5.18521 15.4358 5.11024 15.4507 5.03453 15.4507C4.95882 15.4507 4.88385 15.4358 4.81392 15.4067C4.744 15.3777 4.68049 15.3352 4.62703 15.2815C4.57358 15.2279 4.53124 15.1643 4.50243 15.0943C4.47362 15.0242 4.45892 14.9492 4.45916 14.8735V12.8194H3.56733C3.41631 12.817 3.27228 12.7554 3.16632 12.6477C3.06037 12.5401 3.00098 12.3951 3.00098 12.2441C3.00098 12.093 3.06037 11.948 3.16632 11.8404C3.27228 11.7327 3.41631 11.6711 3.56733 11.6687Z" fill="#1F4E9E"/>
<path d="M17.5141 11.0934C18.9885 11.0911 20.4017 10.504 21.4438 9.46092C22.4858 8.41783 23.0714 7.00396 23.0722 5.52956C22.7697 -1.84717 12.2537 -1.83922 11.9502 5.5296C11.9523 7.00459 12.5391 8.41857 13.5821 9.46154C14.6251 10.5045 16.0391 11.0914 17.5141 11.0934ZM14.4243 3.92429C14.424 3.53148 14.5795 3.15457 14.8567 2.87627C15.1339 2.59796 15.5102 2.441 15.903 2.43981H19.1194C19.5128 2.44077 19.8898 2.59748 20.168 2.87567C20.4462 3.15385 20.6029 3.53087 20.6038 3.92429V7.1406C20.6027 7.53342 20.4457 7.90972 20.1674 8.18695C19.8891 8.46417 19.5122 8.61967 19.1194 8.61932H15.903C15.7088 8.61938 15.5165 8.58117 15.3371 8.50688C15.1576 8.43259 14.9946 8.32367 14.8573 8.18635C14.72 8.04902 14.6111 7.88599 14.5368 7.70655C14.4625 7.52712 14.4243 7.33481 14.4243 7.1406V3.92429Z" fill="#1F4E9E"/>
<path d="M15.9041 7.46859H19.1205C19.164 7.4692 19.2072 7.46118 19.2476 7.44498C19.288 7.42879 19.3248 7.40475 19.3558 7.37425C19.3868 7.34375 19.4115 7.30739 19.4284 7.26729C19.4453 7.22719 19.4541 7.18414 19.4542 7.14062V3.92431C19.4541 3.83582 19.419 3.75097 19.3564 3.6884C19.2938 3.62583 19.209 3.59065 19.1205 3.59058H15.9041C15.8606 3.59072 15.8176 3.5995 15.7775 3.6164C15.7374 3.63329 15.701 3.65797 15.6705 3.68901C15.64 3.72005 15.616 3.75682 15.5998 3.79721C15.5836 3.8376 15.5756 3.8808 15.5762 3.92431V7.14062C15.5757 7.18383 15.5838 7.2267 15.6001 7.26671C15.6164 7.30673 15.6406 7.34308 15.6711 7.37363C15.7017 7.40419 15.738 7.42833 15.7781 7.44463C15.8181 7.46094 15.8609 7.46908 15.9041 7.46859ZM17.5152 3.95307C17.9306 3.95845 18.3271 4.12722 18.6189 4.42283C18.9107 4.71845 19.0743 5.11711 19.0743 5.53249C19.0743 5.94787 18.9106 6.34652 18.6188 6.64213C18.327 6.93773 17.9305 7.10649 17.5152 7.11186C17.0998 7.10648 16.7033 6.93771 16.4115 6.64209C16.1197 6.34648 15.9561 5.94782 15.9561 5.53244C15.9561 5.11706 16.1197 4.7184 16.4115 4.4228C16.7034 4.12719 17.0999 3.95843 17.5152 3.95307Z" fill="#1F4E9E"/>
<path d="M17.5153 5.96106C17.627 5.95813 17.7332 5.91168 17.8112 5.83161C17.8892 5.75154 17.9328 5.64418 17.9328 5.53239C17.9328 5.42061 17.8892 5.31325 17.8112 5.23318C17.7332 5.15312 17.627 5.10668 17.5152 5.10376C17.4035 5.10669 17.2973 5.15313 17.2193 5.2332C17.1413 5.31328 17.0977 5.42064 17.0977 5.53242C17.0977 5.6442 17.1413 5.75157 17.2193 5.83163C17.2973 5.9117 17.4035 5.95814 17.5153 5.96106Z" fill="#1F4E9E"/>
</svg>
