<svg width="35" height="20" viewBox="0 0 35 20" fill="none" xmlns="http://www.w3.org/2000/svg">
<path d="M23.4555 12.8604C23.4161 12.6691 23.4837 12.4721 23.6244 12.3426L27.1026 9.09516C27.5866 8.64491 27.7611 7.96953 27.5585 7.33917C27.3559 6.70881 26.8155 6.26418 26.157 6.18539L21.435 5.60568C21.2436 5.58317 21.0748 5.45935 20.9904 5.28488L18.9811 0.973678C18.6997 0.371461 18.1144 0 17.4502 0C16.7861 0 16.2008 0.371461 15.9194 0.973678L13.9101 5.28488C13.8257 5.45935 13.6625 5.58317 13.4711 5.60568L8.74904 6.18539C8.09054 6.26418 7.55586 6.70881 7.34762 7.33917C7.145 7.96953 7.31385 8.64491 7.8035 9.09516L11.2874 12.3426C11.4281 12.4777 11.4956 12.6691 11.4562 12.8604L10.5501 17.5318C10.4206 18.1847 10.6795 18.8319 11.2142 19.2203C11.5125 19.4342 11.8558 19.5467 12.2048 19.5467C12.4862 19.5467 12.7676 19.4736 13.0265 19.3329L17.1913 17.0253C17.3602 16.9296 17.5684 16.9296 17.7373 17.0253L21.9021 19.3329C22.4818 19.6537 23.1741 19.6143 23.7144 19.2203C24.2491 18.8319 24.508 18.1847 24.3785 17.5318L23.4724 12.8604H23.4555ZM23.039 18.3085C22.9715 18.3592 22.7295 18.5055 22.4368 18.3423L18.2719 16.0347C17.7598 15.7533 17.1463 15.7533 16.6341 16.0347L12.4693 18.3423C12.1766 18.5055 11.9346 18.3535 11.8671 18.3029C11.7995 18.2522 11.58 18.0665 11.6476 17.7401L12.5537 13.0687C12.6663 12.4946 12.4749 11.9093 12.0472 11.5097L8.56331 8.26219C8.32129 8.03706 8.3832 7.75565 8.41135 7.67686C8.43949 7.59806 8.54642 7.33354 8.87849 7.29414L13.6005 6.71444C14.1802 6.64127 14.6755 6.28107 14.9232 5.75202L16.9324 1.44082C17.0731 1.1369 17.3602 1.11438 17.4446 1.11438C17.529 1.11438 17.8161 1.1369 17.9568 1.44082L19.966 5.75764C20.2137 6.2867 20.709 6.6469 21.2887 6.72007L26.0107 7.29977C26.3428 7.33917 26.4497 7.60369 26.4779 7.68249C26.506 7.76128 26.5679 8.04269 26.3259 8.26782L22.8477 11.5153C22.4199 11.9149 22.2286 12.4946 22.3411 13.0743L23.2473 17.7457C23.3092 18.0721 23.0953 18.2579 23.0278 18.3085H23.039Z" fill="white"/>
<path d="M33.9301 8.7406L30.48 7.5812C30.3843 7.54743 30.3112 7.46863 30.283 7.36732L29.4388 3.82719C29.3093 3.28125 28.8872 2.87602 28.3413 2.76346C27.7954 2.6509 27.2438 2.85914 26.9117 3.3094L26 4.53634C25.8142 4.78398 25.8649 5.13856 26.1182 5.32429C26.3658 5.51002 26.7204 5.45937 26.9061 5.2061L27.8179 3.97915C27.9192 3.84407 28.0599 3.85533 28.1162 3.86659C28.1724 3.87784 28.3075 3.92287 28.3469 4.09171L29.1912 7.63185C29.3037 8.11025 29.6527 8.49296 30.1198 8.65055L33.5699 9.80996C33.7331 9.86624 33.7669 10.0013 33.7725 10.0576C33.7781 10.1139 33.7725 10.2546 33.6318 10.3446L30.525 12.2413C30.1029 12.5002 29.8497 12.9449 29.844 13.4401L29.8046 17.076C29.8046 17.2448 29.6808 17.3236 29.6302 17.3461C29.5795 17.3686 29.4444 17.4137 29.315 17.3011L26.5515 14.9316C26.1744 14.6108 25.6679 14.5039 25.167 14.6671L25.3302 15.2074L25.5385 15.7308C25.6341 15.7027 25.7411 15.7196 25.8199 15.7871L28.5833 18.1566C28.8478 18.3817 29.1743 18.4999 29.5063 18.4999C29.7033 18.4999 29.9059 18.4549 30.0973 18.3704C30.6038 18.1397 30.9246 17.65 30.9303 17.0872L30.9697 13.4514C30.9697 13.3501 31.0259 13.2544 31.1104 13.1981L34.2171 11.3014C34.6955 11.0088 34.9544 10.4853 34.8925 9.92815C34.8306 9.37096 34.4591 8.91508 33.9301 8.7406Z" fill="white"/>
<path d="M9.70081 14.6558C9.23367 14.5095 8.7215 14.6108 8.35004 14.9316L5.5866 17.3011C5.45715 17.4137 5.32207 17.3686 5.27142 17.3461C5.22076 17.3236 5.09694 17.2504 5.09694 17.076L5.05755 13.4401C5.05755 12.9449 4.79865 12.5002 4.37653 12.2413L1.26977 10.3446C1.12344 10.2546 1.12344 10.1139 1.12906 10.0576C1.13469 10.0013 1.16846 9.86062 1.33168 9.80996L4.78176 8.65055C5.2489 8.49296 5.59785 8.11025 5.71042 7.63185L6.55465 4.09171C6.59404 3.92287 6.72912 3.87784 6.7854 3.86659C6.84168 3.85533 6.98239 3.84407 7.0837 3.97915L7.99546 5.2061C8.18119 5.45374 8.53014 5.51002 8.78341 5.32429C9.03105 5.13856 9.08733 4.78398 8.9016 4.53634L7.98984 3.3094C7.65777 2.85914 7.11184 2.6509 6.56027 2.76346C6.01434 2.87602 5.59222 3.28125 5.46278 3.82719L4.61855 7.36732C4.59603 7.46863 4.52287 7.54743 4.42156 7.5812L0.971475 8.7406C0.442425 8.92071 0.070964 9.37659 0.00905384 9.92815C-0.0528563 10.4853 0.206041 11.0088 0.684437 11.3014L3.7912 13.1981C3.88125 13.2544 3.93191 13.3445 3.93191 13.4514L3.9713 17.0872C3.97693 17.6444 4.29774 18.1397 4.80428 18.3704C4.99564 18.4549 5.19825 18.4999 5.39524 18.4999C5.7273 18.4999 6.05374 18.3817 6.31826 18.1566L9.08171 15.7871C9.1605 15.7196 9.26744 15.6971 9.40251 15.7421C9.70081 15.8321 9.99347 15.6633 10.0892 15.365C10.1792 15.0667 9.9991 14.7459 9.70081 14.6558Z" fill="white"/>
</svg>
