<svg width="35" height="40" viewBox="0 0 35 40" fill="none" xmlns="http://www.w3.org/2000/svg">
<path d="M35 13.2495C35 13.1937 34.9948 13.1393 34.9873 13.0855V7.77227C34.9873 4.87107 32.6271 2.5108 29.7259 2.5108H28.3651V1.18662C28.3651 0.531288 27.8338 0 27.1784 0C26.5231 0 25.9918 0.531288 25.9918 1.18662V2.5108H18.6866V1.18662C18.6866 0.531288 18.1553 0 17.5 0C16.8447 0 16.3134 0.531288 16.3134 1.18662V2.5108H9.00817V1.18662C9.00817 0.531288 8.47688 0 7.82155 0C7.16622 0 6.63493 0.531288 6.63493 1.18662V2.5108H5.26146C2.36034 2.5108 0 4.87107 0 7.77227V34.1319C0 37.0331 2.36026 39.3933 5.26146 39.3933H29.7259C32.6271 39.3933 34.9873 37.0331 34.9873 34.1319V13.4134C34.9949 13.3597 35 13.3052 35 13.2495ZM5.26146 4.88404H6.63493V6.20815C6.63493 6.86348 7.16622 7.39476 7.82155 7.39476C8.47688 7.39476 9.00817 6.86348 9.00817 6.20815V4.88404H16.3134V6.20815C16.3134 6.86348 16.8447 7.39476 17.5 7.39476C18.1553 7.39476 18.6866 6.86348 18.6866 6.20815V4.88404H25.9918V6.20815C25.9918 6.86348 26.5231 7.39476 27.1784 7.39476C27.8338 7.39476 28.3651 6.86348 28.3651 6.20815V4.88404H29.7259C31.3185 4.88404 32.6141 6.17967 32.6141 7.77227V12.0628H2.37323V7.77227C2.37323 6.17975 3.66886 4.88404 5.26146 4.88404ZM29.7259 37.0201H5.26146C3.66894 37.0201 2.37323 35.7245 2.37323 34.1319V14.4361H32.6141V34.1319C32.6141 35.7244 31.3185 37.0201 29.7259 37.0201ZM9.00382 25.7044C9.00382 23.964 9.35703 22.5851 10.0638 21.567C10.7704 20.5492 11.8991 20.0402 13.4496 20.0402C14.9895 20.0402 16.1155 20.5492 16.8275 21.567C17.5395 22.5851 17.8955 23.964 17.8955 25.7044C17.8955 27.4553 17.5395 28.8425 16.8275 29.8654C16.1155 30.8887 14.9895 31.4001 13.4496 31.4001C11.8991 31.4001 10.7704 30.8886 10.0638 29.8654C9.35703 28.8424 9.00382 27.4553 9.00382 25.7044ZM15.2059 25.7044C15.2059 24.7024 15.0872 23.935 14.8499 23.4023C14.6126 22.8698 14.1459 22.6033 13.4497 22.6033C12.7429 22.6033 12.2683 22.8723 12.0257 23.4102C11.783 23.9482 11.6618 24.7131 11.6618 25.7044C11.6618 26.7066 11.783 27.4791 12.0257 28.0222C12.2683 28.5656 12.7429 28.837 13.4497 28.837C14.1459 28.837 14.6126 28.5656 14.8499 28.0222C15.0872 27.4791 15.2059 26.7065 15.2059 25.7044ZM25.9962 22.1287L21.9932 31.4159H19.1929L23.2432 22.4451H18.4967V20.1193H25.9962V22.1287Z" fill="#1F4E9E"/>
</svg>
