<svg width="30" height="30" viewBox="0 0 30 30" fill="none" xmlns="http://www.w3.org/2000/svg">
<mask id="mask0_15881_450" style="mask-type:luminance" maskUnits="userSpaceOnUse" x="0" y="0" width="30" height="30">
<path d="M0 0H30V30H0V0Z" fill="white"/>
</mask>
<g mask="url(#mask0_15881_450)">
<path d="M19.0105 18.5238L19.4089 18.1254C19.8712 17.6631 20.6206 17.6631 21.0829 18.1254L22.7569 19.7994C23.2192 20.2617 23.2192 21.0111 22.7569 21.4734L17.6171 26.6133C15.6519 28.5785 13.0773 29.5605 10.5021 29.5605C7.92687 29.5605 5.35167 28.5785 3.38702 26.6133C-0.487198 22.7396 -0.542274 16.4936 3.22179 12.552" stroke="#1F4E9E" stroke-width="1.29484" stroke-miterlimit="10" stroke-linecap="round" stroke-linejoin="round"/>
<path d="M4.66895 11.1005L8.52617 7.24329C8.98848 6.78099 9.73789 6.78099 10.2002 7.24329L11.8742 8.91731C12.3365 9.37962 12.3365 10.129 11.8742 10.5913L6.73438 15.7318C4.64492 17.8206 4.65781 21.2284 6.77187 23.3021C8.86543 25.3558 12.2422 25.2907 14.3158 23.2171L17.5596 19.974" stroke="#1F4E9E" stroke-width="1.29484" stroke-miterlimit="10" stroke-linecap="round" stroke-linejoin="round"/>
<path d="M16.3115 21.2223L19.6597 24.5706" stroke="#1F4E9E" stroke-width="1.29484" stroke-miterlimit="10" stroke-linecap="round" stroke-linejoin="round"/>
<path d="M5.42969 10.3405L8.77791 13.6887" stroke="#1F4E9E" stroke-width="1.29484" stroke-miterlimit="10" stroke-linecap="round" stroke-linejoin="round"/>
<path d="M19.3213 2.3335C19.3213 3.37957 18.4733 4.22754 17.4272 4.22754C16.3812 4.22754 15.5332 3.37957 15.5332 2.3335C15.5332 1.28742 16.3812 0.439453 17.4272 0.439453C18.4733 0.439453 19.3213 1.28742 19.3213 2.3335Z" stroke="#1F4E9E" stroke-width="1.29484" stroke-miterlimit="10" stroke-linecap="round" stroke-linejoin="round"/>
<path d="M20.0908 7.42383H14.7637C14.4368 7.42383 14.1719 7.15881 14.1719 6.83191V6.12164C14.1719 5.07562 15.0198 4.2276 16.0659 4.2276H18.7886C19.8347 4.2276 20.6827 5.07562 20.6827 6.12164V6.83191C20.6827 7.15881 20.4177 7.42383 20.0908 7.42383Z" stroke="#1F4E9E" stroke-width="1.29484" stroke-miterlimit="10" stroke-linecap="round" stroke-linejoin="round"/>
<path d="M28.1992 11.6855C28.1992 12.7316 27.3513 13.5796 26.3052 13.5796C25.2591 13.5796 24.4111 12.7316 24.4111 11.6855C24.4111 10.6395 25.2591 9.7915 26.3052 9.7915C27.3513 9.7915 28.1992 10.6395 28.1992 11.6855Z" stroke="#1F4E9E" stroke-width="1.29484" stroke-miterlimit="10" stroke-linecap="round" stroke-linejoin="round"/>
<path d="M28.9687 16.7756H23.6417C23.3148 16.7756 23.0498 16.5106 23.0498 16.1837V15.4734C23.0498 14.4274 23.8978 13.5794 24.9438 13.5794H27.6665C28.7126 13.5794 29.5606 14.4274 29.5606 15.4734V16.1837C29.5606 16.5106 29.2956 16.7756 28.9687 16.7756Z" stroke="#1F4E9E" stroke-width="1.29484" stroke-miterlimit="10" stroke-linecap="round" stroke-linejoin="round"/>
<path d="M28.1992 2.3335C28.1992 3.37957 27.3513 4.22754 26.3052 4.22754C25.2591 4.22754 24.4111 3.37957 24.4111 2.3335C24.4111 1.28742 25.2591 0.439453 26.3052 0.439453C27.3513 0.439453 28.1992 1.28742 28.1992 2.3335Z" stroke="#1F4E9E" stroke-width="1.29484" stroke-miterlimit="10" stroke-linecap="round" stroke-linejoin="round"/>
<path d="M27.3307 7.42383H28.9689C29.2959 7.42383 29.5607 7.15898 29.5607 6.83203V6.12188C29.5607 5.07539 28.7129 4.22754 27.6664 4.22754H24.9441C23.8977 4.22754 23.0498 5.07539 23.0498 6.12188V6.83203C23.0498 7.15898 23.3146 7.42383 23.6416 7.42383H25.2799" stroke="#1F4E9E" stroke-width="1.29484" stroke-miterlimit="10" stroke-linecap="round" stroke-linejoin="round"/>
<path d="M16.6049 12.0559L14.4142 14.2466C14.368 14.2929 14.293 14.2929 14.2468 14.2466L13.3954 13.3952C13.2462 13.2461 12.9912 13.3517 12.9912 13.5627V17.7767C12.9912 17.9876 13.2462 18.0933 13.3954 17.9441L15.5861 15.7534C15.6323 15.7071 15.7073 15.7071 15.7535 15.7534L16.6049 16.6048C16.754 16.7539 17.0091 16.6483 17.0091 16.4374V12.2233C17.0091 12.0124 16.754 11.9068 16.6049 12.0559Z" stroke="#1F4E9E" stroke-width="1.29484" stroke-miterlimit="10" stroke-linecap="round" stroke-linejoin="round"/>
</g>
</svg>
