<svg width="50" height="50" viewBox="0 0 50 50" fill="none" xmlns="http://www.w3.org/2000/svg">
<path d="M48.3334 31.6717H41.266C39.9819 26.3959 36.906 21.7294 32.5636 18.4694C32.8583 18.1882 33.0794 17.839 33.2075 17.4523C33.3356 17.0656 33.3667 16.6534 33.2982 16.2519C33.2296 15.8504 33.0635 15.4718 32.8144 15.1496C32.5652 14.8273 32.2408 14.5711 31.8695 14.4037L34.0361 6.75295C34.1782 6.25775 34.2034 5.73632 34.1098 5.22971C34.0162 4.7231 33.8063 4.24512 33.4966 3.83341C33.1869 3.42169 32.7859 3.08747 32.3251 2.85705C31.8643 2.62663 31.3563 2.5063 30.8411 2.50552H29.3337C28.8953 1.74393 28.2639 1.11134 27.5031 0.671468C26.7424 0.231601 25.8792 0 25.0004 0C24.1216 0 23.2584 0.231601 22.4977 0.671468C21.7369 1.11134 21.1055 1.74393 20.6671 2.50552H19.1588C18.6442 2.50657 18.1368 2.62694 17.6765 2.85719C17.2163 3.08743 16.8157 3.42128 16.5062 3.83248C16.1968 4.24369 15.9869 4.72106 15.8931 5.22708C15.7993 5.7331 15.8241 6.25398 15.9655 6.74879L18.1322 14.4037C17.7607 14.5712 17.4361 14.8275 17.1869 15.15C16.9377 15.4725 16.7716 15.8513 16.7032 16.253C16.6348 16.6548 16.6662 17.0672 16.7946 17.454C16.923 17.8408 17.1446 18.19 17.4397 18.4711C13.1077 21.7407 10.0335 26.4022 8.73399 31.6717H2.50076C2.01725 31.6696 1.54358 31.8083 1.13762 32.071C0.731662 32.3336 0.410989 32.7088 0.214778 33.1507C0.0185673 33.5927 -0.044687 34.0822 0.0327429 34.5594C0.110173 35.0367 0.324935 35.4811 0.650792 35.8383C0.232779 36.2927 0.00077137 36.8876 0.00077137 37.505C0.00077137 38.1224 0.232779 38.7172 0.650792 39.1716C0.405126 39.4397 0.221543 39.7587 0.113093 40.1058C0.00464355 40.4529 -0.0260096 40.8196 0.0233128 41.1799C0.0726353 41.5402 0.200722 41.8852 0.398468 42.1904C0.596214 42.4956 0.858762 42.7535 1.16745 42.9457C0.948789 43.3172 0.833482 43.7404 0.833482 44.1715C0.833482 44.6026 0.948789 45.0258 1.16745 45.3973C0.708772 45.6856 0.356371 46.1153 0.163495 46.6215C-0.0293824 47.1277 -0.0522549 47.683 0.0983331 48.2034C0.248921 48.7237 0.564787 49.181 0.998204 49.5059C1.43162 49.8309 1.95904 50.006 2.50076 50.0048H15.8339C16.2939 50.0032 16.7445 49.8744 17.1359 49.6326C17.5273 49.3908 17.8441 49.0455 18.0513 48.6348C20.2569 49.538 22.6171 50.0033 25.0004 50.0048H48.3334C48.7754 50.0048 49.1993 49.8292 49.5119 49.5166C49.8244 49.2041 50 48.7801 50 48.3381V33.3384C50 32.8963 49.8244 32.4724 49.5119 32.1599C49.1993 31.8473 48.7754 31.6717 48.3334 31.6717ZM48.3334 35.72C47.7603 35.571 47.2374 35.2716 46.8188 34.853C46.4001 34.4343 46.1008 33.9114 45.9517 33.3384H48.3334V35.72ZM19.1672 17.5053C18.9462 17.5053 18.7342 17.4175 18.5779 17.2612C18.4216 17.1049 18.3338 16.893 18.3338 16.672C18.3338 16.451 18.4216 16.239 18.5779 16.0827C18.7342 15.9264 18.9462 15.8386 19.1672 15.8386H30.8336C31.0546 15.8386 31.2666 15.9264 31.4229 16.0827C31.5792 16.239 31.667 16.451 31.667 16.672C31.667 16.893 31.5792 17.1049 31.4229 17.2612C31.2666 17.4175 31.0546 17.5053 30.8336 17.5053H19.1672ZM17.8389 4.83382C17.9918 4.62817 18.1908 4.46121 18.4198 4.34631C18.6489 4.23141 18.9017 4.17177 19.158 4.17216H20.0746C20.0268 4.44739 20.002 4.72613 20.0005 5.00548V8.33876C20.0005 8.55977 20.0883 8.77173 20.2446 8.92801C20.4008 9.08428 20.6128 9.17208 20.8338 9.17208C21.0548 9.17208 21.2668 9.08428 21.423 8.92801C21.5793 8.77173 21.6671 8.55977 21.6671 8.33876V5.00548C21.6657 4.54665 21.7599 4.09255 21.9438 3.67217C22.203 3.07728 22.6302 2.57098 23.173 2.2154C23.7159 1.85982 24.3507 1.67041 24.9996 1.67041C25.6485 1.67041 26.2833 1.85982 26.8261 2.2154C27.3689 2.57098 27.7961 3.07728 28.0554 3.67217C28.2398 4.09243 28.3346 4.54653 28.3337 5.00548V8.33876C28.3337 8.55977 28.4215 8.77173 28.5778 8.92801C28.734 9.08428 28.946 9.17208 29.167 9.17208C29.388 9.17208 29.6 9.08428 29.7562 8.92801C29.9125 8.77173 30.0003 8.55977 30.0003 8.33876V5.00548C29.9985 4.72611 29.9734 4.44737 29.9253 4.17216H30.842C31.0987 4.17414 31.3516 4.23543 31.5808 4.35124C31.8099 4.46704 32.0093 4.63424 32.1632 4.83977C32.3171 5.04531 32.4214 5.28363 32.468 5.53614C32.5147 5.78865 32.5023 6.04851 32.4319 6.29546L30.2036 14.172H19.7972L17.568 6.29129C17.4961 6.04409 17.4832 5.78348 17.5302 5.53037C17.5773 5.27727 17.683 5.0387 17.8389 4.83382ZM2.50076 33.3384H15.8339C16.0549 33.3384 16.2669 33.4262 16.4231 33.5824C16.5794 33.7387 16.6672 33.9507 16.6672 34.1717C16.6672 34.3927 16.5794 34.6046 16.4231 34.7609C16.2669 34.9172 16.0549 35.005 15.8339 35.005H2.50076C2.27975 35.005 2.06779 34.9172 1.91152 34.7609C1.75524 34.6046 1.66744 34.3927 1.66744 34.1717C1.66744 33.9507 1.75524 33.7387 1.91152 33.5824C2.06779 33.4262 2.27975 33.3384 2.50076 33.3384ZM2.50076 44.1715C2.50076 43.9505 2.58856 43.7386 2.74484 43.5823C2.90111 43.426 3.11307 43.3382 3.33408 43.3382H16.6672C16.8882 43.3382 17.1002 43.426 17.2564 43.5823C17.4127 43.7386 17.5005 43.9505 17.5005 44.1715C17.5005 44.3925 17.4127 44.6045 17.2564 44.7608C17.1002 44.917 16.8882 45.0048 16.6672 45.0048H3.33408C3.11307 45.0048 2.90111 44.917 2.74484 44.7608C2.58856 44.6045 2.50076 44.3925 2.50076 44.1715ZM2.50076 41.6716C2.27975 41.6716 2.06779 41.5838 1.91152 41.4275C1.75524 41.2712 1.66744 41.0592 1.66744 40.8382C1.66744 40.6172 1.75524 40.4053 1.91152 40.249C2.06779 40.0927 2.27975 40.0049 2.50076 40.0049H15.8339C16.0549 40.0049 16.2669 40.0927 16.4231 40.249C16.5794 40.4053 16.6672 40.6172 16.6672 40.8382C16.6672 41.0592 16.5794 41.2712 16.4231 41.4275C16.2669 41.5838 16.0549 41.6716 15.8339 41.6716H2.50076ZM1.66744 37.505C1.66744 37.284 1.75524 37.072 1.91152 36.9157C2.06779 36.7594 2.27975 36.6716 2.50076 36.6716H15.8339C16.0549 36.6716 16.2669 36.7594 16.4231 36.9157C16.5794 37.072 16.6672 37.284 16.6672 37.505C16.6672 37.726 16.5794 37.9379 16.4231 38.0942C16.2669 38.2505 16.0549 38.3383 15.8339 38.3383H2.50076C2.27975 38.3383 2.06779 38.2505 1.91152 38.0942C1.75524 37.9379 1.66744 37.726 1.66744 37.505ZM15.8339 48.3381H2.50076C2.27975 48.3381 2.06779 48.2503 1.91152 48.094C1.75524 47.9378 1.66744 47.7258 1.66744 47.5048C1.66744 47.2838 1.75524 47.0718 1.91152 46.9156C2.06779 46.7593 2.27975 46.6715 2.50076 46.6715H15.8339C16.0549 46.6715 16.2669 46.7593 16.4231 46.9156C16.5794 47.0718 16.6672 47.2838 16.6672 47.5048C16.6672 47.7258 16.5794 47.9378 16.4231 48.094C16.2669 48.2503 16.0549 48.3381 15.8339 48.3381ZM18.2505 46.9015C18.1955 46.6837 18.1114 46.4743 18.0005 46.279C18.3578 46.0555 18.6524 45.7448 18.8567 45.3762C19.0609 45.0075 19.1681 44.593 19.1681 44.1715C19.1681 43.7501 19.0609 43.3355 18.8567 42.9669C18.6524 42.5982 18.3578 42.2876 18.0005 42.0641C18.265 41.6117 18.3769 41.0864 18.3199 40.5655C18.2629 40.0447 18.0399 39.556 17.6839 39.1716C18.1019 38.7172 18.3339 38.1224 18.3339 37.505C18.3339 36.8876 18.1019 36.2927 17.6839 35.8383C18.0097 35.4811 18.2245 35.0367 18.3019 34.5594C18.3793 34.0822 18.3161 33.5927 18.1199 33.1507C17.9237 32.7088 17.603 32.3336 17.197 32.071C16.7911 31.8083 16.3174 31.6696 15.8339 31.6717H10.4398C11.6714 26.7651 15.3739 21.566 19.4047 19.1719H30.5953C35.7102 22.2035 40.0002 29.3968 40.0002 35.005C40.0002 42.3565 33.2711 48.3381 25.0004 48.3381C22.6748 48.3357 20.3755 47.8463 18.2505 46.9015ZM41.6668 35.005C41.6618 34.4477 41.6236 33.8912 41.5526 33.3384H44.2418C44.4164 34.36 44.9037 35.3022 45.6366 36.0351C46.3695 36.768 47.3117 37.2554 48.3334 37.43V44.2465C47.3117 44.4211 46.3695 44.9085 45.6366 45.6414C44.9037 46.3742 44.4164 47.3165 44.2418 48.3381H32.6011C37.976 45.8457 41.6668 40.8107 41.6668 35.005ZM45.9517 48.3381C46.1008 47.7651 46.4001 47.2422 46.8188 46.8235C47.2374 46.4048 47.7603 46.1055 48.3334 45.9565V48.3381H45.9517Z" fill="#F58E2A"/>
<path d="M45 43.3382C45.4944 43.3382 45.9777 43.1916 46.3889 42.9169C46.8 42.6422 47.1204 42.2517 47.3096 41.7949C47.4988 41.3381 47.5483 40.8354 47.4519 40.3505C47.3554 39.8656 47.1173 39.4201 46.7677 39.0705C46.4181 38.7209 45.9726 38.4828 45.4877 38.3863C45.0027 38.2898 44.5001 38.3393 44.0433 38.5286C43.5865 38.7178 43.196 39.0382 42.9213 39.4493C42.6466 39.8604 42.5 40.3438 42.5 40.8382C42.5 41.5012 42.7634 42.1371 43.2322 42.606C43.7011 43.0748 44.3369 43.3382 45 43.3382ZM45 40.0049C45.1648 40.0049 45.3259 40.0538 45.4629 40.1453C45.6 40.2369 45.7068 40.3671 45.7698 40.5193C45.8329 40.6716 45.8494 40.8391 45.8173 41.0008C45.7851 41.1624 45.7057 41.3109 45.5892 41.4275C45.4727 41.544 45.3242 41.6234 45.1625 41.6555C45.0009 41.6877 44.8333 41.6712 44.6811 41.6081C44.5288 41.545 44.3986 41.4382 44.3071 41.3012C44.2155 41.1641 44.1666 41.003 44.1666 40.8382C44.1666 40.6172 44.2544 40.4052 44.4107 40.249C44.567 40.0927 44.7789 40.0049 45 40.0049Z" fill="#F58E2A"/>
<path d="M27.5008 30.005C27.5008 30.2261 27.5886 30.438 27.7449 30.5943C27.9012 30.7506 28.1131 30.8384 28.3341 30.8384C28.5551 30.8384 28.7671 30.7506 28.9234 30.5943C29.0797 30.438 29.1675 30.2261 29.1675 30.005C29.1662 29.0449 28.8341 28.1145 28.2269 27.3707C27.6197 26.6269 26.7746 26.1152 25.8342 25.9218V25.8384C25.8342 25.6174 25.7464 25.4055 25.5901 25.2492C25.4338 25.0929 25.2219 25.0051 25.0009 25.0051C24.7798 25.0051 24.5679 25.0929 24.4116 25.2492C24.2553 25.4055 24.1675 25.6174 24.1675 25.8384V25.9218C23.2256 26.113 22.3788 26.624 21.7706 27.3682C21.1623 28.1124 20.8301 29.0439 20.8301 30.005C20.8301 30.9662 21.1623 31.8977 21.7706 32.6419C22.3788 33.3861 23.2256 33.8971 24.1675 34.0883V39.0191C23.6817 38.8473 23.2607 38.5295 22.9624 38.1093C22.664 37.6891 22.5029 37.187 22.5009 36.6716C22.5009 36.4506 22.4131 36.2386 22.2568 36.0824C22.1005 35.9261 21.8886 35.8383 21.6676 35.8383C21.4466 35.8383 21.2346 35.9261 21.0783 36.0824C20.9221 36.2386 20.8343 36.4506 20.8343 36.6716C20.8355 37.6318 21.1677 38.5621 21.7748 39.3059C22.382 40.0497 23.2271 40.5615 24.1675 40.7549V40.8382C24.1675 41.0592 24.2553 41.2712 24.4116 41.4275C24.5679 41.5837 24.7798 41.6715 25.0009 41.6715C25.2219 41.6715 25.4338 41.5837 25.5901 41.4275C25.7464 41.2712 25.8342 41.0592 25.8342 40.8382V40.7549C26.7761 40.5636 27.6229 40.0526 28.2311 39.3084C28.8394 38.5643 29.1716 37.6327 29.1716 36.6716C29.1716 35.7105 28.8394 34.7789 28.2311 34.0348C27.6229 33.2906 26.7761 32.7796 25.8342 32.5883V27.6584C26.3199 27.8301 26.7408 28.1478 27.0391 28.5678C27.3374 28.9879 27.4987 29.4898 27.5008 30.005ZM22.5009 30.005C22.503 29.4898 22.6643 28.9879 22.9626 28.5678C23.261 28.1478 23.6818 27.8301 24.1675 27.6584V32.3517C23.6818 32.1799 23.261 31.8623 22.9626 31.4423C22.6643 31.0222 22.503 30.5203 22.5009 30.005ZM27.5008 36.6716C27.4987 37.1868 27.3374 37.6888 27.0391 38.1088C26.7408 38.5289 26.3199 38.8465 25.8342 39.0182V34.325C26.3199 34.4967 26.7408 34.8143 27.0391 35.2344C27.3374 35.6544 27.4987 36.1564 27.5008 36.6716Z" fill="#F58E2A"/>
</svg>
