<svg width="60" height="60" viewBox="0 0 60 60" fill="none" xmlns="http://www.w3.org/2000/svg">
<path d="M14.8751 45.1778L14.8748 45.1776C16.1278 46.4305 16.1278 48.4692 14.8749 49.7221C14.6897 49.9072 14.4828 50.0694 14.2596 50.2042C14.1243 50.2887 13.9648 50.3581 13.8148 50.4315L4.5943 55.3746C4.68559 55.197 9.56409 46.3667 9.65808 46.1626C9.81921 45.794 10.0453 45.4625 10.33 45.1777C10.9565 44.5512 11.7794 44.2378 12.6024 44.2378C13.4254 44.2378 14.2483 44.5512 14.8748 45.1777L14.8746 45.1775L11.4697 41.7725C10.3833 41.9875 9.34718 42.5145 8.50706 43.3545C8.00855 43.853 7.60964 44.4311 7.32078 45.0733L0.235989 57.9466C-0.0394009 58.4469 0.0472005 59.0686 0.448801 59.4746C0.697121 59.7258 1.02935 59.8574 1.36567 59.8573C1.57321 59.8573 1.78239 59.8072 1.97434 59.7042L14.9924 52.7255C15.632 52.4365 16.2022 52.0397 16.6979 51.5453C17.538 50.7052 18.065 49.669 18.28 48.5827L14.8751 45.1778Z" fill="white"/>
<path d="M37.8832 29.1301C34.1779 29.2069 30.8439 25.9556 30.9182 22.1684C30.893 16.0125 38.4631 12.8783 42.8083 17.2436C45.51 19.836 45.5104 24.5011 42.8083 27.0935C41.4504 28.4512 39.6668 29.1301 37.8832 29.1301ZM37.8832 17.7836C35.5497 17.7352 33.4495 19.7832 33.4963 22.1684C33.4963 23.3401 33.9527 24.4418 34.7813 25.2703C37.5182 28.0195 42.2862 26.0456 42.2701 22.1682C42.3167 19.7834 40.217 17.735 37.8832 17.7836Z" fill="white"/>
<path d="M58.2081 12.5045C59.998 6.08108 60.0007 1.47667 60 1.28378C59.9986 0.933159 59.8543 0.598003 59.6005 0.356012C59.3467 0.11402 59.0051 -0.0137139 58.6548 0.00116888C52.0134 0.29109 45.6539 1.82765 39.753 4.56831C32.5159 7.99404 26.3801 12.704 21.4523 19.2444L10.8619 18.7294C10.4982 18.7109 10.1448 18.8485 9.88779 19.1055L0.377577 28.6155C0.043945 28.9491 -0.0807422 29.4382 0.0524997 29.8909C0.185742 30.3435 0.555584 30.6872 1.01672 30.787L12.675 33.3079C10.9247 36.5678 9.8306 38.8818 9.81607 38.9126C9.58416 39.4046 9.68599 39.9892 10.0706 40.3738L14.8741 45.1773C14.8742 45.1774 14.8742 45.1775 14.8743 45.1775C14.8745 45.1775 14.8746 45.1777 14.8747 45.1778L19.7783 50.0814C20.1825 50.4858 20.8038 50.5733 21.3011 50.3047C21.5516 50.1698 23.6934 49.0126 26.6465 47.3186L29.1567 58.9268C29.3524 59.9086 30.6286 60.2872 31.3281 59.5658L40.8381 50.0558C41.0952 49.7987 41.2317 49.4449 41.2142 49.0818L40.6995 38.4948C50.0034 31.9468 55.4267 22.1417 58.2081 12.5045ZM55.7003 11.8993C55.2596 13.4696 54.6773 15.2427 53.9101 17.1383L42.8154 6.04358C47.4191 4.15885 52.2967 3.02319 57.3593 2.65815C57.2328 4.43319 56.8515 7.79611 55.7003 11.8993ZM11.3068 21.3323L19.6509 21.738C17.8511 24.329 15.7716 27.7169 13.9678 30.9497L3.87233 28.7668L11.3068 21.3323ZM14.9394 34.5483L19.3099 38.9189L15.7858 42.4431L12.5421 39.1994C12.9992 38.269 13.8342 36.6049 14.9394 34.5483ZM20.9189 47.576L17.6089 44.2661L21.133 40.742L25.4292 45.0382C23.4562 46.1719 21.8411 47.069 20.9189 47.576ZM38.6111 48.6366L31.1766 56.071L28.99 45.9587C31.8848 44.2595 35.1989 42.2385 38.2021 40.2237L38.6111 48.6366ZM43.6268 32.7996C40.5108 35.9158 33.3488 40.4009 27.7354 43.6984L22.9559 38.9189L29.1683 32.7066C29.6717 32.2032 29.6716 31.387 29.1683 30.8835C28.6648 30.3802 27.8486 30.3802 27.3452 30.8835L21.1328 37.0958L16.231 32.1939C19.13 27.0196 23.21 20.4671 27.2521 16.425C31.083 12.5941 35.4688 9.48326 40.293 7.16729L52.8001 19.6743C50.8063 23.9064 47.8887 28.5378 43.6268 32.7996Z" fill="white"/>
</svg>
