<svg width="30" height="30" viewBox="0 0 30 30" fill="none" xmlns="http://www.w3.org/2000/svg">
<path d="M15.0191 19.0851C12.6064 19.0851 10.6436 17.1614 10.6436 14.7965C10.6436 12.4315 12.6064 10.5076 15.0191 10.5076C15.3612 10.5076 15.778 10.5918 15.7504 11.0297C15.7241 11.4477 15.3452 11.4753 15.0191 11.4753C13.1399 11.4753 11.6113 12.9652 11.6113 14.7965C11.6113 16.6277 13.1399 18.1173 15.0191 18.1173C16.8982 18.1173 18.4268 16.6275 18.4268 14.7965C18.4268 14.2613 18.3005 13.7508 18.0513 13.2788C17.9265 13.0426 18.0169 12.7499 18.2531 12.625C18.4892 12.5002 18.7824 12.5902 18.907 12.8271C19.2259 13.4309 19.3945 14.112 19.3945 14.7965C19.3945 17.1614 17.4319 19.0851 15.0191 19.0851Z" fill="#1F4E9E"/>
<path d="M17.3282 12.2166C17.2302 12.2166 17.1312 12.1869 17.0456 12.1252C16.9176 12.033 16.7816 11.9486 16.6415 11.8743C16.4052 11.7492 16.3152 11.4567 16.44 11.2203C16.5648 10.9844 16.8576 10.8937 17.094 11.019C17.2735 11.1141 17.4477 11.222 17.6117 11.3403C17.9833 11.6082 17.7869 12.2166 17.3282 12.2166Z" fill="#1F4E9E"/>
<path d="M28.1788 7.16265L28.1617 5.06188C28.1595 4.79599 27.9432 4.58211 27.6778 4.58211C27.6763 4.58211 27.6751 4.58211 27.6737 4.58211C27.4066 4.58429 27.1915 4.80276 27.1937 5.06987L27.1987 5.70738C24.2938 2.24811 19.6405 0 15.1772 0C10.5619 0 6.28974 2.06714 3.45782 5.67085C3.29282 5.88085 3.32935 6.18497 3.53936 6.34997C3.74961 6.51522 4.05372 6.47869 4.21897 6.26844C6.86628 2.89966 10.8605 0.967763 15.1772 0.967763C19.5162 0.967763 24.0475 3.23378 26.7451 6.68313H25.4171C25.15 6.68313 24.9332 6.89966 24.9332 7.16701C24.9332 7.43411 25.15 7.65089 25.4171 7.65089H27.695C27.851 7.65065 28.1788 7.47669 28.1788 7.16265Z" fill="#1F4E9E"/>
<path d="M29.0174 9.37925C28.9206 9.13054 28.6399 9.00715 28.391 9.10417C28.142 9.20094 28.0186 9.48159 28.1156 9.73079C28.7241 11.292 29.0326 12.9399 29.0326 14.6286C29.0326 19.9346 25.3365 25.0297 20.0699 27.2233L20.4304 26.6717C20.5765 26.4482 20.5136 26.1482 20.2901 26.0023C20.0663 25.8564 19.7665 25.9188 19.6201 26.1426L18.4661 27.9083C18.3054 28.1534 18.4087 28.4976 18.6758 28.6157L20.6201 29.4731C21.1908 29.7236 21.5815 28.8397 21.0106 28.5876L20.1834 28.223C22.7225 27.2149 25.0244 25.5382 26.7567 23.4142C28.879 20.8119 30.0004 17.7741 30.0004 14.6286C30.0004 12.8192 29.6696 11.0532 29.0174 9.37925C29.6696 11.0532 28.9203 9.1303 29.0174 9.37925Z" fill="#1F4E9E"/>
<path d="M15.7522 28.2776C15.5618 28.2851 15.3705 28.2889 15.1781 28.2889C7.5386 28.2889 1.32339 22.1611 1.32339 14.6285C1.32339 13.2959 1.88348 11.6292 2.4172 10.2223L2.84399 11.1666C3.10165 11.7361 3.98256 11.3357 3.7261 10.7683L2.82391 8.77232C2.71285 8.527 2.40728 8.41837 2.16631 8.53885L0.267318 9.48992C0.0282811 9.60944 -0.0682532 9.90025 0.0512655 10.139C0.171026 10.3781 0.462323 10.4751 0.700634 10.3549L1.47992 9.96461C0.927816 11.4283 0.355869 13.1635 0.355869 14.6283C0.355869 22.6941 7.00512 29.2562 15.1784 29.2562C15.3835 29.2562 15.5877 29.2519 15.7907 29.2439C16.0578 29.2335 16.2656 29.0082 16.255 28.7414C16.2444 28.4745 16.0186 28.2674 15.7522 28.2776C16.0186 28.2674 15.5621 28.2851 15.7522 28.2776Z" fill="#1F4E9E"/>
<path d="M15.7745 24.4335C15.2995 24.4335 13.8917 24.4391 13.6725 24.3457C13.2951 24.185 12.9873 23.7754 12.9873 23.3554V22.3915C12.2581 22.2004 11.5538 21.9028 10.9161 21.5164L10.2386 22.1924C9.81329 22.6124 9.0882 22.542 8.68004 22.1515C8.48068 21.9606 7.70454 21.168 7.52502 20.9595C7.14227 20.5145 7.15073 19.825 7.56905 19.4074L8.25084 18.7273C7.85212 18.048 7.56131 17.334 7.39582 16.6278H6.44161C5.84667 16.6278 5.35505 16.1391 5.32239 15.5494C5.30715 15.2739 5.31441 14.1622 5.32239 13.8854C5.33884 13.3151 5.80022 12.7674 6.40193 12.7674H7.36921C7.56058 12.0403 7.85841 11.338 8.24552 10.7024L7.56929 10.0276C7.14614 9.60448 7.21945 8.87624 7.61018 8.46978C7.80156 8.2709 8.59609 7.49621 8.80488 7.31742C9.25005 6.93636 9.93958 6.94483 10.3577 7.36145L11.0404 8.04275C11.7215 7.64452 12.4376 7.35419 13.146 7.1887V6.19844C13.146 5.60327 13.6367 5.11334 14.2256 5.08043C14.5016 5.06519 15.616 5.07172 15.8935 5.08043C16.4967 5.0993 16.973 5.59214 16.973 6.19844V7.16233C17.7022 7.35346 18.4065 7.65081 19.0443 8.03743L19.7217 7.36145C20.1461 6.93999 20.8731 7.01281 21.2803 7.40258C21.4797 7.59347 22.2558 8.38582 22.4351 8.59438C22.8178 9.03955 22.8094 9.72884 22.3908 10.1464L21.7093 10.8265C22.108 11.5057 22.3986 12.2194 22.5643 12.9258H23.5185C24.0996 12.9258 24.6143 13.3558 24.6738 13.9442C24.7026 14.2289 24.6859 15.3837 24.6776 15.6685C24.6612 16.239 24.2003 16.7862 23.5981 16.7862H22.6308C22.4394 17.5133 22.1416 18.2154 21.7545 18.8515L22.4307 19.526C22.8541 19.9494 22.7806 20.6776 22.3898 21.0841C22.1985 21.283 21.4042 22.0574 21.1951 22.2362C20.7497 22.6175 20.0607 22.6095 19.6424 22.1924L18.9596 21.5111C18.2786 21.9091 17.5626 22.1997 16.854 22.3652V23.3157C16.854 23.8862 16.3638 24.4335 15.7745 24.4335ZM13.9548 23.3169C13.9652 23.3661 13.9998 23.4657 14.1063 23.4657H15.7362C15.7858 23.4553 15.8862 23.421 15.8862 23.3155V21.9684C15.8862 21.732 16.0573 21.53 16.2908 21.4913C17.1155 21.3541 17.972 21.0086 18.7678 20.4925C18.9591 20.3684 19.2115 20.395 19.3728 20.5559L20.3259 21.507C20.4025 21.5837 20.5054 21.5384 20.5538 21.5099L21.7131 20.3916C21.7823 20.3227 21.7405 20.2247 21.7119 20.1758L20.794 19.2598C20.6288 19.0951 20.6048 18.836 20.7367 18.6436C21.2261 17.9297 21.5946 17.063 21.7741 16.2029C21.821 15.9786 22.0187 15.818 22.2478 15.818H23.5601C23.6095 15.8078 23.7099 15.7737 23.7099 15.6682V14.0409C23.69 13.943 23.6257 13.8934 23.5185 13.8934H22.1682C21.9316 13.8934 21.7298 13.7226 21.6909 13.4891C21.5537 12.6667 21.2075 11.8127 20.6905 11.0189C20.5654 10.827 20.592 10.5739 20.7541 10.4121L21.7071 9.46101C21.7823 9.38601 21.7381 9.28463 21.71 9.23649L20.5893 8.07977C20.5192 8.01009 20.4195 8.05219 20.3699 8.08074L19.4517 8.99697C19.2872 9.16125 19.0291 9.1852 18.8372 9.05382C18.1218 8.56583 17.2527 8.19784 16.3902 8.01856C16.1657 7.97211 16.0048 7.77396 16.0048 7.54484V6.19771C16.0048 6.10457 15.9397 6.04747 15.893 6.04747H14.2631C14.2135 6.05787 14.1131 6.09223 14.1131 6.19771V7.58452C14.1131 7.82089 13.942 8.02291 13.7085 8.06162C12.884 8.1988 12.0275 8.54405 11.2315 9.06011C11.0402 9.18471 10.7881 9.15786 10.6267 8.99673L9.67369 8.0459C9.59724 7.96945 9.49417 8.01445 9.44578 8.04275L8.2864 9.161C8.21721 9.22996 8.25907 9.32794 8.28761 9.37681L9.20554 10.293C9.37078 10.458 9.39473 10.7169 9.26288 10.9093C8.77367 11.6227 8.4052 12.4896 8.22544 13.3497C8.1785 13.574 7.98083 13.7346 7.75172 13.7346H6.44016C6.39056 13.7453 6.29015 13.7794 6.29015 13.8851V15.511C6.30056 15.5601 6.33515 15.6598 6.44161 15.6598H7.79188C8.0285 15.6598 8.23027 15.8308 8.26923 16.0641C8.40641 16.8862 8.75238 17.7405 9.26965 18.5345C9.39473 18.7264 9.36812 18.9794 9.20602 19.1413L8.25302 20.0921C8.17777 20.1674 8.22205 20.2687 8.25011 20.3169L9.37078 21.4736C9.44095 21.5435 9.54062 21.5014 9.59022 21.4724L10.5084 20.5562C10.6727 20.3919 10.9311 20.3679 11.1232 20.4993C11.8383 20.9875 12.7071 21.3555 13.5699 21.5348C13.7944 21.5813 13.9553 21.7794 13.9553 22.0085V23.3169H13.9548Z" fill="#1F4E9E"/>
</svg>
