<svg width="60" height="60" viewBox="0 0 60 60" fill="none" xmlns="http://www.w3.org/2000/svg">
<path d="M47.4969 40.0222C47.3662 39.8916 47.2111 39.7879 47.0403 39.7172C46.8696 39.6465 46.6866 39.6101 46.5018 39.6101C46.317 39.6101 46.1341 39.6465 45.9633 39.7172C45.7926 39.7879 45.6375 39.8916 45.5068 40.0222L45.362 40.1672L42.7041 37.5093C46.0146 32.9586 47.592 27.3758 47.1526 21.7656C46.7132 16.1554 44.2857 10.8862 40.3072 6.90645C31.0986 -2.30215 16.115 -2.30215 6.90645 6.90645C-2.30215 16.115 -2.30215 31.0986 6.90645 40.3072C10.8894 44.2795 16.1576 46.7025 21.7657 47.1414C27.3738 47.5804 32.9548 46.0065 37.5073 42.7023L40.167 45.362L40.0222 45.5068C39.8916 45.6375 39.7879 45.7926 39.7172 45.9633C39.6465 46.1341 39.6101 46.317 39.6101 46.5018C39.6101 46.6866 39.6465 46.8696 39.7172 47.0403C39.7879 47.2111 39.8916 47.3662 40.0222 47.4969L51.0097 58.4843C52.0038 59.4614 53.3436 60.0063 54.7375 60.0002C56.1314 59.9942 57.4665 59.4378 58.4521 58.4521C59.4377 57.4664 59.994 56.1313 60 54.7374C60.0059 53.3435 59.4609 52.0037 58.4837 51.0097L47.4969 40.0222ZM8.89639 38.3171C0.785128 30.2059 0.785128 17.0078 8.89639 8.89604C17.0076 0.784308 30.206 0.784778 38.3175 8.89604C42.2189 12.7975 44.4108 18.0891 44.4108 23.6066C44.4108 29.1241 42.2189 34.4156 38.3175 38.3171C34.416 42.2186 29.1245 44.4104 23.6069 44.4104C18.0894 44.4104 12.7979 42.2186 8.89639 38.3171ZM39.6876 40.9024C39.8965 40.708 40.1037 40.5106 40.3072 40.3072C40.5106 40.1037 40.7079 39.8968 40.9026 39.6877L43.3719 42.1571L42.1571 43.3719L39.6876 40.9024ZM46.5019 43.0071L47.756 44.2618L44.2616 47.7563L43.0075 46.5021L46.5019 43.0071ZM56.4938 56.4938C56.03 56.9564 55.4017 57.2162 54.7466 57.2162C54.0915 57.2162 53.4632 56.9564 52.9994 56.4938L46.2517 49.746L49.7461 46.2515L56.4939 52.9994C56.9565 53.4632 57.2162 54.0916 57.2162 54.7466C57.2162 55.4017 56.9564 56.03 56.4938 56.4938ZM37.5812 20.8475C37.6248 21.2181 37.5194 21.5909 37.2881 21.8838C37.0569 22.1768 36.7188 22.3658 36.3482 22.4094C36.293 22.4159 36.2375 22.4191 36.1819 22.4192C35.8375 22.4187 35.5052 22.2919 35.2481 22.0628C34.9909 21.8337 34.8266 21.5183 34.7865 21.1762L34.5117 18.8427L27.1574 27.5435C26.9553 27.7827 26.6792 27.9476 26.3728 28.0121C26.0664 28.0767 25.7472 28.0372 25.4658 27.8999L18.9408 24.7172L12.1196 33.061C11.8833 33.3499 11.5419 33.5332 11.1705 33.5704C10.7991 33.6077 10.4281 33.4959 10.1391 33.2596C9.85017 33.0233 9.6669 32.6819 9.62965 32.3105C9.5924 31.9391 9.70421 31.5681 9.94049 31.2792L17.4667 22.073C17.6674 21.8275 17.9451 21.657 18.2549 21.5891C18.5646 21.5212 18.8882 21.5599 19.1731 21.699L25.7148 24.8898L32.5341 16.8221C32.5391 16.8162 32.5448 16.811 32.5499 16.8051L29.677 17.1431C29.4926 17.1665 29.3053 17.1532 29.1261 17.1039C28.9468 17.0545 28.7791 16.9702 28.6326 16.8556C28.4862 16.7411 28.3639 16.5987 28.2728 16.4366C28.1817 16.2745 28.1236 16.096 28.1019 15.9114C28.0802 15.7267 28.0953 15.5396 28.1464 15.3608C28.1975 15.182 28.2834 15.0151 28.3994 14.8698C28.5153 14.7244 28.6589 14.6035 28.8218 14.514C28.9847 14.4244 29.1638 14.3681 29.3487 14.3481L35.3173 13.6459C35.6879 13.6022 36.0607 13.7077 36.3536 13.9389C36.6466 14.1701 36.8356 14.5082 36.8792 14.8789L37.5812 20.8475Z" fill="white"/>
</svg>
