<svg width="33" height="28" viewBox="0 0 33 28" fill="none" xmlns="http://www.w3.org/2000/svg">
<path d="M24.2574 8.7351C23.6881 8.75858 23.4416 7.93692 23.9463 7.64934L31.0713 3.25935C31.7286 2.86613 32.339 3.84038 31.6875 4.25708L24.5626 8.64707C24.4687 8.70576 24.363 8.7351 24.2574 8.7351Z" fill="#1F4E9E"/>
<path d="M22.4555 5.63623C21.986 5.64797 21.6867 5.06108 21.9919 4.69133L25.4076 0.230912C25.8771 -0.373592 26.8044 0.330684 26.3408 0.946926L22.925 5.40734C22.8077 5.55994 22.6375 5.63623 22.4614 5.63623H22.4555Z" fill="#1F4E9E"/>
<path d="M26.0591 12.0511C25.349 12.0511 25.261 10.9947 25.9711 10.8832L32.1922 9.96178C32.9552 9.86201 33.1254 10.9947 32.3624 11.1238L26.1413 12.0453C26.112 12.0453 26.0826 12.0511 26.0533 12.0511H26.0591Z" fill="#1F4E9E"/>
<path d="M18.9412 12.4619C20.2969 12.145 21.8346 12.2037 23.1493 12.6204L17.7674 3.07156C17.3683 2.36729 16.4762 2.11492 15.7661 2.51401L15.1909 2.8368C14.4984 3.21242 14.2343 4.15732 14.6334 4.83812L18.9353 12.4678L18.9412 12.4619Z" fill="#1F4E9E"/>
<path d="M19.3096 18.6479C19.3096 19.2641 19.5091 19.4284 20.1547 19.6573V17.5093C19.6617 17.703 19.3096 18.1373 19.3096 18.6479Z" fill="#1F4E9E"/>
<path d="M21.3281 23.4544C22.3552 23.073 22.5547 21.6175 21.3281 21.3064V23.4544Z" fill="#1F4E9E"/>
<path d="M20.743 13.4304C16.8519 13.4304 13.6885 16.5938 13.6885 20.4849C14.0758 29.8459 27.4101 29.8401 27.7975 20.4849C27.7975 16.5938 24.6341 13.4304 20.743 13.4304ZM21.3416 20.0741C22.1398 20.3382 23.3488 20.7373 23.3488 22.3219C23.3488 23.4722 22.4861 24.4289 21.3299 24.6754C21.3886 25.544 20.0974 25.544 20.1561 24.6754C19.0058 24.4289 18.1372 23.4664 18.1372 22.3219C18.1372 21.9991 18.4013 21.735 18.7241 21.735C19.0468 21.735 19.311 21.9991 19.311 22.3219C19.311 22.8266 19.6572 23.2609 20.1561 23.4605V20.9016C19.2523 20.5906 18.1489 20.2795 18.1372 18.6479C18.1372 17.4976 18.9999 16.541 20.1561 16.2945C20.0974 15.4259 21.3886 15.4259 21.3299 16.2945C22.4802 16.541 23.3488 17.5035 23.3488 18.6479C23.3488 18.9707 23.0847 19.2348 22.7619 19.2348C22.4391 19.2348 22.175 18.9707 22.175 18.6479C22.175 18.1432 21.8287 17.7089 21.3299 17.5094V20.0682C21.3299 20.0682 21.3357 20.0682 21.3416 20.0682V20.0741Z" fill="#1F4E9E"/>
<path d="M17.7889 12.8139L14.0387 6.15845C11.9317 8.89926 9.34936 11.2938 6.51465 13.2364L10.6816 20.6372C11.292 20.3614 11.9141 20.1031 12.5421 19.8625C12.7886 16.6404 14.8897 13.9348 17.7889 12.8139Z" fill="#1F4E9E"/>
<path d="M8.81659 21.647L10.1547 20.8899L6.01709 13.5537L1.76796 15.9483C0.118775 16.8345 -0.503336 19.0705 0.447438 20.6786L1.16932 21.9639C1.76796 23.0497 2.96523 23.7422 4.20358 23.7364C5.34216 23.8303 6.82701 22.7152 7.78952 22.2222L9.47979 25.2212C9.63825 25.5088 10.0021 25.6027 10.278 25.4442C10.5597 25.2858 10.6594 24.9278 10.501 24.6461L8.81072 21.647H8.81659Z" fill="#1F4E9E"/>
</svg>
