<svg width="30" height="18" viewBox="0 0 30 18" fill="none" xmlns="http://www.w3.org/2000/svg">
<path fill-rule="evenodd" clip-rule="evenodd" d="M29.6339 0.366112C30.122 0.854275 30.122 1.64572 29.6339 2.13389L17.7589 14.0089C17.2707 14.497 16.4792 14.497 15.9911 14.0089L10.625 8.64275L2.13389 17.1339C1.64573 17.622 0.854271 17.622 0.366116 17.1339C-0.122039 16.6457 -0.122039 15.8542 0.366116 15.3661L9.74111 5.99111C10.2293 5.50296 11.0207 5.50296 11.5089 5.99111L16.875 11.3572L27.8661 0.366112C28.3542 -0.122037 29.1457 -0.122037 29.6339 0.366112Z" fill="white"/>
<path fill-rule="evenodd" clip-rule="evenodd" d="M20 1.25C20 0.55965 20.5596 0 21.25 0H28.75C29.4404 0 30 0.55965 30 1.25V8.75C30 9.44038 29.4404 10 28.75 10C28.0596 10 27.5 9.44038 27.5 8.75V2.5H21.25C20.5596 2.5 20 1.94035 20 1.25Z" fill="white"/>
</svg>
