<svg width="20" height="20" viewBox="0 0 20 20" fill="none" xmlns="http://www.w3.org/2000/svg">
<path d="M19.5244 1.45925C19.4821 0.682776 18.8645 0.0653184 18.088 0.0229405C16.5213 -0.0626553 13.4554 0.0206117 10.5238 1.53694C9.02929 2.30997 7.44871 3.6206 6.18734 5.13276C6.1718 5.15139 6.15668 5.17014 6.14126 5.18881L3.27865 5.40994C2.80745 5.44636 2.38776 5.69334 2.12715 6.08749L0.174179 9.04142C-0.0234701 9.34035 -0.0548909 9.71446 0.0900721 10.0421C0.235073 10.3699 0.533017 10.5983 0.88712 10.6531L3.29888 11.0267C3.29037 11.0735 3.28182 11.1204 3.27399 11.1673C3.1937 11.6475 3.35283 12.1413 3.69972 12.4882L7.0591 15.8476C7.3467 16.1352 7.73531 16.2938 8.13351 16.2938C8.21552 16.2938 8.29799 16.287 8.38007 16.2733C8.42695 16.2655 8.4738 16.2569 8.52068 16.2484L8.89422 18.6602C8.94908 19.0143 9.17746 19.3123 9.50511 19.4573C9.64144 19.5176 9.78572 19.5474 9.92935 19.5474C10.131 19.5473 10.3313 19.4886 10.5059 19.3732L13.4598 17.4202C13.854 17.1595 14.1009 16.7398 14.1373 16.2687L14.3584 13.4061C14.3771 13.3907 14.3959 13.3756 14.4145 13.36C15.9267 12.0987 17.2374 10.5181 18.0104 9.02355C19.5268 6.0918 19.6099 3.02589 19.5244 1.45925ZM12.8281 16.4647L10.0025 18.3329L9.63846 15.9825C10.8327 15.6313 12.014 15.069 13.1395 14.3156L12.9954 16.1804C12.9865 16.2967 12.9255 16.4004 12.8281 16.4647ZM7.86898 15.0377L4.50955 11.6783C4.42384 11.5926 4.38421 11.4721 4.40365 11.3561C4.50352 10.7589 4.65872 10.1904 4.85083 9.65479L9.89143 14.6954C9.24821 14.9258 8.67206 15.0632 8.1912 15.1436C8.07499 15.163 7.95469 15.1235 7.86898 15.0377ZM3.36688 6.55189L5.23166 6.40784C4.47825 7.5333 3.91588 8.71465 3.56476 9.90887L1.21435 9.54484L3.08256 6.71919C3.14693 6.62183 3.25059 6.56086 3.36688 6.55189ZM13.6809 12.4804C12.7558 13.2521 11.8577 13.8103 11.0299 14.2142L5.33291 8.51719C5.86198 7.43659 6.50769 6.53677 7.06685 5.86644C8.23415 4.46701 9.68596 3.25977 11.05 2.55424C13.7406 1.16252 16.5754 1.08758 18.0257 1.16653C18.2177 1.17699 18.3703 1.32967 18.3808 1.52167C18.4599 2.97199 18.3848 5.80672 16.9931 8.49734C16.2876 9.86137 15.0803 11.3131 13.6809 12.4804Z" fill="white"/>
<path d="M13.3897 9.01927C14.1228 9.0192 14.8562 8.74011 15.4143 8.18198C15.9551 7.64119 16.2529 6.92214 16.2529 6.15735C16.2529 5.39256 15.9551 4.67351 15.4143 4.13272C14.2979 3.01627 12.4814 3.01635 11.365 4.13272C10.8242 4.67351 10.5264 5.39256 10.5264 6.15735C10.5264 6.92214 10.8242 7.64119 11.365 8.18198C11.9233 8.74023 12.6563 9.01935 13.3897 9.01927ZM12.1748 4.94256C12.5097 4.60762 12.9497 4.44017 13.3896 4.44017C13.8296 4.44017 14.2695 4.60762 14.6044 4.94256C14.9289 5.26703 15.1075 5.69845 15.1075 6.15731C15.1075 6.61618 14.9289 7.04763 14.6044 7.37211C13.9346 8.04195 12.8446 8.04191 12.1748 7.37211C11.8503 7.04763 11.6716 6.61622 11.6716 6.15735C11.6716 5.69849 11.8504 5.26703 12.1748 4.94256Z" fill="white"/>
<path d="M0.584374 16.1088C0.730941 16.1088 0.877507 16.0529 0.989293 15.9411L2.859 14.0714C3.08265 13.8477 3.08265 13.4851 2.859 13.2615C2.63539 13.0378 2.27277 13.0378 2.04912 13.2615L0.179455 15.1312C-0.0441934 15.3548 -0.0441934 15.7174 0.179455 15.9411C0.291241 16.0529 0.437808 16.1088 0.584374 16.1088Z" fill="white"/>
<path d="M4.57225 14.975C4.34864 14.7513 3.98602 14.7513 3.76238 14.975L0.167736 18.5697C-0.0559121 18.7933 -0.0559121 19.1559 0.167736 19.3795C0.279561 19.4914 0.426089 19.5473 0.572655 19.5473C0.719222 19.5473 0.865789 19.4914 0.977575 19.3795L4.57221 15.7849C4.7959 15.5612 4.7959 15.1986 4.57225 14.975Z" fill="white"/>
<path d="M5.47592 16.6885L3.60621 18.5582C3.38256 18.7818 3.38256 19.1444 3.60621 19.3681C3.71804 19.4799 3.8646 19.5358 4.01113 19.5358C4.15766 19.5358 4.30426 19.4799 4.41605 19.3681L6.28576 17.4984C6.50941 17.2747 6.50941 16.9121 6.28576 16.6885C6.06215 16.4648 5.69953 16.4648 5.47592 16.6885Z" fill="white"/>
</svg>
