<svg width="38" height="38" viewBox="0 0 38 38" fill="none" xmlns="http://www.w3.org/2000/svg">
<path d="M38 19.0002C38 29.477 29.4769 38.0002 19 38.0002C8.52314 38.0002 0 29.477 0 19.0002C0 18.2683 0.593684 17.6746 1.32558 17.6746C2.05748 17.6746 2.65116 18.2683 2.65116 19.0002C2.65116 28.0152 9.98499 35.349 19 35.349C28.015 35.349 35.3488 28.0152 35.3488 19.0002C35.3488 9.98516 28.015 2.65134 19 2.65134C14.7353 2.65134 10.6801 4.3601 7.66911 7.28221H11.7888C12.5207 7.28221 13.1144 7.8759 13.1144 8.6078C13.1144 9.33969 12.5207 9.93338 11.7888 9.93338H4.71889C3.987 9.93338 3.39331 9.33969 3.39331 8.6078V1.53803C3.39331 0.80613 3.987 0.212447 4.71889 0.212447C5.45079 0.212447 6.04447 0.80613 6.04447 1.53803V5.15881C9.52192 1.89346 14.1482 0 19 0C29.4769 0 38 8.52331 38 19.0002ZM19 7.95367C18.2681 7.95367 17.6744 8.54735 17.6744 9.27925V10.6153C15.7582 10.6704 14.0771 11.9035 13.4663 13.7316C13.0796 14.8907 13.1678 16.1307 13.7148 17.2234C14.2603 18.3169 15.2009 19.1315 16.3591 19.5173L20.8019 20.9983C21.2887 21.1605 21.6839 21.5031 21.9135 21.9622C22.143 22.4214 22.181 22.9426 22.017 23.4303C21.7563 24.2164 21.0228 24.7447 20.1944 24.7447H18.2596C17.1601 24.7447 16.1866 24.043 15.8398 22.9997C15.6069 22.3067 14.8629 21.9271 14.1622 22.1618C13.4683 22.3931 13.092 23.1439 13.3233 23.8385C13.9716 25.7776 15.6799 27.1241 17.6746 27.3496V28.7215C17.6746 29.4534 18.2683 30.047 19.0002 30.047C19.7321 30.047 20.3258 29.4534 20.3258 28.7215V27.3855C22.242 27.3303 23.923 26.0972 24.5339 24.2691C24.9206 23.11 24.8324 21.87 24.2854 20.7773C23.7399 19.6838 22.7993 18.8692 21.6411 18.4834L17.1983 17.0024C16.7115 16.8402 16.3163 16.4977 16.0867 16.0385C15.8571 15.5793 15.8191 15.0581 15.9832 14.5704C16.2439 13.7843 16.9773 13.256 17.8057 13.256H19.7406C20.8401 13.256 21.8136 13.9577 22.1604 15.001C22.3917 15.6931 23.1321 16.0721 23.838 15.8389C24.5319 15.6076 24.9082 14.8568 24.6768 14.1622C24.0285 12.2231 22.3203 10.8767 20.3256 10.6511V9.27925C20.3256 8.54735 19.7319 7.95367 19 7.95367Z" fill="#1F4E9E"/>
</svg>
