<svg width="11" height="16" viewBox="0 0 11 16" fill="none" xmlns="http://www.w3.org/2000/svg">
<path d="M5.41403 7.34761C4.90121 7.34761 4.4094 7.1439 4.04678 6.78128C3.68416 6.41866 3.48045 5.92685 3.48045 5.41403C3.48045 4.90121 3.68416 4.4094 4.04678 4.04678C4.4094 3.68416 4.90121 3.48045 5.41403 3.48045C5.92685 3.48045 6.41866 3.68416 6.78128 4.04678C7.1439 4.4094 7.34761 4.90121 7.34761 5.41403C7.34761 5.66795 7.2976 5.91939 7.20043 6.15398C7.10326 6.38857 6.96083 6.60173 6.78128 6.78128C6.60173 6.96083 6.38857 7.10326 6.15398 7.20043C5.91939 7.2976 5.66795 7.34761 5.41403 7.34761ZM5.41403 0C3.97814 0 2.60106 0.570405 1.58573 1.58573C0.570405 2.60106 0 3.97814 0 5.41403C0 9.47455 5.41403 15.4687 5.41403 15.4687C5.41403 15.4687 10.8281 9.47455 10.8281 5.41403C10.8281 3.97814 10.2577 2.60106 9.24233 1.58573C8.227 0.570405 6.84992 0 5.41403 0Z" fill="white"/>
</svg>
