<svg width="31" height="31" viewBox="0 0 31 31" fill="none" xmlns="http://www.w3.org/2000/svg">
<path d="M10.6838 12.6661C11.1833 15.3133 12.5208 17.7545 14.4829 19.6004L16.7979 18.3321C17.0925 18.1707 17.4292 18.1983 17.688 18.3712C18.5121 18.9389 19.4418 19.3873 20.4598 19.6846C20.6758 19.7477 20.8578 19.894 20.966 20.0913C21.0741 20.2887 21.0994 20.5209 21.0363 20.7369L20.2037 23.5872C20.1406 23.8032 19.9943 23.9853 19.797 24.0934C19.5996 24.2015 19.3674 24.2268 19.1514 24.1637C15.4797 23.0912 12.3843 20.604 10.5464 17.2492C8.70847 13.8945 8.27846 9.94708 9.35099 6.27531C9.41408 6.05933 9.56038 5.87725 9.75772 5.76914C9.95506 5.66102 10.1873 5.63573 10.4032 5.69882L13.2536 6.5314C13.4695 6.59449 13.6516 6.74079 13.7597 6.93813C13.8679 7.13547 13.8932 7.36767 13.8301 7.58366C13.5327 8.60163 13.4101 9.62646 13.445 10.6266C13.4513 10.9378 13.2934 11.2363 12.9988 11.3978L10.6838 12.6661Z" fill="#F36B32"/>
<circle cx="15.1685" cy="15.1685" r="14.4656" stroke="#F36B32" stroke-width="1.40578"/>
</svg>
