<svg width="18" height="18" viewBox="0 0 18 18" fill="none" xmlns="http://www.w3.org/2000/svg">
<path d="M8.59649 0C3.86842 0 0 3.85982 0 8.61368C0 12.9119 3.14632 16.4795 7.25544 17.1242V11.1067H5.07193V8.61368H7.25544V6.71386C7.25544 4.55614 8.53632 3.36982 10.5049 3.36982C11.4419 3.36982 12.4219 3.53316 12.4219 3.53316V5.65649H11.3388C10.2728 5.65649 9.93754 6.31842 9.93754 6.99754V8.61368H12.3274L11.9405 11.1067H9.93754V17.1242C11.9633 16.8043 13.8079 15.7707 15.1384 14.2101C16.4689 12.6494 17.1976 10.6645 17.193 8.61368C17.193 3.85982 13.3246 0 8.59649 0Z" fill="white"/>
</svg>
