<svg width="17" height="17" viewBox="0 0 17 17" fill="none" xmlns="http://www.w3.org/2000/svg">
<path d="M4.6931 0H11.49C14.0793 0 16.1831 2.1038 16.1831 4.6931V11.49C16.1831 12.7347 15.6887 13.9284 14.8085 14.8085C13.9284 15.6887 12.7347 16.1831 11.49 16.1831H4.6931C2.1038 16.1831 0 14.0793 0 11.49V4.6931C0 3.44841 0.49445 2.2547 1.37458 1.37458C2.2547 0.49445 3.44841 0 4.6931 0ZM4.53127 1.61831C3.7587 1.61831 3.01778 1.92521 2.4715 2.4715C1.92521 3.01778 1.61831 3.7587 1.61831 4.53127V11.6518C1.61831 13.2621 2.92105 14.5648 4.53127 14.5648H11.6518C12.4244 14.5648 13.1653 14.2579 13.7116 13.7116C14.2579 13.1653 14.5648 12.4244 14.5648 11.6518V4.53127C14.5648 2.92105 13.2621 1.61831 11.6518 1.61831H4.53127ZM12.3396 2.83204C12.6079 2.83204 12.8651 2.93861 13.0548 3.12829C13.2445 3.31797 13.3511 3.57524 13.3511 3.84349C13.3511 4.11174 13.2445 4.369 13.0548 4.55869C12.8651 4.74837 12.6079 4.85493 12.3396 4.85493C12.0714 4.85493 11.8141 4.74837 11.6244 4.55869C11.4347 4.369 11.3282 4.11174 11.3282 3.84349C11.3282 3.57524 11.4347 3.31797 11.6244 3.12829C11.8141 2.93861 12.0714 2.83204 12.3396 2.83204ZM8.09155 4.04578C9.16456 4.04578 10.1936 4.47203 10.9523 5.23076C11.7111 5.98949 12.1373 7.01854 12.1373 8.09155C12.1373 9.16456 11.7111 10.1936 10.9523 10.9523C10.1936 11.7111 9.16456 12.1373 8.09155 12.1373C7.01854 12.1373 5.98949 11.7111 5.23076 10.9523C4.47203 10.1936 4.04578 9.16456 4.04578 8.09155C4.04578 7.01854 4.47203 5.98949 5.23076 5.23076C5.98949 4.47203 7.01854 4.04578 8.09155 4.04578ZM8.09155 5.66409C7.44775 5.66409 6.83031 5.91984 6.37507 6.37507C5.91984 6.83031 5.66409 7.44775 5.66409 8.09155C5.66409 8.73535 5.91984 9.35279 6.37507 9.80803C6.83031 10.2633 7.44775 10.519 8.09155 10.519C8.73535 10.519 9.35279 10.2633 9.80803 9.80803C10.2633 9.35279 10.519 8.73535 10.519 8.09155C10.519 7.44775 10.2633 6.83031 9.80803 6.37507C9.35279 5.91984 8.73535 5.66409 8.09155 5.66409Z" fill="white"/>
</svg>
