<svg width="17" height="17" viewBox="0 0 17 17" fill="none" xmlns="http://www.w3.org/2000/svg">
<path d="M14.385 0C14.8619 0 15.3192 0.189444 15.6564 0.526658C15.9937 0.863871 16.1831 1.32123 16.1831 1.79812V14.385C16.1831 14.8619 15.9937 15.3192 15.6564 15.6564C15.3192 15.9937 14.8619 16.1831 14.385 16.1831H1.79812C1.32123 16.1831 0.863871 15.9937 0.526658 15.6564C0.189444 15.3192 0 14.8619 0 14.385V1.79812C0 1.32123 0.189444 0.863871 0.526658 0.526658C0.863871 0.189444 1.32123 0 1.79812 0H14.385ZM13.9354 13.9354V9.17042C13.9354 8.39309 13.6267 7.64759 13.077 7.09794C12.5273 6.54828 11.7818 6.23948 11.0045 6.23948C10.2403 6.23948 9.35023 6.707 8.91869 7.40826V6.41031H6.41031V13.9354H8.91869V9.50308C8.91869 8.8108 9.4761 8.24439 10.1684 8.24439C10.5022 8.24439 10.8224 8.377 11.0584 8.61305C11.2945 8.8491 11.4271 9.16925 11.4271 9.50308V13.9354H13.9354ZM3.48836 4.99878C3.88895 4.99878 4.27313 4.83965 4.55639 4.55639C4.83965 4.27313 4.99878 3.88895 4.99878 3.48836C4.99878 2.65223 4.32448 1.96894 3.48836 1.96894C3.08538 1.96894 2.69892 2.12902 2.41397 2.41397C2.12902 2.69892 1.96894 3.08538 1.96894 3.48836C1.96894 4.32448 2.65223 4.99878 3.48836 4.99878ZM4.73805 13.9354V6.41031H2.24765V13.9354H4.73805Z" fill="white"/>
</svg>
