<svg width="251" height="139" viewBox="0 0 251 139" fill="none" xmlns="http://www.w3.org/2000/svg">
<g clip-path="url(#clip0_15657_464)">
<path d="M111.61 24.8464V36.2054H110.714C110.423 34.026 109.903 32.2906 109.152 30.9993C108.402 29.708 107.333 28.6821 105.942 27.9241C104.551 27.1662 103.117 26.7859 101.631 26.7859C99.9522 26.7859 98.5639 27.2989 97.4665 28.3248C96.3692 29.3507 95.8205 30.517 95.8205 31.8236C95.8205 32.8265 96.1676 33.7376 96.8617 34.5619C97.8621 35.7741 100.243 37.387 104.007 39.4056C107.075 41.0517 109.17 42.3175 110.293 43.1954C111.416 44.0758 112.278 45.1119 112.886 46.3063C113.491 47.5006 113.794 48.7537 113.794 50.0603C113.794 52.546 112.83 54.6897 110.9 56.4914C108.971 58.2905 106.488 59.1914 103.454 59.1914C102.502 59.1914 101.603 59.1174 100.766 58.9745C100.266 58.8928 99.2274 58.5993 97.6554 58.0889C96.0808 57.5811 95.083 57.3259 94.6644 57.3259C94.2612 57.3259 93.9422 57.4458 93.7074 57.6883C93.4726 57.9307 93.2991 58.4309 93.1868 59.1889H92.2911V47.9268H93.1868C93.6053 50.2849 94.1719 52.0483 94.8814 53.2197C95.5908 54.3911 96.678 55.3634 98.1377 56.1392C99.5975 56.9125 101.203 57.3004 102.946 57.3004C104.964 57.3004 106.559 56.767 107.728 55.7002C108.9 54.6361 109.484 53.3754 109.484 51.9233C109.484 51.1168 109.262 50.3002 108.818 49.4759C108.374 48.6541 107.682 47.886 106.748 47.1765C106.118 46.6916 104.398 45.6632 101.591 44.0886C98.7808 42.514 96.7826 41.2584 95.5959 40.3218C94.4092 39.3852 93.5084 38.3517 92.8959 37.2211C92.2809 36.0906 91.9746 34.8477 91.9746 33.4901C91.9746 31.132 92.878 29.1032 94.6874 27.3984C96.4968 25.6962 98.7961 24.8438 101.591 24.8438C103.334 24.8438 105.184 25.2726 107.136 26.1275C108.04 26.5307 108.678 26.7323 109.05 26.7323C109.469 26.7323 109.813 26.6073 110.079 26.3572C110.344 26.1071 110.558 25.6018 110.722 24.8438H111.61V24.8464Z" fill="#1F4E9E"/>
<path d="M124.592 40.3244C126.208 38.7089 127.159 37.7826 127.45 37.5401C128.178 36.9276 128.961 36.4504 129.798 36.111C130.638 35.7716 131.47 35.6031 132.294 35.6031C133.682 35.6031 134.877 36.0064 135.88 36.8153C136.88 37.6218 137.551 38.7932 137.891 40.3269C139.555 38.3899 140.958 37.1165 142.104 36.5117C143.25 35.9068 144.429 35.6031 145.641 35.6031C146.82 35.6031 147.867 35.9043 148.778 36.5117C149.689 37.1165 150.413 38.1067 150.944 39.4796C151.299 40.4162 151.478 41.8862 151.478 43.887V53.429C151.478 54.8173 151.582 55.7692 151.792 56.2872C151.952 56.6419 152.251 56.9456 152.687 57.1957C153.124 57.4458 153.833 57.5709 154.818 57.5709V58.4411H143.87V57.5683H144.329C145.281 57.5683 146.024 57.382 146.557 57.012C146.93 56.7542 147.195 56.3408 147.356 55.7768C147.42 55.5037 147.453 54.7203 147.453 53.429V43.887C147.453 42.0776 147.236 40.8041 146.8 40.0615C146.169 39.0279 145.161 38.5124 143.773 38.5124C142.918 38.5124 142.058 38.7268 141.193 39.153C140.328 39.5817 139.284 40.3754 138.057 41.5391L138.008 41.8045L138.057 42.8458V53.429C138.057 54.9474 138.141 55.8917 138.312 56.2617C138.48 56.6343 138.799 56.9431 139.269 57.1932C139.736 57.4433 140.537 57.5683 141.668 57.5683V58.4411H130.454V57.5683C131.682 57.5683 132.524 57.4229 132.986 57.1319C133.445 56.841 133.764 56.4046 133.943 55.8253C134.024 55.5522 134.063 54.7509 134.063 53.4264V43.8844C134.063 42.075 133.797 40.7761 133.264 39.9849C132.552 38.9514 131.559 38.4333 130.286 38.4333C129.413 38.4333 128.55 38.6681 127.695 39.1351C126.356 39.8471 125.322 40.6459 124.595 41.534V53.4264C124.595 54.8785 124.694 55.8253 124.898 56.2591C125.1 56.6955 125.399 57.0222 125.794 57.2391C126.19 57.456 126.994 57.5658 128.203 57.5658V58.4411H117.232V57.5683C118.25 57.5683 118.96 57.4586 119.363 57.2417C119.766 57.0247 120.073 56.6777 120.284 56.2004C120.494 55.7258 120.598 54.7994 120.598 53.429V44.9512C120.598 42.514 120.524 40.9394 120.379 40.2299C120.266 39.6966 120.088 39.3291 119.845 39.1275C119.603 38.9259 119.271 38.8238 118.853 38.8238C118.401 38.8238 117.86 38.9463 117.23 39.1887L116.867 38.3159L123.551 35.6031H124.592V40.3244Z" fill="#1F4E9E"/>
<path d="M169.154 55.2434C166.878 57.0043 165.449 58.0226 164.867 58.2957C163.994 58.6989 163.068 58.9005 162.083 58.9005C160.549 58.9005 159.286 58.3773 158.293 57.3259C157.3 56.277 156.803 54.8964 156.803 53.184C156.803 52.1019 157.045 51.1653 157.53 50.3742C158.191 49.2768 159.342 48.2433 160.98 47.2735C162.619 46.3037 165.344 45.1273 169.154 43.739V42.8662C169.154 40.6536 168.802 39.1351 168.101 38.3134C167.399 37.4916 166.375 37.0782 165.036 37.0782C164.017 37.0782 163.211 37.3513 162.614 37.9C162.001 38.4486 161.692 39.079 161.692 39.7884L161.741 41.1946C161.741 41.9372 161.552 42.5114 161.172 42.9147C160.792 43.3204 160.296 43.5195 159.681 43.5195C159.084 43.5195 158.594 43.3102 158.217 42.8891C157.836 42.4706 157.647 41.8964 157.647 41.1691C157.647 39.7808 158.357 38.5048 159.778 37.3411C161.2 36.1799 163.193 35.598 165.76 35.598C167.73 35.598 169.346 35.9298 170.604 36.5908C171.556 37.091 172.258 37.8744 172.712 38.9386C173.003 39.6328 173.148 41.0542 173.148 43.2005V50.734C173.148 52.8497 173.189 54.1461 173.268 54.6208C173.347 55.098 173.483 55.417 173.666 55.5778C173.853 55.7385 174.067 55.8202 174.31 55.8202C174.567 55.8202 174.794 55.7641 174.988 55.6518C175.328 55.4425 175.981 54.853 176.951 53.8832V55.2383C175.142 57.6602 173.416 58.8724 171.768 58.8724C170.977 58.8724 170.346 58.5993 169.879 58.0507C169.415 57.5045 169.172 56.5679 169.154 55.2434ZM169.154 53.6689V45.2166C166.715 46.1863 165.143 46.8728 164.431 47.2761C163.155 47.9881 162.244 48.7282 161.695 49.504C161.146 50.2798 160.871 51.127 160.871 52.0483C160.871 53.2095 161.218 54.1741 161.912 54.9423C162.606 55.7079 163.405 56.0933 164.311 56.0933C165.538 56.0907 167.154 55.2843 169.154 53.6689Z" fill="#1F4E9E"/>
<path d="M185.092 35.6006V40.5898C186.95 37.2645 188.854 35.6006 190.809 35.6006C191.697 35.6006 192.432 35.8711 193.014 36.4121C193.595 36.9532 193.886 37.5784 193.886 38.2904C193.886 38.9208 193.677 39.4516 193.256 39.888C192.835 40.3244 192.335 40.5413 191.755 40.5413C191.189 40.5413 190.556 40.2631 189.854 39.7068C189.152 39.1504 188.632 38.8697 188.292 38.8697C188.001 38.8697 187.688 39.0305 187.348 39.3546C186.621 40.0181 185.87 41.1078 185.095 42.6237V53.2554C185.095 54.4829 185.248 55.4119 185.554 56.0422C185.763 56.4786 186.136 56.841 186.669 57.1319C187.203 57.4229 187.968 57.5683 188.971 57.5683V58.4411H177.612V57.5683C178.743 57.5683 179.582 57.3897 180.131 57.035C180.534 56.7772 180.818 56.3638 180.978 55.7998C181.06 55.5267 181.098 54.7432 181.098 53.4519V44.8542C181.098 42.2716 181.045 40.7327 180.94 40.2401C180.835 39.7476 180.641 39.3903 180.358 39.1632C180.075 38.9386 179.725 38.8238 179.304 38.8238C178.804 38.8238 178.237 38.9463 177.61 39.1887L177.367 38.3159L184.076 35.6031H185.092V35.6006Z" fill="#1F4E9E"/>
<path d="M201.563 28.9653V36.2565H206.746V37.951H201.563V52.3367C201.563 53.7735 201.769 54.7432 202.18 55.2434C202.591 55.7436 203.119 55.9937 203.765 55.9937C204.298 55.9937 204.814 55.8279 205.317 55.4961C205.817 55.1643 206.205 54.6769 206.478 54.0312H207.422C206.858 55.6135 206.057 56.8053 205.023 57.6041C203.99 58.4028 202.923 58.8035 201.826 58.8035C201.083 58.8035 200.356 58.5968 199.646 58.1859C198.934 57.775 198.411 57.1855 198.072 56.4174C197.732 55.6518 197.564 54.4676 197.564 52.8701V37.951H194.055V37.1522C194.943 36.7975 195.851 36.1952 196.78 35.3479C197.709 34.5007 198.536 33.4952 199.263 32.3315C199.633 31.719 200.151 30.5961 200.812 28.9653H201.563Z" fill="#1F4E9E"/>
<path d="M117.301 93.8044L118.1 93.9728L115.29 102.884H89.859V101.989H91.0942C92.4825 101.989 93.4752 101.537 94.0724 100.631C94.4118 100.116 94.5802 98.9212 94.5802 97.0454V75.8535C94.5802 73.8042 94.3531 72.5206 93.9014 72.0025C93.271 71.2931 92.3345 70.9358 91.0916 70.9358H89.8564V70.04H104.727V70.9358C102.984 70.9205 101.759 71.0812 101.057 71.4207C100.355 71.7601 99.8731 72.1888 99.6153 72.7043C99.3576 73.2224 99.2274 74.4576 99.2274 76.4099V97.0454C99.2274 98.3852 99.3576 99.3065 99.6153 99.8067C99.8093 100.146 100.108 100.396 100.511 100.557C100.914 100.718 102.175 100.799 104.291 100.799H106.69C109.208 100.799 110.977 100.613 111.993 100.243C113.011 99.8705 113.937 99.2147 114.777 98.2679C115.622 97.3287 116.461 95.8383 117.301 93.8044Z" fill="#F36B32"/>
<path d="M124.446 89.0576C124.431 92.3523 125.229 94.9349 126.845 96.8081C128.46 98.6813 130.356 99.6179 132.536 99.6179C133.988 99.6179 135.251 99.2172 136.326 98.4184C137.4 97.6196 138.298 96.2517 139.026 94.3122L139.776 94.7971C139.437 97.0097 138.451 99.0232 136.821 100.84C135.19 102.657 133.146 103.566 130.693 103.566C128.029 103.566 125.748 102.53 123.851 100.455C121.955 98.3801 121.006 95.5908 121.006 92.0869C121.006 88.292 121.978 85.3342 123.925 83.2109C125.87 81.0877 128.312 80.026 131.252 80.026C133.738 80.026 135.782 80.8452 137.38 82.4836C138.977 84.122 139.778 86.3142 139.778 89.0576H124.446ZM124.446 87.6515H134.715C134.634 86.23 134.465 85.2296 134.207 84.6477C133.804 83.7443 133.202 83.0323 132.403 82.5168C131.604 82.0013 130.767 81.7435 129.897 81.7435C128.557 81.7435 127.358 82.2641 126.301 83.3054C125.242 84.3466 124.625 85.7961 124.446 87.6515Z" fill="#F36B32"/>
<path d="M155.303 99.6893C153.027 101.45 151.597 102.468 151.016 102.742C150.143 103.145 149.216 103.346 148.231 103.346C146.698 103.346 145.434 102.823 144.442 101.772C143.449 100.72 142.951 99.3423 142.951 97.6298C142.951 96.5478 143.194 95.6112 143.678 94.8201C144.339 93.7227 145.49 92.6891 147.129 91.7194C148.767 90.7496 151.493 89.5731 155.303 88.1848V87.3121C155.303 85.0995 154.951 83.581 154.249 82.7593C153.547 81.9375 152.524 81.5241 151.184 81.5241C150.166 81.5241 149.359 81.7972 148.762 82.3458C148.15 82.8945 147.841 83.5249 147.841 84.2343L147.889 85.6405C147.889 86.3831 147.7 86.9573 147.32 87.3605C146.94 87.7663 146.445 87.9654 145.83 87.9654C145.233 87.9654 144.743 87.7561 144.365 87.335C143.985 86.9165 143.796 86.3423 143.796 85.615C143.796 84.2267 144.505 82.9507 145.927 81.7869C147.348 80.6258 149.341 80.0439 151.909 80.0439C153.879 80.0439 155.494 80.3757 156.752 81.0367C157.704 81.5368 158.406 82.3203 158.86 83.3845C159.151 84.0786 159.297 85.5001 159.297 87.6464V95.1799C159.297 97.2955 159.338 98.592 159.417 99.0666C159.496 99.5439 159.631 99.8629 159.815 100.024C160.001 100.184 160.216 100.266 160.458 100.266C160.716 100.266 160.943 100.21 161.137 100.098C161.476 99.8884 162.13 99.2989 163.099 98.3291V99.6842C161.29 102.106 159.565 103.318 157.916 103.318C157.125 103.318 156.495 103.045 156.028 102.497C155.561 101.95 155.318 101.014 155.303 99.6893ZM155.303 98.1147V89.6625C152.863 90.6322 151.291 91.3187 150.579 91.7219C149.303 92.4339 148.392 93.174 147.843 93.9498C147.295 94.7257 147.019 95.5729 147.019 96.4942C147.019 97.6554 147.366 98.62 148.06 99.3882C148.754 100.154 149.553 100.539 150.459 100.539C151.687 100.539 153.3 99.7302 155.303 98.1147Z" fill="#F36B32"/>
<path d="M180.417 100.391C179.335 101.522 178.279 102.333 177.245 102.826C176.211 103.318 175.099 103.563 173.902 103.563C171.48 103.563 169.364 102.55 167.558 100.524C165.748 98.4975 164.845 95.8945 164.845 92.7121C164.845 89.5323 165.845 86.6205 167.848 83.9817C169.852 81.3429 172.427 80.0235 175.573 80.0235C177.528 80.0235 179.141 80.6462 180.417 81.889V77.7956C180.417 75.2615 180.356 73.7022 180.236 73.1203C180.116 72.5384 179.925 72.1429 179.667 71.9336C179.409 71.7244 179.085 71.6197 178.697 71.6197C178.279 71.6197 177.72 71.7499 177.025 72.0076L176.712 71.1604L183.324 68.4476H184.414V94.0953C184.414 96.6958 184.475 98.2832 184.595 98.8548C184.715 99.429 184.909 99.8271 185.177 100.054C185.442 100.279 185.753 100.394 186.108 100.394C186.545 100.394 187.126 100.258 187.851 99.9828L188.117 100.83L181.53 103.566H180.415V100.391H180.417ZM180.417 98.6966V87.2661C180.32 86.1688 180.029 85.1658 179.544 84.2624C179.059 83.359 178.419 82.6776 177.62 82.2157C176.821 81.7563 176.043 81.5266 175.282 81.5266C173.861 81.5266 172.595 82.1646 171.48 83.4407C170.01 85.1199 169.275 87.5749 169.275 90.8032C169.275 94.0647 169.984 96.5631 171.406 98.2985C172.827 100.034 174.41 100.902 176.153 100.902C177.625 100.902 179.047 100.167 180.417 98.6966Z" fill="#F36B32"/>
<path d="M197.202 80.049V97.8749C197.202 99.2631 197.301 100.187 197.505 100.646C197.707 101.106 198.006 101.45 198.401 101.675C198.797 101.902 199.519 102.014 200.568 102.014V102.887H189.791V102.014C190.873 102.014 191.6 101.91 191.97 101.7C192.34 101.491 192.636 101.144 192.853 100.659C193.07 100.174 193.18 99.2478 193.18 97.8749V89.3256C193.18 86.9191 193.108 85.3623 192.963 84.6529C192.85 84.1374 192.672 83.7775 192.429 83.5759C192.187 83.3743 191.855 83.2722 191.437 83.2722C190.985 83.2722 190.436 83.3947 189.791 83.6372L189.451 82.7644L196.135 80.0516H197.202V80.049ZM195.193 68.4476C195.872 68.4476 196.449 68.6849 196.926 69.1621C197.403 69.6394 197.641 70.2161 197.641 70.895C197.641 71.5738 197.403 72.1531 196.926 72.638C196.449 73.1229 195.872 73.3653 195.193 73.3653C194.514 73.3653 193.935 73.1229 193.45 72.638C192.965 72.1531 192.723 71.5738 192.723 70.895C192.723 70.2161 192.96 69.6394 193.437 69.1621C193.912 68.6849 194.499 68.4476 195.193 68.4476Z" fill="#F36B32"/>
<path d="M209.796 84.7473C212.394 81.616 214.875 80.049 217.233 80.049C218.445 80.049 219.486 80.3502 220.356 80.9575C221.229 81.5624 221.923 82.5602 222.439 83.9485C222.793 84.9183 222.972 86.4035 222.972 88.4043V97.8748C222.972 99.2785 223.084 100.233 223.311 100.733C223.49 101.136 223.776 101.453 224.172 101.677C224.567 101.904 225.297 102.017 226.364 102.017V102.89H215.393V102.017H215.852C216.886 102.017 217.608 101.859 218.019 101.545C218.429 101.231 218.718 100.766 218.879 100.151C218.942 99.9088 218.976 99.1509 218.976 97.8748V88.7922C218.976 86.7736 218.713 85.3087 218.19 84.3977C217.664 83.484 216.781 83.0298 215.538 83.0298C213.616 83.0298 211.702 84.0812 209.799 86.179V97.8774C209.799 99.378 209.888 100.307 210.064 100.662C210.291 101.131 210.6 101.473 210.998 101.69C211.394 101.907 212.197 102.017 213.407 102.017V102.89H202.436V102.017H202.921C204.051 102.017 204.814 101.731 205.21 101.157C205.606 100.583 205.805 99.4903 205.805 97.8748V89.6395C205.805 86.9752 205.743 85.3521 205.623 84.7703C205.504 84.1884 205.317 83.7928 205.067 83.5836C204.817 83.3743 204.483 83.2697 204.062 83.2697C203.61 83.2697 203.069 83.3922 202.439 83.6346L202.076 82.7618L208.755 80.049H209.796V84.7473Z" fill="#F36B32"/>
<path d="M234.065 94.7971C232.707 94.1336 231.666 93.2098 230.941 92.0231C230.214 90.8364 229.851 89.5247 229.851 88.0879C229.851 85.8931 230.678 84.0047 232.335 82.4198C233.991 80.8376 236.109 80.0465 238.692 80.0465C240.807 80.0465 242.64 80.562 244.189 81.5956H248.887C249.581 81.5956 249.984 81.616 250.099 81.6568C250.211 81.6976 250.293 81.7665 250.342 81.8635C250.439 82.009 250.487 82.2667 250.487 82.6393C250.487 83.0604 250.446 83.3513 250.367 83.5121C250.319 83.5938 250.234 83.6576 250.112 83.7061C249.992 83.7546 249.584 83.7775 248.89 83.7775H246.008C246.912 84.9387 247.366 86.4265 247.366 88.2333C247.366 90.3005 246.575 92.069 244.993 93.5364C243.41 95.0064 241.287 95.7414 238.623 95.7414C237.525 95.7414 236.402 95.5806 235.257 95.2565C234.547 95.869 234.065 96.4074 233.815 96.8668C233.565 97.3262 233.44 97.7192 233.44 98.0407C233.44 98.3164 233.572 98.5818 233.84 98.8395C234.106 99.0973 234.626 99.2836 235.402 99.3959C235.854 99.4622 236.984 99.5183 238.794 99.5668C242.119 99.6485 244.275 99.7608 245.261 99.9063C246.761 100.116 247.961 100.674 248.856 101.578C249.752 102.481 250.201 103.596 250.201 104.921C250.201 106.746 249.346 108.456 247.634 110.056C245.115 112.414 241.831 113.593 237.775 113.593C234.659 113.593 232.028 112.891 229.88 111.485C228.667 110.678 228.062 109.839 228.062 108.966C228.062 108.578 228.152 108.19 228.328 107.805C228.601 107.208 229.168 106.376 230.022 105.309C230.135 105.163 230.959 104.291 232.493 102.693C231.653 102.193 231.059 101.744 230.711 101.348C230.364 100.953 230.191 100.506 230.191 100.003C230.191 99.4392 230.421 98.7757 230.88 98.0178C231.339 97.2598 232.401 96.1854 234.065 94.7971ZM233.822 102.887C233.064 103.711 232.49 104.477 232.102 105.186C231.714 105.898 231.52 106.552 231.52 107.149C231.52 107.925 231.99 108.601 232.924 109.183C234.54 110.183 236.872 110.683 239.924 110.683C242.831 110.683 244.975 110.17 246.355 109.145C247.736 108.119 248.425 107.026 248.425 105.863C248.425 105.023 248.014 104.426 247.19 104.071C246.35 103.716 244.686 103.507 242.201 103.441C238.569 103.346 235.775 103.16 233.822 102.887ZM238.278 81.2102C237.084 81.2102 236.083 81.6874 235.274 82.6393C234.466 83.5938 234.062 85.0535 234.062 87.0237C234.062 89.5757 234.611 91.5535 235.708 92.9571C236.548 94.0239 237.612 94.5572 238.906 94.5572C240.134 94.5572 241.142 94.0953 241.933 93.1766C242.724 92.2553 243.119 90.8109 243.119 88.8407C243.119 86.2734 242.563 84.2624 241.448 82.8103C240.629 81.7436 239.57 81.2102 238.278 81.2102Z" fill="#F36B32"/>
<path d="M46.5615 50.8948C46.5615 50.8948 104.515 100.81 42.0342 138.439C42.0342 138.439 83.6295 108.121 46.5615 50.8948Z" fill="#1F4E9E"/>
<path d="M53.6609 102.374C53.7451 102.961 56.5038 123.219 36.0928 132.705C35.9678 132.763 35.8427 132.822 35.7126 132.881C35.5059 132.975 35.2941 133.067 35.0822 133.156C35.1384 133.123 35.5314 132.871 36.1286 132.355C39.4283 129.515 48.9244 118.707 41.3219 92.9393L37.0039 80.1179C35.021 74.2304 32.9156 68.371 30.5983 62.5703C28.8094 58.0966 26.3926 50.535 26.1196 41.825C25.701 28.5979 31.8846 15.6923 43.1772 6.25497C46.5586 3.42989 50.3535 0.98251 54.1305 -1.52588e-05C54.1305 -1.52588e-05 29.9195 19.8317 39.0123 48.4704L41.5873 57.1549C43.486 63.5528 45.5047 69.9175 47.6586 76.2593C49.8712 82.7695 53.0433 93.4037 53.6609 102.361C53.6583 102.361 53.6583 102.364 53.6609 102.374Z" fill="#F36B32"/>
<path d="M23.6239 35.3913C23.6239 35.3913 0.752733 41.0134 14.0947 47.8758C14.0947 47.8758 26.2933 53.8807 39.255 56.1673L71.6579 62.8382C71.6579 62.8382 53.36 61.8863 38.6833 59.1225C38.6833 59.1225 17.813 55.3098 11.2364 51.9743C11.2364 51.9743 -6.20406 45.875 2.37326 39.7757C2.37326 39.7757 8.567 35.6771 23.6239 35.3913Z" fill="#1F4E9E"/>
<path d="M32.201 70.3207C32.201 70.3207 9.32988 75.9428 22.6718 82.8052C22.6718 82.8052 34.8704 88.8101 47.8321 91.0967L80.2351 97.7677C80.2351 97.7677 61.9371 96.8158 47.2605 94.0519C47.2605 94.0519 26.3901 90.2392 19.8136 86.9037C19.8136 86.9037 2.37309 80.8044 10.9504 74.7051C10.9479 74.7051 17.1441 70.6066 32.201 70.3207Z" fill="#1F4E9E"/>
</g>
<defs>
<clipPath id="clip0_15657_464">
<rect width="250.485" height="138.439" fill="white"/>
</clipPath>
</defs>
</svg>
