<svg width="60" height="60" viewBox="0 0 60 60" fill="none" xmlns="http://www.w3.org/2000/svg">
<path d="M40.071 60.0008C39.8087 60.0008 39.5446 59.9779 39.2823 59.9308C30.2512 58.3051 21.2486 53.3822 13.9336 46.0672C6.61868 38.7523 1.69576 29.7497 0.070075 20.7185C-0.236213 19.0141 0.478045 17.2415 1.88982 16.2024C3.69778 14.8718 5.64587 13.6349 7.6789 12.5281C9.02682 11.7947 10.6159 11.7537 11.9328 12.4172C16.4348 14.6864 19.4189 18.466 20.8021 23.6506C21.1773 25.0537 20.8431 26.5752 19.9087 27.7198L16.9258 31.3698C16.4478 31.9551 16.3895 32.7623 16.7813 33.3786C19.3191 37.3715 22.6293 40.6818 26.6222 43.2189C27.2379 43.6114 28.0452 43.5525 28.6311 43.0751L32.2805 40.0928C33.4257 39.1578 34.9453 38.8242 36.3509 39.1987C41.5348 40.5826 45.3144 43.5667 47.5837 48.0687C48.2477 49.3843 48.2068 50.974 47.4733 52.322C46.366 54.355 45.1291 56.3031 43.7979 58.111C42.9193 59.3052 41.515 60.0008 40.071 60.0008ZM9.93638 14.8036C9.63815 14.8036 9.33062 14.8817 9.04541 15.0373C7.12523 16.0827 5.28812 17.2489 3.5837 18.5032C3.04243 18.9019 2.76714 19.5728 2.88246 20.2126C4.40522 28.6758 9.04727 37.1403 15.9536 44.0472C22.8606 50.9536 31.325 55.5956 39.7882 57.1184C40.4293 57.2331 41.099 56.9578 41.497 56.4172C42.7519 54.7127 43.9182 52.8756 44.9641 50.9554C45.2487 50.4321 45.2748 49.8338 45.033 49.3552C43.119 45.5588 40.0381 43.1395 35.6137 41.959C35.0954 41.8214 34.5237 41.9497 34.0878 42.3056L30.439 45.2873C28.8971 46.5471 26.7462 46.6848 25.0895 45.6301C20.7408 42.8667 17.1341 39.2601 14.3701 34.9113C13.3161 33.2534 13.4537 31.1032 14.7136 29.5618L17.6959 25.9124C18.0511 25.4772 18.1807 24.9074 18.0418 24.3878C16.8613 19.9627 14.442 16.8819 10.6463 14.9679C10.428 14.8582 10.1856 14.8036 9.93638 14.8036Z" fill="white"/>
<path d="M58.5491 31.5009C58.5286 31.5009 58.5081 31.5002 58.4883 31.4996C57.6996 31.4668 57.0877 30.8009 57.1205 30.0128C57.4256 22.7332 54.656 15.6136 49.5223 10.4786C44.3879 5.3449 37.2832 2.56103 29.9881 2.88034C29.2292 2.90018 28.5341 2.30187 28.5013 1.51259C28.4684 0.72455 29.0804 0.0586536 29.8684 0.0257929C37.9453 -0.316456 45.8437 2.76068 51.5423 8.45862C57.2402 14.1566 60.3136 22.0568 59.9751 30.1325C59.9429 30.9001 59.3104 31.5009 58.5491 31.5009Z" fill="white"/>
<path d="M50.9483 31.5009C50.9204 31.5009 50.8919 31.5003 50.8634 31.4985C50.0753 31.452 49.4745 30.7761 49.521 29.9887C49.8311 24.7217 47.8755 19.5669 44.1548 15.8462C40.4341 12.1255 35.2762 10.1749 30.0123 10.4799C29.2205 10.5326 28.549 9.92565 28.5025 9.13761C28.456 8.35019 29.0568 7.67438 29.8449 7.62787C35.9185 7.2664 41.8781 9.52884 46.1748 13.8262C50.4722 18.1235 52.7315 24.0756 52.3731 30.1561C52.3285 30.9156 51.6992 31.5009 50.9483 31.5009Z" fill="white"/>
<path d="M43.3562 31.5008C43.3116 31.5008 43.267 31.4989 43.2217 31.4946C42.4361 31.4214 41.8589 30.7251 41.9321 29.9396C42.2346 26.6957 41.0888 23.515 38.7873 21.2135C36.4858 18.9126 33.3077 17.7656 30.0613 18.0688C29.2763 18.1401 28.5788 17.5647 28.5063 16.7791C28.4331 15.9936 29.0103 15.2973 29.7959 15.2241C33.8929 14.8428 37.9032 16.2893 40.8074 19.1935C43.7121 22.0976 45.1586 26.1116 44.7767 30.205C44.7079 30.9453 44.0854 31.5008 43.3562 31.5008Z" fill="white"/>
</svg>
