<svg width="32" height="30" viewBox="0 0 32 30" fill="none" xmlns="http://www.w3.org/2000/svg">
<path d="M12.6232 29.9447C10.8505 29.9447 9.4082 28.5024 9.4082 26.7297C9.4082 24.9569 10.8505 23.5151 12.6232 23.5151C14.3959 23.5151 15.8382 24.9569 15.8382 26.7297C15.8382 28.5024 14.3959 29.9447 12.6232 29.9447ZM12.6232 25.533C11.9634 25.533 11.4261 26.0698 11.4261 26.7297C11.4261 27.39 11.9629 27.9268 12.6232 27.9268C13.2836 27.9268 13.8203 27.39 13.8203 26.7297C13.8203 26.0698 13.2836 25.533 12.6232 25.533Z" fill="#F36B32"/>
<path d="M23.7995 29.9447C22.0268 29.9447 20.585 28.5024 20.585 26.7297C20.585 24.9569 22.0268 23.5151 23.7995 23.5151C25.5722 23.5151 27.0145 24.9569 27.0145 26.7297C27.0145 28.5024 25.5717 29.9447 23.7995 29.9447ZM23.7995 25.533C23.1396 25.533 22.6029 26.0698 22.6029 26.7297C22.6029 27.39 23.1396 27.9268 23.7995 27.9268C24.4598 27.9268 24.9966 27.39 24.9966 26.7297C24.9966 26.0698 24.4593 25.533 23.7995 25.533Z" fill="#F36B32"/>
<path d="M26.154 21.023H10.3039C8.76172 21.023 7.44454 19.9732 7.10048 18.4698L3.8108 4.1039C3.76742 3.91422 3.63625 3.75178 3.45969 3.67005L0.730982 2.40533C0.0993798 2.11274 -0.175559 1.36309 0.117036 0.730982C0.409632 0.0993798 1.15979 -0.175559 1.79139 0.117036L4.52009 1.38176C5.39939 1.78887 6.0537 2.59603 6.26961 3.54091L9.55929 17.9079C9.639 18.2569 9.94522 18.5011 10.3039 18.5011H26.154C26.5112 18.5011 26.8169 18.2585 26.8986 17.9104L29.4563 6.90626C29.5294 6.59349 29.3963 6.36597 29.311 6.25851C29.2252 6.15056 29.0335 5.96995 28.7127 5.96995H10.0471C9.35044 5.96995 8.78593 5.40545 8.78593 4.70877C8.78593 4.01209 9.35044 3.44758 10.0471 3.44758H28.7127C29.7211 3.44758 30.6585 3.90009 31.286 4.6896C31.9136 5.4791 32.1416 6.49511 31.9136 7.47733L29.3554 18.4819C29.0068 19.9777 27.6906 21.023 26.154 21.023Z" fill="#F36B32"/>
</svg>
