<svg width="30" height="27" viewBox="0 0 30 27" fill="none" xmlns="http://www.w3.org/2000/svg">
<path d="M0.682369 19.1178C0.291486 19.7956 0.0617101 20.5541 0.0108094 21.3348C-0.0400913 22.1156 0.0892464 22.8975 0.388822 23.6203C0.688397 24.343 1.15018 24.9872 1.73847 25.503C2.32677 26.0187 3.0258 26.3923 3.78152 26.5948C4.53724 26.7973 5.32941 26.8232 6.09676 26.6706C6.86412 26.5181 7.5861 26.191 8.20688 25.7149C8.82767 25.2387 9.33063 24.6261 9.67686 23.9245C10.0231 23.2229 10.2033 22.4511 10.2036 21.6687C10.2041 20.5453 9.83368 19.4531 9.14992 18.5617C8.46617 17.6703 7.5073 17.0295 6.42212 16.7387C5.33694 16.448 4.18614 16.5236 3.14831 16.9538C2.11048 17.3839 1.24366 18.1446 0.682369 19.1178Z" fill="#1F4E9E"/>
<path d="M8.34111 5.85352L2.60156 15.8021C3.51182 15.414 4.4999 15.243 5.48764 15.3027C6.47538 15.3624 7.43567 15.6512 8.29254 16.1461C9.14941 16.6411 9.87935 17.3286 10.4246 18.1544C10.9699 18.9802 11.3155 19.9215 11.4341 20.9039L13.934 16.5673C9.18929 8.36616 8.50054 7.58176 8.34111 5.85352Z" fill="#1F4E9E"/>
<path d="M28.6531 19.1182C28.3279 18.5697 19.0043 2.36507 18.8194 2.12911C18.0519 1.0586 16.9 0.326434 15.605 0.0858417C14.3099 -0.15475 12.972 0.11488 11.8712 0.838303C10.7704 1.56173 9.99207 2.68287 9.6991 3.9671C9.40612 5.25133 9.62121 6.59911 10.2993 7.72836C10.2356 7.72836 9.98048 7.17991 19.8142 24.22C20.1492 24.8004 20.5953 25.3091 21.1268 25.7171C21.6584 26.1251 22.2652 26.4244 22.9124 26.5979C23.5597 26.7714 24.2348 26.8157 24.8992 26.7283C25.5636 26.6409 26.2042 26.4235 26.7846 26.0885C27.365 25.7535 27.8737 25.3075 28.2817 24.7759C28.6897 24.2443 28.989 23.6376 29.1625 22.9903C29.336 22.3431 29.3803 21.668 29.2929 21.0036C29.2055 20.3392 28.9881 19.6985 28.6531 19.1182Z" fill="#1F4E9E"/>
</svg>
