<svg width="28" height="28" viewBox="0 0 28 28" fill="none" xmlns="http://www.w3.org/2000/svg">
<path d="M13.0698 15.415C11.5455 15.415 10.0553 14.963 8.78775 14.1161C7.52026 13.2691 6.53237 12.0654 5.94901 10.657C5.36564 9.24869 5.21301 7.69896 5.51041 6.20385C5.8078 4.70874 6.54188 3.33539 7.61979 2.25748C8.6977 1.17957 10.071 0.445494 11.5661 0.148105C13.0612 -0.149297 14.611 0.00333814 16.0193 0.586709C17.4277 1.17007 18.6314 2.15795 19.4784 3.42544C20.3253 4.69295 20.7773 6.18311 20.7773 7.70751C20.7738 9.75059 19.9606 11.709 18.5159 13.1536C17.0713 14.5983 15.1129 15.4115 13.0698 15.415ZM13.0698 2.01065C11.943 2.01065 10.8417 2.34477 9.90482 2.97075C8.96797 3.59672 8.2378 4.48645 7.8066 5.52742C7.37543 6.56838 7.26261 7.71383 7.48243 8.81892C7.70224 9.924 8.24482 10.9391 9.04153 11.7358C9.83825 12.5325 10.8533 13.0751 11.9585 13.2948C13.0635 13.5147 14.2089 13.4019 15.2499 12.9707C16.2909 12.5395 17.1807 11.8094 17.8065 10.8725C18.4325 9.93567 18.7667 8.83424 18.7667 7.70751C18.7632 6.19769 18.1617 4.75073 17.0942 3.68314C16.0265 2.61554 14.5797 2.01419 13.0698 2.01065Z" fill="#1F4E9E"/>
<path d="M1.00533 26.1384C0.739773 26.135 0.486082 26.028 0.298287 25.8402C0.110506 25.6524 0.00347173 25.3987 0 25.1331C0.0070775 22.0246 1.24506 19.0455 3.44311 16.8475C5.64116 14.6494 8.62032 13.4114 11.7288 13.4043H14.4097C14.6763 13.4043 14.9321 13.5102 15.1205 13.6988C15.3091 13.8873 15.415 14.143 15.415 14.4096C15.415 14.6762 15.3091 14.932 15.1205 15.1205C14.9321 15.3091 14.6763 15.415 14.4097 15.415H11.7288C9.15248 15.4184 6.68269 16.4435 4.86096 18.2653C3.03921 20.087 2.01421 22.5568 2.01065 25.1331C2.00718 25.3987 1.90015 25.6524 1.71237 25.8402C1.52457 26.028 1.27088 26.135 1.00533 26.1384Z" fill="#1F4E9E"/>
<path d="M17.0901 27.4787C16.8319 27.4576 16.5917 27.3376 16.4198 27.1436L11.0581 21.7819C10.9685 21.5942 10.9393 21.3835 10.9744 21.1787C11.0096 20.9737 11.1074 20.7847 11.2545 20.6377C11.4014 20.4908 11.5904 20.3929 11.7953 20.3578C12.0002 20.3227 12.211 20.3519 12.3985 20.4415L16.9962 25.0392L25.7225 15.0797C25.8105 14.9812 25.9171 14.9009 26.0361 14.8435C26.1552 14.786 26.2844 14.7526 26.4163 14.7453C26.5482 14.7378 26.6803 14.7564 26.805 14.8C26.9298 14.8435 27.0448 14.9112 27.1433 14.9993C27.242 15.0874 27.3221 15.1939 27.3797 15.3129C27.437 15.432 27.4704 15.5611 27.4778 15.6931C27.4853 15.825 27.4666 15.9572 27.4231 16.0818C27.3795 16.2066 27.3118 16.3216 27.2238 16.4201L17.8407 27.1436C17.753 27.2481 17.6446 27.3329 17.5224 27.393C17.4 27.4529 17.2665 27.4868 17.1303 27.4921L17.0901 27.4787Z" fill="#1F4E9E"/>
</svg>
