<svg width="39" height="39" viewBox="0 0 39 39" fill="none" xmlns="http://www.w3.org/2000/svg">
<path d="M0.876001 19.25C0.915796 19.2499 0.955545 19.2473 0.995001 19.2421C7.42269 18.37 13.6917 16.5786 19.6098 13.923C25.5862 11.2341 31.1389 7.68866 36.093 3.3985L35.0273 7.66325C34.9711 7.88823 35.0066 8.12628 35.1259 8.32513C35.2452 8.52397 35.4385 8.66734 35.6634 8.72375C35.733 8.74096 35.8043 8.74978 35.876 8.75C36.071 8.74975 36.2604 8.68435 36.414 8.56419C36.5676 8.44402 36.6767 8.27598 36.7239 8.08675L38.4739 1.08675C38.506 0.957862 38.5084 0.823346 38.4808 0.693402C38.4533 0.563458 38.3965 0.441496 38.3148 0.336764C38.2331 0.232031 38.1286 0.147278 38.0092 0.0889298C37.8899 0.0305814 37.7588 0.000169506 37.626 0H30.626C30.3939 0 30.1714 0.0921872 30.0073 0.256282C29.8432 0.420376 29.751 0.642936 29.751 0.875C29.751 1.10706 29.8432 1.32962 30.0073 1.49372C30.1714 1.65781 30.3939 1.75 30.626 1.75H35.3239C30.4037 6.07387 24.8654 9.63884 18.8923 12.327C13.1269 14.9139 7.01968 16.6587 0.757876 17.5079C0.537884 17.5376 0.337409 17.6498 0.197062 17.8218C0.0567152 17.9938 -0.0130117 18.2127 0.00200589 18.4342C0.0170235 18.6557 0.115663 18.8632 0.277943 19.0146C0.440223 19.1661 0.654011 19.2503 0.876001 19.25Z" fill="#1F4E9E"/>
<path d="M37.626 36.75H36.751V13.125C36.751 12.8929 36.6588 12.6704 36.4947 12.5063C36.3306 12.3422 36.108 12.25 35.876 12.25H27.126C26.8939 12.25 26.6714 12.3422 26.5073 12.5063C26.3432 12.6704 26.251 12.8929 26.251 13.125V36.75H24.501V18.375C24.501 18.1429 24.4088 17.9204 24.2447 17.7563C24.0806 17.5922 23.858 17.5 23.626 17.5H14.876C14.6439 17.5 14.4214 17.5922 14.2573 17.7563C14.0932 17.9204 14.001 18.1429 14.001 18.375V36.75H12.251V23.625C12.251 23.3929 12.1588 23.1704 11.9947 23.0063C11.8306 22.8422 11.608 22.75 11.376 22.75H2.62598C2.39391 22.75 2.17135 22.8422 2.00726 23.0063C1.84316 23.1704 1.75098 23.3929 1.75098 23.625V36.75H0.875977C0.643912 36.75 0.421352 36.8422 0.257258 37.0063C0.0931638 37.1704 0.000976563 37.3929 0.000976562 37.625C0.000976563 37.8571 0.0931638 38.0796 0.257258 38.2437C0.421352 38.4078 0.643912 38.5 0.875977 38.5H37.626C37.858 38.5 38.0806 38.4078 38.2447 38.2437C38.4088 38.0796 38.501 37.8571 38.501 37.625C38.501 37.3929 38.4088 37.1704 38.2447 37.0063C38.0806 36.8422 37.858 36.75 37.626 36.75ZM28.001 14H35.001V36.75H28.001V14ZM15.751 19.25H22.751V36.75H15.751V19.25ZM3.50098 24.5H10.501V36.75H3.50098V24.5Z" fill="#1F4E9E"/>
</svg>
