<svg width="32" height="36" viewBox="0 0 32 36" fill="none" xmlns="http://www.w3.org/2000/svg">
<path d="M20.4269 16.6326C20.8099 16.6326 21.1204 16.3221 21.1204 15.9391C21.1204 15.5561 20.8099 15.2456 20.4269 15.2456C20.0439 15.2456 19.7334 15.5561 19.7334 15.9391C19.7334 16.3221 20.0439 16.6326 20.4269 16.6326Z" fill="#1F4E9E"/>
<path d="M29.9197 18.1118H29.7844V16.5583C29.7844 9.60527 24.6094 3.8392 17.909 2.90681C18.0191 2.65336 18.0805 2.37403 18.0805 2.08051C18.0806 0.933293 17.1473 0 16.0001 0C14.853 0 13.9196 0.933293 13.9196 2.08051C13.9196 2.37403 13.981 2.65336 14.0912 2.90681C7.39076 3.8392 2.21582 9.60527 2.21582 16.5583V18.1118H2.08051C0.933362 18.1118 0 19.0451 0 20.1923C0 21.3395 0.933293 22.2728 2.08051 22.2728H8.99574C8.93712 22.4113 8.8913 22.5571 8.86085 22.7092L8.26509 25.6877C6.44142 26.6878 6.16686 28.6556 6.13862 29.5261L4.01617 30.9211C3.6868 31.1375 3.60562 31.6019 3.84273 31.9174L6.28113 35.1609C6.50107 35.4534 6.92498 35.5233 7.22729 35.3163L11.8873 32.1252C14.4423 31.221 15.6332 29.4356 16.3071 28.0972C17.06 27.5821 20.5117 25.2325 22.8138 23.8668C23.3807 23.5305 23.6728 22.9085 23.5832 22.2727H29.9195C31.0666 22.2727 32 21.3394 32 20.1922C32 19.045 31.0668 18.1118 29.9197 18.1118ZM15.3066 2.08051C15.3066 1.69813 15.6177 1.38703 16.0001 1.38703C16.3825 1.38703 16.6936 1.69813 16.6936 2.08051C16.6936 2.4629 16.3825 2.77399 16.0001 2.77399C15.6177 2.77399 15.3066 2.4629 15.3066 2.08051ZM3.60278 16.5583C3.60278 9.72237 9.16419 4.16096 16.0001 4.16096C22.4242 4.16096 27.7222 9.07263 28.3373 15.3378H23.5592C23.1762 15.3378 22.8657 15.6482 22.8657 16.0312C22.8657 16.4143 23.1762 16.7247 23.5592 16.7247H28.3974V18.1117H3.60278V16.5583ZM22.2041 22.4318C22.2329 22.5368 22.2 22.6183 22.1063 22.6739C19.4825 24.2304 15.4136 27.0281 15.3727 27.0562C15.2741 27.124 15.1947 27.2164 15.1424 27.324C14.2443 29.1695 13.0741 30.2552 11.3481 30.8443C11.2886 30.8646 6.99122 33.797 6.99122 33.797L5.39545 31.6744L7.21649 30.4774C7.42814 30.3383 7.54711 30.0948 7.52683 29.8423C7.52503 29.8198 7.36633 27.5781 9.15665 26.7935C9.36393 26.7026 9.51391 26.5163 9.55827 26.2943L10.2209 22.981C10.303 22.5706 10.6664 22.2727 11.085 22.2727C11.3464 22.2727 11.584 22.3821 11.7541 22.5806C11.9242 22.7791 11.9958 23.0308 11.9556 23.2891C11.9549 23.2937 11.9542 23.2983 11.9536 23.3029L11.6252 25.74C11.5902 26.0002 11.7051 26.2579 11.9221 26.4057C12.139 26.5535 12.4209 26.5661 12.6502 26.4383L20.1218 22.2726H21.9955C22.105 22.2727 22.1751 22.3262 22.2041 22.4318ZM13.1745 22.2727H17.2736L13.1849 24.5523L13.3274 23.4945C13.391 23.076 13.3354 22.6541 13.1745 22.2727ZM29.9197 20.8858H2.08051C1.69813 20.8858 1.38703 20.5747 1.38703 20.1923C1.38703 19.8099 1.69813 19.4988 2.08051 19.4988H29.9196C30.302 19.4988 30.6131 19.8099 30.6131 20.1923C30.6131 20.5747 30.3021 20.8858 29.9197 20.8858Z" fill="#1F4E9E"/>
<path d="M11.229 7.08657C9.06705 8.0962 7.36546 9.96126 6.56048 12.2035C6.43113 12.564 6.61841 12.9612 6.97885 13.0906C7.0563 13.1183 7.13534 13.1316 7.21313 13.1316C7.49751 13.1316 7.76425 12.9552 7.86591 12.6722C8.5468 10.7754 9.9865 9.1976 11.8159 8.34328C12.1629 8.18119 12.3128 7.76856 12.1508 7.42147C11.9887 7.07439 11.576 6.92448 11.229 7.08657Z" fill="#1F4E9E"/>
</svg>
