<svg width="17" height="22" viewBox="0 0 17 22" fill="none" xmlns="http://www.w3.org/2000/svg">
<path d="M16.7386 7.17633C16.5904 6.89804 16.3025 6.72519 15.9872 6.72519H13.5692C13.3673 5.58978 12.3737 4.72466 11.1811 4.72466C9.9886 4.72466 8.99498 5.58978 8.7931 6.72519H6.34331C6.53544 6.43115 6.64764 6.08034 6.64764 5.70364C6.64764 4.67095 5.80751 3.83081 4.77481 3.83081C3.74212 3.83081 2.90198 4.67095 2.90198 5.70364C2.90198 6.08034 3.01418 6.43115 3.20632 6.72519H1.20894C0.893668 6.72519 0.605805 6.89804 0.457596 7.17633C0.30943 7.45457 0.326626 7.78993 0.502544 8.05153L6.21451 16.5455V21.3673C6.21451 21.5108 6.28683 21.6447 6.4069 21.7233C6.47726 21.7694 6.55851 21.793 6.64019 21.793C6.69783 21.793 6.75567 21.7813 6.81011 21.7576L10.726 20.0523C10.8813 19.9847 10.9817 19.8314 10.9817 19.6621V16.5455L16.6936 8.05149C16.8696 7.78993 16.8868 7.45457 16.7386 7.17633ZM11.1811 5.57595C11.902 5.57595 12.5109 6.06301 12.6971 6.72519H9.6652C9.85138 6.06301 10.4603 5.57595 11.1811 5.57595ZM4.77485 4.6821C5.33811 4.6821 5.7964 5.14039 5.7964 5.70364C5.7964 6.2669 5.33811 6.72519 4.77485 6.72519C4.2116 6.72519 3.75331 6.2669 3.75331 5.70364C3.75331 5.14039 4.2116 4.6821 4.77485 4.6821ZM10.2028 16.1781C10.1556 16.2483 10.1304 16.331 10.1304 16.4156V19.3832L7.06575 20.7177V16.8413H8.60347C8.83856 16.8413 9.02912 16.6507 9.02912 16.4156C9.02912 16.1806 8.83856 15.99 8.60347 15.99H6.86681L2.583 9.61956H11.1811C11.4162 9.61956 11.6068 9.429 11.6068 9.19392C11.6068 8.95884 11.4162 8.76827 11.1811 8.76827H2.01056L1.20911 7.57647H15.9872L10.2028 16.1781Z" fill="white"/>
<path d="M10.0506 0C9.01787 0 8.17773 0.840135 8.17773 1.87283C8.17773 2.90553 9.01791 3.74566 10.0506 3.74566C11.0833 3.74566 11.9234 2.90553 11.9234 1.87283C11.9234 0.840135 11.0833 0 10.0506 0ZM10.0506 2.89438C9.48731 2.89438 9.02902 2.43609 9.02902 1.87283C9.02902 1.30958 9.48731 0.851287 10.0506 0.851287C10.6138 0.851287 11.0721 1.30958 11.0721 1.87283C11.0721 2.43609 10.6138 2.89438 10.0506 2.89438Z" fill="white"/>
<path d="M14.6004 2.05725C14.3654 2.05725 14.1748 2.24781 14.1748 2.48289V4.902C14.1748 5.13712 14.3654 5.32768 14.6004 5.32768C14.8355 5.32768 15.0261 5.13712 15.0261 4.90204V2.48289C15.0261 2.24781 14.8355 2.05725 14.6004 2.05725Z" fill="white"/>
<path d="M14.9014 0.784382C14.8222 0.705212 14.7124 0.659668 14.6004 0.659668C14.4885 0.659668 14.3787 0.705212 14.2995 0.784382C14.2203 0.863551 14.1748 0.973367 14.1748 1.08531C14.1748 1.19726 14.2203 1.30707 14.2995 1.38624C14.3787 1.46541 14.4885 1.51095 14.6004 1.51095C14.7124 1.51095 14.8222 1.46541 14.9014 1.38624C14.9805 1.30707 15.0261 1.19726 15.0261 1.08531C15.0261 0.973367 14.9805 0.863551 14.9014 0.784382Z" fill="white"/>
<path d="M6.22154 0.542908C5.98646 0.542908 5.7959 0.733468 5.7959 0.968551V2.71369C5.7959 2.94877 5.98646 3.13933 6.22154 3.13933C6.45662 3.13933 6.64719 2.94877 6.64719 2.71369V0.968551C6.64719 0.733468 6.45662 0.542908 6.22154 0.542908Z" fill="white"/>
<path d="M0.425643 0C0.190561 0 0 0.190561 0 0.425643V3.19948C0 3.43456 0.190561 3.62512 0.425643 3.62512C0.660726 3.62512 0.851287 3.43456 0.851287 3.19948V0.425643C0.851287 0.190561 0.660726 0 0.425643 0Z" fill="white"/>
<path d="M0.726573 4.49483C0.647404 4.41524 0.537588 4.37012 0.425643 4.37012C0.313699 4.37012 0.203883 4.41524 0.124714 4.49483C0.0455439 4.574 0 4.68339 0 4.79576C0 4.9077 0.0455439 5.01752 0.124714 5.09669C0.203883 5.17586 0.313699 5.2214 0.425643 5.2214C0.537588 5.2214 0.647404 5.17586 0.726573 5.09669C0.805743 5.01752 0.851287 4.9077 0.851287 4.79576C0.851287 4.68339 0.805743 4.574 0.726573 4.49483Z" fill="white"/>
<path d="M13.374 8.89302C13.2949 8.81385 13.185 8.76831 13.0731 8.76831C12.9607 8.76831 12.8509 8.81385 12.7722 8.89302C12.6926 8.97219 12.6475 9.08201 12.6475 9.19395C12.6475 9.3059 12.6926 9.41571 12.7722 9.49488C12.8513 9.57405 12.9607 9.6196 13.0731 9.6196C13.185 9.6196 13.2944 9.57405 13.374 9.49488C13.4532 9.41571 13.4987 9.3059 13.4987 9.19395C13.4987 9.08201 13.4532 8.97219 13.374 8.89302Z" fill="white"/>
</svg>
