<svg width="197" height="105" viewBox="0 0 197 105" fill="none" xmlns="http://www.w3.org/2000/svg">
<path d="M194.249 104.326V2.38501L175.863 7.78152L154.802 27.827L134.65 20.9792L121.937 35.1883L111.189 37.4267L98.7249 52.2938L80.2585 42.6008L63.6331 59.8273L47.1525 49.7225L29.5674 72.1496L19.8059 68.4575L0.763209 88.3011L0 104.326H194.249Z" fill="url(#paint0_linear_15578_85)"/>
<path d="M0.827148 88.3105L19.818 68.4563L29.6011 72.197L47.1533 49.7532L63.5546 59.8241L80.2435 42.5597L98.6589 52.3427L111.32 37.3802L121.966 35.0783L134.627 20.979L154.768 27.8848L175.773 7.74293L194.764 2.56348" stroke="#1F4E9E" stroke-width="0.68591"/>
<circle cx="193.484" cy="2.56346" r="2.56346" fill="#1F4E9E"/>
<defs>
<linearGradient id="paint0_linear_15578_85" x1="97.1247" y1="2.38501" x2="97.1247" y2="104.326" gradientUnits="userSpaceOnUse">
<stop stop-color="#D9E8FF"/>
<stop offset="1" stop-color="#D9E8FF" stop-opacity="0"/>
</linearGradient>
</defs>
</svg>
