<svg width="43" height="32" viewBox="0 0 43 32" fill="none" xmlns="http://www.w3.org/2000/svg">
<path d="M30.7181 16.4562L39.4949 16.4562C39.4949 21.81 36.2804 26.4287 31.6836 28.4803L33.022 31.4863C38.7763 28.9301 42.7861 23.1594 42.7861 16.4562L42.7861 4.38819C42.7861 1.96417 40.8212 -0.000173741 38.3978 -0.000173952L26.3298 -0.000175007L26.3298 12.0678C26.3298 14.4918 28.2947 16.4562 30.7181 16.4562ZM4.38796 16.4562L13.1647 16.4562C13.1647 21.81 9.95021 26.4287 5.3534 28.4803L6.69184 31.4863C12.4461 28.9301 16.456 23.1594 16.456 16.4562L16.456 4.38819C16.456 1.96416 14.4911 -0.000176042 12.0676 -0.000176254L-0.000401605 -0.000177309L-0.00040266 12.0678C-0.000402872 14.4918 1.96449 16.4562 4.38796 16.4562Z" fill="#D9E8FB"/>
</svg>
