<svg width="26" height="26" viewBox="0 0 26 26" fill="none" xmlns="http://www.w3.org/2000/svg">
<path d="M0.590012 12.9654C0.616815 12.9654 0.643587 12.9636 0.670162 12.9601C4.99939 12.3727 9.22174 11.1662 13.2077 9.37754C17.233 7.56647 20.973 5.17853 24.3097 2.28899L23.5919 5.16142C23.5541 5.31295 23.5779 5.47329 23.6583 5.60721C23.7386 5.74114 23.8688 5.8377 24.0203 5.8757C24.0672 5.88729 24.1152 5.89323 24.1635 5.89338C24.2949 5.89321 24.4224 5.84916 24.5259 5.76823C24.6293 5.68729 24.7028 5.57411 24.7346 5.44666L25.9133 0.731957C25.9349 0.645147 25.9365 0.554547 25.9179 0.467026C25.8994 0.379505 25.8611 0.29736 25.8061 0.22682C25.7511 0.15628 25.6807 0.0991961 25.6003 0.0598968C25.5199 0.0205974 25.4317 0.000114167 25.3422 0H20.6275C20.4712 0 20.3213 0.0620907 20.2108 0.172613C20.1002 0.283135 20.0382 0.433036 20.0382 0.589338C20.0382 0.74564 20.1002 0.89554 20.2108 1.00606C20.3213 1.11658 20.4712 1.17868 20.6275 1.17868H23.7916C20.4777 4.09092 16.7475 6.49203 12.7245 8.30259C8.84136 10.045 4.72796 11.2201 0.510451 11.7921C0.36228 11.8121 0.227255 11.8877 0.132727 12.0035C0.0381993 12.1193 -0.00876376 12.2668 0.00135103 12.416C0.0114658 12.5651 0.0779021 12.7049 0.187202 12.8069C0.296503 12.9089 0.440495 12.9656 0.590012 12.9654Z" fill="white"/>
<path d="M25.3425 24.7519H24.7532V8.83983C24.7532 8.68352 24.6911 8.53362 24.5805 8.4231C24.47 8.31258 24.3201 8.25049 24.1638 8.25049H18.2704C18.1141 8.25049 17.9642 8.31258 17.8537 8.4231C17.7432 8.53362 17.6811 8.68352 17.6811 8.83983V24.7519H16.5024V12.3759C16.5024 12.2195 16.4403 12.0696 16.3298 11.9591C16.2193 11.8486 16.0694 11.7865 15.9131 11.7865H10.0197C9.86341 11.7865 9.71351 11.8486 9.60299 11.9591C9.49247 12.0696 9.43038 12.2195 9.43038 12.3759V24.7519H8.2517V15.9119C8.2517 15.7556 8.18961 15.6057 8.07909 15.4952C7.96857 15.3846 7.81867 15.3225 7.66236 15.3225H1.76899C1.61269 15.3225 1.46279 15.3846 1.35226 15.4952C1.24174 15.6057 1.17965 15.7556 1.17965 15.9119V24.7519H0.590314C0.434012 24.7519 0.284112 24.814 0.17359 24.9246C0.0630673 25.0351 0.000976563 25.185 0.000976562 25.3413C0.000976563 25.4976 0.0630673 25.6475 0.17359 25.758C0.284112 25.8685 0.434012 25.9306 0.590314 25.9306H25.3425C25.4988 25.9306 25.6487 25.8685 25.7592 25.758C25.8697 25.6475 25.9318 25.4976 25.9318 25.3413C25.9318 25.185 25.8697 25.0351 25.7592 24.9246C25.6487 24.814 25.4988 24.7519 25.3425 24.7519ZM18.8598 9.42916H23.5745V24.7519H18.8598V9.42916ZM10.6091 12.9652H15.3238V24.7519H10.6091V12.9652ZM2.35833 16.5012H7.07303V24.7519H2.35833V16.5012Z" fill="white"/>
</svg>
