<svg width="23" height="21" viewBox="0 0 23 21" fill="none" xmlns="http://www.w3.org/2000/svg">
<path d="M22.2509 19.7567H20.7276V13.5541C20.7276 13.3711 20.5792 13.2227 20.3962 13.2227C20.2131 13.2227 20.0647 13.3711 20.0647 13.5541V19.7567H17.4833V8.84685C17.4833 8.78596 17.5329 8.73637 17.5938 8.73637H19.9542C20.0151 8.73637 20.0647 8.78596 20.0647 8.84685V12.2283C20.0647 12.4114 20.2131 12.5598 20.3962 12.5598C20.5792 12.5598 20.7276 12.4114 20.7276 12.2283V8.84685C20.7276 8.42044 20.3807 8.07349 19.9542 8.07349H17.5938C17.1674 8.07349 16.8205 8.42044 16.8205 8.84685V19.7567H15.739V11.259C15.739 10.8326 15.3921 10.4856 14.9657 10.4856H12.6052C12.1788 10.4856 11.8319 10.8326 11.8319 11.259V19.7567H10.7504V13.6711C10.7504 13.2447 10.4035 12.8977 9.97707 12.8977H7.61666C7.19025 12.8977 6.8433 13.2447 6.8433 13.6711V16.5693C6.8433 16.7524 6.99169 16.9008 7.17474 16.9008C7.35779 16.9008 7.50618 16.7524 7.50618 16.5693V13.6711C7.50618 13.6101 7.55577 13.5606 7.61666 13.5606H9.97707C10.038 13.5606 10.0876 13.6101 10.0876 13.6711V19.7567H7.50618V17.8951C7.50618 17.712 7.35779 17.5636 7.17474 17.5636C6.99169 17.5636 6.8433 17.712 6.8433 17.8951V19.7567H5.76186V16.0832C5.76186 15.6568 5.41495 15.3098 4.98849 15.3098H2.62813C2.20171 15.3098 1.85476 15.6568 1.85476 16.0832V19.7567H0.331444C0.148398 19.7567 0 19.9051 0 20.0881C0 20.2711 0.148398 20.4195 0.331444 20.4195H22.2509C22.434 20.4195 22.5824 20.2711 22.5824 20.0881C22.5824 19.9051 22.434 19.7567 22.2509 19.7567ZM12.4948 11.259C12.4948 11.1981 12.5443 11.1485 12.6052 11.1485H14.9657C15.0266 11.1485 15.0761 11.1981 15.0761 11.259V19.7567H12.4948V11.259ZM2.51765 16.0832C2.51765 16.0223 2.56723 15.9727 2.62813 15.9727H4.98854C5.04948 15.9727 5.09902 16.0223 5.09902 16.0832V19.7567H2.51765V16.0832Z" fill="white"/>
<path d="M3.53955 11.3529C3.55772 11.3529 3.57606 11.3523 3.59444 11.351C6.03881 11.1813 8.3374 10.6478 10.4264 9.76551C13.2394 8.57744 15.5681 6.78658 17.3527 4.43992L18.4698 5.21664C18.6898 5.38073 19.0252 5.1835 18.9888 4.91141L18.5258 0.299125C18.5107 0.10216 18.3024 -0.0427477 18.1124 0.0114765L13.6234 1.18063C13.3555 1.24109 13.2872 1.62424 13.5177 1.77352L14.645 2.55732C14.4208 2.90971 13.9266 3.60844 13.065 4.46312C12.935 4.59207 12.9342 4.8019 13.0631 4.93182C13.192 5.06179 13.4019 5.06263 13.5318 4.93372C14.8601 3.61613 15.3616 2.65273 15.3823 2.61238C15.458 2.46469 15.4128 2.28377 15.2765 2.18902L14.4877 1.64054L17.9049 0.750552L18.2574 4.26151L17.4679 3.7126C17.32 3.60981 17.1173 3.64383 17.0111 3.78914C15.2744 6.16537 12.9722 7.97068 10.1685 9.15481C7.65056 10.2183 5.17874 10.5764 3.54857 10.6897C3.45333 10.7141 3.42448 10.5392 3.51931 10.5291C7.15083 9.40839 10.1836 7.83293 12.5335 5.84648C12.6733 5.72831 12.6908 5.51919 12.5726 5.37941C12.4545 5.23962 12.2453 5.22204 12.1056 5.34025C9.82425 7.26877 6.86968 8.80141 3.32389 9.89566C2.95568 10.0093 2.73962 10.3664 2.81016 10.7448C2.8772 11.1046 3.17934 11.3529 3.53955 11.3529Z" fill="white"/>
</svg>
