<svg width="60" height="60" viewBox="0 0 60 60" fill="none" xmlns="http://www.w3.org/2000/svg">
<path d="M10.5129 44.1883C10.9849 43.7455 11.7266 43.7692 12.1694 44.2412C12.6122 44.7132 12.5884 45.4548 12.1164 45.8976L2.8567 54.5839C2.17931 55.2193 2.15749 56.3903 2.88359 57.1164C3.60935 57.8423 4.78094 57.8202 5.41605 57.1432L14.0731 47.9147C14.5159 47.4427 15.2575 47.4191 15.7296 47.8619C16.2016 48.3047 16.2252 49.0462 15.7824 49.5183L7.12545 58.7468H7.12534C5.5182 60.4599 2.818 60.3655 1.22626 58.7737C-0.365122 57.1821 -0.46099 54.4826 1.25315 52.8746L10.5129 44.1883Z" fill="white"/>
<path d="M30.9932 29.0069C26.3026 24.3162 18.6975 24.3162 14.0069 29.0069C9.31626 33.6975 9.31626 41.3025 14.0069 45.9931C18.6975 50.6838 26.3026 50.6838 30.9932 45.9931C35.6838 41.3025 35.6838 33.6975 30.9932 29.0069ZM32.6504 27.3496C38.2563 32.9555 38.2563 42.0445 32.6504 47.6504C27.0445 53.2563 17.9555 53.2563 12.3496 47.6504C6.74372 42.0445 6.74372 32.9555 12.3496 27.3496C17.9555 21.7437 27.0445 21.7437 32.6504 27.3496Z" fill="white"/>
<path d="M16.6406 24.59V1.17187C16.6406 0.524664 17.1653 0 17.8125 0H48.2811L48.3392 0.00148773C48.6288 0.0158649 48.9037 0.137182 49.1097 0.343207L59.6565 10.8901C59.8763 11.1098 59.9998 11.4079 59.9998 11.7187V56.2496C59.9998 56.8968 59.4751 57.4215 58.8279 57.4215H17.8125C17.1653 57.4215 16.6406 56.8968 16.6406 56.2496V50.4103C16.6407 49.7631 17.1653 49.2384 17.8125 49.2384C18.4597 49.2384 18.9843 49.7631 18.9844 50.4103V55.0778H57.6561V12.2041L47.7956 2.34374H18.9844V24.59C18.9844 25.2372 18.4597 25.7618 17.8125 25.7618C17.1653 25.7618 16.6406 25.2372 16.6406 24.59Z" fill="white"/>
<path d="M47.1094 1.75781C47.1094 1.1106 47.634 0.585938 48.2812 0.585938C48.9285 0.585938 49.4531 1.1106 49.4531 1.75781V10.5468H58.2421C58.8893 10.5469 59.4139 11.0715 59.4139 11.7187C59.4139 12.3659 58.8893 12.8906 58.2421 12.8906H48.2812C47.634 12.8906 47.1094 12.3659 47.1094 11.7187V1.75781Z" fill="white"/>
<path d="M43.0078 5.27344C43.655 5.27344 44.1796 5.7981 44.1796 6.44531C44.1796 7.09252 43.655 7.61718 43.0078 7.61718H24.2578C23.6106 7.61718 23.0859 7.09252 23.0859 6.44531C23.0859 5.7981 23.6106 5.27344 24.2578 5.27344H43.0078Z" fill="white"/>
<path d="M33.6328 10.5469C34.28 10.5469 34.8047 11.0715 34.8047 11.7187C34.8047 12.366 34.28 12.8906 33.6328 12.8906H24.2578C23.6106 12.8906 23.0859 12.366 23.0859 11.7187C23.0859 11.0715 23.6106 10.5469 24.2578 10.5469H33.6328Z" fill="white"/>
<path d="M53.5546 17.8711C54.2018 17.8711 54.7265 18.3958 54.7265 19.043C54.7265 19.6902 54.2018 20.2148 53.5546 20.2148H24.2578C23.6106 20.2148 23.0859 19.6902 23.0859 19.043C23.0859 18.3958 23.6106 17.8711 24.2578 17.8711H53.5546Z" fill="white"/>
<path d="M53.5547 23.1445C54.202 23.1445 54.7266 23.6692 54.7266 24.3164C54.7266 24.9636 54.202 25.4883 53.5547 25.4883H35.4141C34.7669 25.4883 34.2422 24.9636 34.2422 24.3164C34.2422 23.6692 34.7669 23.1445 35.4141 23.1445H53.5547Z" fill="white"/>
<path d="M53.5544 33.6914C54.2016 33.6914 54.7263 34.2161 54.7263 34.8633C54.7263 35.5105 54.2016 36.0351 53.5544 36.0352H40.7676C40.1204 36.0352 39.5957 35.5105 39.5957 34.8633C39.5957 34.2161 40.1204 33.6914 40.7676 33.6914H53.5544Z" fill="white"/>
<path d="M47.1608 38.9648C47.808 38.9648 48.3327 39.4895 48.3327 40.1367C48.3327 40.7839 47.808 41.3086 47.1608 41.3086H40.7676C40.1204 41.3086 39.5957 40.7839 39.5957 40.1367C39.5957 39.4895 40.1204 38.9648 40.7676 38.9648H47.1608Z" fill="white"/>
<path d="M53.5552 44.2378C54.2024 44.2378 54.727 44.7625 54.727 45.4097C54.727 46.0569 54.2024 46.5815 53.5552 46.5815H39.1797C38.5325 46.5815 38.0078 46.0569 38.0078 45.4097C38.0078 44.7625 38.5325 44.2378 39.1797 44.2378H53.5552Z" fill="white"/>
<path d="M38.9064 49.5112C39.5536 49.5112 40.0783 50.0359 40.0783 50.6831C40.0783 51.3303 39.5536 51.855 38.9064 51.855H35.415C34.7678 51.855 34.2432 51.3303 34.2432 50.6831C34.2432 50.0359 34.7678 49.5112 35.415 49.5112H38.9064Z" fill="white"/>
<path d="M25.6265 34.0346C26.0842 33.577 26.8262 33.577 27.2839 34.0346C27.7415 34.4923 27.7415 35.2343 27.2839 35.692L22.0103 40.9655C21.5527 41.4232 20.8106 41.4232 20.353 40.9655L17.7163 38.3288C17.2586 37.8711 17.2586 37.1291 17.7163 36.6715C18.1739 36.2138 18.916 36.2138 19.3736 36.6715L21.1817 38.4795L25.6265 34.0346Z" fill="white"/>
</svg>
