<svg width="32" height="32" viewBox="0 0 32 32" fill="none" xmlns="http://www.w3.org/2000/svg">
<path d="M31.4666 18.6671H29.8308L28.8 3.69751C28.7806 3.41724 28.5476 3.20005 28.2666 3.20044H25.0666C24.7855 3.20005 24.5525 3.41724 24.5332 3.69751L23.5023 18.6671H22.4001V15.4671C22.4001 15.1728 22.1613 14.9337 21.8669 14.9337C21.7454 14.9335 21.6279 14.9749 21.5333 15.0507L17.0667 18.624V15.4671C17.0667 15.1728 16.828 14.9337 16.5335 14.9337C16.4122 14.9335 16.2946 14.9749 16.2001 15.0507L11.7335 18.624V15.4671C11.7335 15.1728 11.4948 14.9337 11.2003 14.9337C11.079 14.9335 10.9612 14.9749 10.8669 15.0507L6.40023 18.624V15.4671C6.40004 15.1728 6.16117 14.9339 5.86683 14.9339C5.76976 14.9339 5.67503 14.9603 5.59203 15.0101L0.258595 18.2101C0.0982428 18.3066 0 18.4798 0 18.6671V31.4672C0 31.7617 0.238869 32.0004 0.533402 32.0004H31.4666C31.7611 32.0004 32 31.7617 32 31.4672V19.2005C32 18.9058 31.7611 18.6671 31.4666 18.6671ZM25.5646 4.26705H27.7685L28.7619 18.6671H24.5712L25.5646 4.26705ZM18.1331 30.9338V24.5338H21.3331V30.9338H18.1331ZM30.9334 30.9338H22.4001V24.0004C22.4001 23.706 22.1611 23.4672 21.8665 23.4672H17.5999C17.3054 23.4672 17.0665 23.706 17.0665 24.0004V30.9338H1.06661V18.9691L5.33324 16.4091V19.7337C5.33324 20.0285 5.57191 20.2671 5.86644 20.2675C5.98754 20.2675 6.10531 20.2261 6.20004 20.1503L10.6667 16.5771V19.7337C10.6667 20.0285 10.9051 20.2671 11.1999 20.2675C11.321 20.2675 11.4385 20.2261 11.5333 20.1505L15.9999 16.5773V19.7339C15.9999 20.0285 16.2384 20.2675 16.5331 20.2675C16.6542 20.2675 16.7718 20.2261 16.8665 20.1505L21.3331 16.5773V19.2005C21.3331 19.4953 21.572 19.7339 21.8665 19.7339H30.933V30.9338H30.9334Z" fill="#02B4B4"/>
<path d="M18.1293 1.06707C18.3232 1.17098 18.4984 1.30653 18.6479 1.46805C18.9469 1.8327 19.3727 2.0702 19.8397 2.13368C20.3317 2.07099 20.7809 1.82313 21.0963 1.44032C21.2313 1.29871 21.3823 1.17352 21.5465 1.06707C21.6563 1.07196 21.9438 1.3411 22.0985 1.48563C22.3862 1.84169 22.7994 2.07352 23.253 2.13368C23.7768 2.06727 24.2555 1.80458 24.5928 1.39872C24.7235 1.27606 24.9213 1.08992 24.9596 1.06707C25.2459 1.06707 25.3116 1.162 25.4877 1.4159C25.7192 1.85321 26.1715 2.1288 26.6665 2.13368C26.9608 2.13368 27.1997 1.89481 27.1997 1.60047C27.1997 1.30575 26.9608 1.06707 26.6665 1.06707C26.5596 1.06707 26.5389 1.05965 26.3657 0.809454C26.0825 0.300662 25.5417 -0.0104728 24.9596 0.000269463C24.5282 0.0602308 24.1356 0.282107 23.8622 0.621172C23.685 0.788165 23.3881 1.06707 23.2754 1.06961C23.1102 0.969611 22.9594 0.847736 22.8262 0.707696C22.5055 0.317068 22.0477 0.064137 21.5463 0.000269463C21.084 0.0633558 20.6629 0.298904 20.367 0.659453C20.2174 0.820001 20.0445 0.957307 19.8545 1.06707C19.6768 0.965119 19.5151 0.837775 19.3746 0.68836C19.0629 0.309842 18.6192 0.064137 18.1328 0.000269463C17.8385 -0.000707105 17.5986 0.237185 17.5977 0.531913C17.5967 0.826251 17.8348 1.0661 18.1293 1.06707Z" fill="#02B4B4"/>
<path d="M5.86701 24.5337H3.7334C3.43887 24.5337 3.2002 24.7726 3.2002 25.0669V28.2669C3.2002 28.5616 3.43887 28.8003 3.7334 28.8003H5.86701C6.16135 28.8003 6.40021 28.5616 6.40021 28.2669V25.0669C6.40021 24.7726 6.16135 24.5337 5.86701 24.5337ZM5.33341 27.7337H4.2668V25.6005H5.33341V27.7337Z" fill="#02B4B4"/>
<path d="M10.1336 24.5337H8.0002C7.70547 24.5337 7.4668 24.7726 7.4668 25.0669V28.2669C7.4668 28.5616 7.70547 28.8003 8.0002 28.8003H10.1336C10.4279 28.8003 10.6668 28.5616 10.6668 28.2669V25.0669C10.6668 24.7726 10.4279 24.5337 10.1336 24.5337ZM9.60001 27.7337H8.5334V25.6005H9.60001V27.7337Z" fill="#02B4B4"/>
<path d="M14.4002 24.5337H12.2668C11.9721 24.5337 11.7334 24.7726 11.7334 25.0669V28.2669C11.7334 28.5616 11.9721 28.8003 12.2668 28.8003H14.4002C14.6945 28.8003 14.9334 28.5616 14.9334 28.2669V25.0669C14.9334 24.7726 14.6945 24.5337 14.4002 24.5337ZM13.8666 27.7337H12.8V25.6005H13.8666V27.7337Z" fill="#02B4B4"/>
</svg>
