<svg width="27" height="25" viewBox="0 0 27 25" fill="none" xmlns="http://www.w3.org/2000/svg">
<path d="M24.7009 0H2.24554C1.006 0 0 1.006 0 2.24554V17.5152C0 18.7547 1.006 19.7607 2.24554 19.7607H9.52556L8.22764 22.2982C8.01656 22.7158 8.03453 23.2009 8.27705 23.6006C8.52855 24.0093 8.96418 24.2518 9.44921 24.2518H17.4927C17.9778 24.2518 18.4134 24.0093 18.6649 23.6006C18.9074 23.2009 18.9299 22.7158 18.7143 22.2982L17.4164 19.7607H24.6964C25.9359 19.7607 26.9419 18.7547 26.9419 17.5152V2.24554C26.9419 1.006 25.9359 0 24.6964 0H24.7009ZM26.0482 2.24554V16.1679H15.7188V0.898214H24.7009C25.4419 0.898214 26.0482 1.50451 26.0482 2.24554ZM2.24554 0.898214H14.8205V16.1679H0.898214V2.24554C0.898214 1.50451 1.50451 0.898214 2.24554 0.898214ZM17.9149 22.7069C18.0137 22.9045 17.9373 23.0706 17.8969 23.1335C17.8565 23.2009 17.7352 23.3536 17.4927 23.3536H9.44921C9.2067 23.3536 9.08544 23.1964 9.04502 23.1335C9.00909 23.0706 8.92825 22.9045 9.02705 22.7069L10.5316 19.7607H16.4059L17.9104 22.7069H17.9149ZM26.0482 17.5152C26.0482 18.2562 25.4419 18.8625 24.7009 18.8625H2.24554C1.50451 18.8625 0.898214 18.2562 0.898214 17.5152V17.0661H26.0482V17.5152Z" fill="white"/>
<path d="M3.14431 8.53311H13.0247C13.5187 8.53311 13.9229 8.12891 13.9229 7.63489V3.14382C13.9229 2.6498 13.5187 2.24561 13.0247 2.24561H3.14431C2.65029 2.24561 2.24609 2.6498 2.24609 3.14382V7.63489C2.24609 8.12891 2.65029 8.53311 3.14431 8.53311ZM3.14431 3.14382H13.0247V7.63489H3.14431V3.14382Z" fill="white"/>
<path d="M3.14431 14.8209H6.73717C7.23118 14.8209 7.63538 14.4167 7.63538 13.9227V10.3299C7.63538 9.83584 7.23118 9.43164 6.73717 9.43164H3.14431C2.65029 9.43164 2.24609 9.83584 2.24609 10.3299V13.9227C2.24609 14.4167 2.65029 14.8209 3.14431 14.8209ZM3.14431 10.3299H6.73717V13.9227H3.14431V10.3299Z" fill="white"/>
<path d="M13.0243 9.43164H9.43142C8.9374 9.43164 8.5332 9.83584 8.5332 10.3299V13.9227C8.5332 14.4167 8.9374 14.8209 9.43142 14.8209H13.0243C13.5183 14.8209 13.9225 14.4167 13.9225 13.9227V10.3299C13.9225 9.83584 13.5183 9.43164 13.0243 9.43164ZM9.43142 13.9227V10.3299H13.0243V13.9227H9.43142Z" fill="white"/>
<path d="M24.2521 13.9224H17.5155C17.2685 13.9224 17.0664 14.1245 17.0664 14.3715C17.0664 14.6185 17.2685 14.8206 17.5155 14.8206H24.2521C24.4991 14.8206 24.7012 14.6185 24.7012 14.3715C24.7012 14.1245 24.4991 13.9224 24.2521 13.9224Z" fill="white"/>
<path d="M24.2521 11.6768H17.5155C17.2685 11.6768 17.0664 11.8789 17.0664 12.1259C17.0664 12.3729 17.2685 12.575 17.5155 12.575H24.2521C24.4991 12.575 24.7012 12.3729 24.7012 12.1259C24.7012 11.8789 24.4991 11.6768 24.2521 11.6768Z" fill="white"/>
<path d="M24.2521 9.43164H17.5155C17.2685 9.43164 17.0664 9.63374 17.0664 9.88075C17.0664 10.1278 17.2685 10.3299 17.5155 10.3299H24.2521C24.4991 10.3299 24.7012 10.1278 24.7012 9.88075C24.7012 9.63374 24.4991 9.43164 24.2521 9.43164Z" fill="white"/>
<path d="M22.6352 7.09559C22.7161 7.15398 22.8104 7.18542 22.9047 7.18542C23.0394 7.18542 23.1741 7.12254 23.264 7.00577L24.6113 5.20934C24.7325 5.04767 24.7325 4.83209 24.6113 4.67042L23.264 2.87399C23.1158 2.67638 22.8328 2.63596 22.6352 2.78417C22.4376 2.93237 22.3972 3.21531 22.5454 3.41292L23.6906 4.93988L22.5454 6.46684C22.3972 6.66445 22.4376 6.94739 22.6352 7.09559Z" fill="white"/>
<path d="M16.7062 5.20934L18.0535 7.00577C18.1433 7.12254 18.2781 7.18542 18.4128 7.18542C18.5071 7.18542 18.6014 7.15398 18.6822 7.09559C18.8799 6.94739 18.9203 6.66445 18.7721 6.46684L17.6268 4.93988L18.7721 3.41292C18.9203 3.21531 18.8799 2.93237 18.6822 2.78417C18.4846 2.63596 18.2017 2.67638 18.0535 2.87399L16.7062 4.67042C16.5849 4.83209 16.5849 5.04767 16.7062 5.20934Z" fill="white"/>
<path d="M20.1025 7.17243C20.1385 7.18141 20.1744 7.1859 20.2103 7.1859C20.4124 7.1859 20.5966 7.05117 20.646 6.84458L21.5442 3.25173C21.6026 3.00921 21.4589 2.76669 21.2163 2.70831C20.9738 2.64543 20.7313 2.79364 20.6729 3.03615L19.7747 6.62901C19.7163 6.87153 19.86 7.11405 20.1025 7.17243Z" fill="white"/>
</svg>
